<?xml version="1.0" encoding="UTF-8"?>
<!-- Generator: visioncortex VTracer 0.6.4 -->
<svg version="1.1" xmlns="http://www.w3.org/2000/svg" width="1792" height="172">
<path d="M0 0 C591.36 0 1182.72 0 1792 0 C1792 56.76 1792 113.52 1792 172 C1200.64 172 609.28 172 0 172 C0 115.24 0 58.48 0 0 Z " fill="#000000" transform="translate(0,0)"/>
<path d="M0 0 C10 0 10 0 13.12 1.94 C15.67 6.1 16 9.25 15 14 C13.73 17.12 12.83 17.79 10 20 C6.7 20 3.4 20 0 20 C0 13.4 0 6.8 0 0 Z " fill="#CCCA3F" transform="translate(437,130)"/>
<path d="M0 0 C10 0 10 0 13.12 1.94 C15.67 6.1 16 9.25 15 14 C13.73 17.12 12.83 17.79 10 20 C6.7 20 3.4 20 0 20 C0 13.4 0 6.8 0 0 Z " fill="#B5543C" transform="translate(5,130)"/>
<path d="M0 0 C10 0 10 0 13.12 1.94 C15.67 6.1 16 9.25 15 14 C13.73 17.12 12.83 17.79 10 20 C6.7 20 3.4 20 0 20 C0 13.4 0 6.8 0 0 Z " fill="#CCCA3F" transform="translate(437,92)"/>
<path d="M0 0 C10 0 10 0 13.12 1.94 C15.67 6.1 16 9.25 15 14 C13.73 17.12 12.83 17.79 10 20 C6.7 20 3.4 20 0 20 C0 13.4 0 6.8 0 0 Z " fill="#B5543C" transform="translate(5,92)"/>
<path d="M0 0 C10 0 10 0 13.12 1.94 C15.67 6.1 16 9.25 15 14 C13.73 17.12 12.83 17.79 10 20 C6.7 20 3.4 20 0 20 C0 13.4 0 6.8 0 0 Z " fill="#4AA794" transform="translate(581,16)"/>
<path d="M0 0 C10 0 10 0 13.12 1.94 C15.67 6.1 16 9.25 15 14 C13.73 17.12 12.83 17.79 10 20 C6.7 20 3.4 20 0 20 C0 13.4 0 6.8 0 0 Z " fill="#49A794" transform="translate(437,16)"/>
<path d="M0 0 C3.3 0 6.6 0 10 0 C13.01 3.01 12 5.89 12 10 C12.66 10.66 13.32 11.32 14 12 C13.81 15 13.81 15 13 18 C10 20 10 20 0 20 C0 13.4 0 6.8 0 0 Z " fill="#4CAC98" transform="translate(1734,16)"/>
<path d="M0 0 C1.32 0 2.64 0 4 0 C5.01 2.58 6.01 5.16 7 7.75 C7.29 8.48 7.57 9.21 7.87 9.96 C8.14 10.67 8.41 11.38 8.69 12.11 C8.94 12.76 9.19 13.41 9.45 14.08 C10 16 10 16 10 20 C8.68 19.67 7.36 19.34 6 19 C6 17.35 6 15.7 6 14 C3.36 14 0.72 14 -2 14 C-2.33 15.98 -2.66 17.96 -3 20 C-3.99 20 -4.98 20 -6 20 C-5.5 12.85 -2.68 6.59 0 0 Z " fill="#D0CE40" transform="translate(1450,92)"/>
<path d="M0 0 C1.32 0 2.64 0 4 0 C5.01 2.58 6.01 5.16 7 7.75 C7.29 8.48 7.57 9.21 7.87 9.96 C8.14 10.67 8.41 11.38 8.69 12.11 C8.94 12.76 9.19 13.41 9.45 14.08 C10 16 10 16 10 20 C9.01 20 8.02 20 7 20 C6.67 18.02 6.34 16.04 6 14 C3.36 14 0.72 14 -2 14 C-2.33 15.98 -2.66 17.96 -3 20 C-3.99 20 -4.98 20 -6 20 C-5.5 12.85 -2.68 6.59 0 0 Z " fill="#D1CF41" transform="translate(1450,130)"/>
<path d="M0 0 C1.32 0 2.64 0 4 0 C5.01 2.58 6.01 5.16 7 7.75 C7.29 8.48 7.57 9.21 7.87 9.96 C8.14 10.67 8.41 11.38 8.69 12.11 C8.94 12.76 9.19 13.41 9.45 14.08 C10 16 10 16 10 20 C8.68 19.67 7.36 19.34 6 19 C6 17.35 6 15.7 6 14 C3.36 14 0.72 14 -2 14 C-2.33 15.98 -2.66 17.96 -3 20 C-3.99 20 -4.98 20 -6 20 C-5.5 12.85 -2.68 6.59 0 0 Z " fill="#4BAB97" transform="translate(1594,16)"/>
<path d="M0 0 C1.32 0 2.64 0 4 0 C5.01 2.58 6.01 5.16 7 7.75 C7.29 8.48 7.57 9.21 7.87 9.96 C8.14 10.67 8.41 11.38 8.69 12.11 C8.94 12.76 9.19 13.41 9.45 14.08 C10 16 10 16 10 20 C9.01 20 8.02 20 7 20 C6.67 18.02 6.34 16.04 6 14 C3.36 14 0.72 14 -2 14 C-2.33 15.98 -2.66 17.96 -3 20 C-3.99 20 -4.98 20 -6 20 C-5.5 12.85 -2.68 6.59 0 0 Z " fill="#4BAB97" transform="translate(1450,16)"/>
<path d="M0 0 C0.99 0.66 1.98 1.32 3 2 C2.67 2.99 2.34 3.98 2 5 C-0.31 4.67 -2.62 4.34 -5 4 C-7.7 8.05 -7.23 10.18 -7 15 C-6.67 15.66 -6.34 16.32 -6 17 C-2.97 17.66 -2.97 17.66 0 18 C0 16.35 0 14.7 0 13 C-1.32 13 -2.64 13 -4 13 C-4 12.01 -4 11.02 -4 10 C-1.69 10 0.62 10 3 10 C3 13.3 3 16.6 3 20 C-0.25 21.62 -3.5 21.69 -7 21 C-10.09 18.42 -11.65 16.91 -12.37 12.96 C-12.49 9.25 -12.31 5.97 -10 3 C-6.63 0.45 -4.22 -0.56 0 0 Z " fill="#4AA894" transform="translate(1168,15)"/>
<path d="M0 0 C0.99 0.66 1.98 1.32 3 2 C2.67 2.99 2.34 3.98 2 5 C-0.31 4.67 -2.62 4.34 -5 4 C-7.7 8.05 -7.23 10.18 -7 15 C-6.67 15.66 -6.34 16.32 -6 17 C-2.97 17.66 -2.97 17.66 0 18 C0 16.35 0 14.7 0 13 C-1.32 13 -2.64 13 -4 13 C-4 12.01 -4 11.02 -4 10 C-1.69 10 0.62 10 3 10 C3 13.3 3 16.6 3 20 C-0.25 21.62 -3.5 21.69 -7 21 C-10.09 18.42 -11.65 16.91 -12.37 12.96 C-12.49 9.25 -12.31 5.97 -10 3 C-6.63 0.45 -4.22 -0.56 0 0 Z " fill="#49A592" transform="translate(1312,15)"/>
<path d="M0 0 C0.66 0 1.32 0 2 0 C2 1.65 2 3.3 2 5 C2.99 5 3.98 5 5 5 C5.33 3.35 5.66 1.7 6 0 C6.66 0 7.32 0 8 0 C8 1.98 8 3.96 8 6 C8.66 6 9.32 6 10 6 C10 6.66 10 7.32 10 8 C9.01 8 8.02 8 7 8 C7 9.32 7 10.64 7 12 C7.66 12 8.32 12 9 12 C9 12.66 9 13.32 9 14 C8.01 14 7.02 14 6 14 C6 15.98 6 17.96 6 20 C5.34 20 4.68 20 4 20 C4 18.02 4 16.04 4 14 C3.01 14 2.02 14 1 14 C0.67 15.98 0.34 17.96 0 20 C-0.66 20 -1.32 20 -2 20 C-2 18.02 -2 16.04 -2 14 C-2.66 14 -3.32 14 -4 14 C-4 13.34 -4 12.68 -4 12 C-3.01 12 -2.02 12 -1 12 C-1 10.68 -1 9.36 -1 8 C-1.66 8 -2.32 8 -3 8 C-3 7.01 -3 6.02 -3 5 C-2.01 5 -1.02 5 0 5 C0 3.35 0 1.7 0 0 Z " fill="#CFCE40" transform="translate(1035,130)"/>
<path d="M0 0 C0.66 0 1.32 0 2 0 C2 1.65 2 3.3 2 5 C2.99 5 3.98 5 5 5 C5.33 3.35 5.66 1.7 6 0 C6.66 0 7.32 0 8 0 C8 1.98 8 3.96 8 6 C8.66 6 9.32 6 10 6 C10 6.66 10 7.32 10 8 C9.01 8 8.02 8 7 8 C7 9.32 7 10.64 7 12 C7.66 12 8.32 12 9 12 C9 12.66 9 13.32 9 14 C8.01 14 7.02 14 6 14 C6 15.98 6 17.96 6 20 C5.34 20 4.68 20 4 20 C4 18.02 4 16.04 4 14 C3.01 14 2.02 14 1 14 C0.67 15.98 0.34 17.96 0 20 C-0.66 20 -1.32 20 -2 20 C-2 18.02 -2 16.04 -2 14 C-2.66 14 -3.32 14 -4 14 C-4 13.34 -4 12.68 -4 12 C-3.01 12 -2.02 12 -1 12 C-1 10.68 -1 9.36 -1 8 C-1.66 8 -2.32 8 -3 8 C-3 7.01 -3 6.02 -3 5 C-2.01 5 -1.02 5 0 5 C0 3.35 0 1.7 0 0 Z " fill="#D0CE40" transform="translate(1035,92)"/>
<path d="M0 0 C0.66 0 1.32 0 2 0 C2 1.65 2 3.3 2 5 C2.99 5 3.98 5 5 5 C5.33 3.35 5.66 1.7 6 0 C6.66 0 7.32 0 8 0 C8 1.98 8 3.96 8 6 C8.66 6 9.32 6 10 6 C10 6.66 10 7.32 10 8 C9.01 8 8.02 8 7 8 C7 9.32 7 10.64 7 12 C7.66 12 8.32 12 9 12 C9 12.66 9 13.32 9 14 C8.01 14 7.02 14 6 14 C6 15.98 6 17.96 6 20 C5.34 20 4.68 20 4 20 C4 18.02 4 16.04 4 14 C3.01 14 2.02 14 1 14 C0.67 15.98 0.34 17.96 0 20 C-0.66 20 -1.32 20 -2 20 C-2 18.02 -2 16.04 -2 14 C-2.66 14 -3.32 14 -4 14 C-4 13.34 -4 12.68 -4 12 C-3.01 12 -2.02 12 -1 12 C-1 10.68 -1 9.36 -1 8 C-1.66 8 -2.32 8 -3 8 C-3 7.01 -3 6.02 -3 5 C-2.01 5 -1.02 5 0 5 C0 3.35 0 1.7 0 0 Z " fill="#4BAB97" transform="translate(1611,16)"/>
<path d="M0 0 C0.66 0 1.32 0 2 0 C2 1.65 2 3.3 2 5 C2.99 5 3.98 5 5 5 C5.33 3.35 5.66 1.7 6 0 C6.66 0 7.32 0 8 0 C8 1.98 8 3.96 8 6 C8.66 6 9.32 6 10 6 C10 6.66 10 7.32 10 8 C9.01 8 8.02 8 7 8 C7 9.32 7 10.64 7 12 C7.66 12 8.32 12 9 12 C9 12.66 9 13.32 9 14 C8.01 14 7.02 14 6 14 C6 15.98 6 17.96 6 20 C5.34 20 4.68 20 4 20 C4 18.02 4 16.04 4 14 C3.01 14 2.02 14 1 14 C0.67 15.98 0.34 17.96 0 20 C-0.66 20 -1.32 20 -2 20 C-2 18.02 -2 16.04 -2 14 C-2.66 14 -3.32 14 -4 14 C-4 13.34 -4 12.68 -4 12 C-3.01 12 -2.02 12 -1 12 C-1 10.68 -1 9.36 -1 8 C-1.66 8 -2.32 8 -3 8 C-3 7.01 -3 6.02 -3 5 C-2.01 5 -1.02 5 0 5 C0 3.35 0 1.7 0 0 Z " fill="#4BAB97" transform="translate(1323,16)"/>
<path d="M0 0 C0.66 0 1.32 0 2 0 C2 1.65 2 3.3 2 5 C2.99 5 3.98 5 5 5 C5.33 3.35 5.66 1.7 6 0 C6.66 0 7.32 0 8 0 C8 1.98 8 3.96 8 6 C8.66 6 9.32 6 10 6 C10 6.66 10 7.32 10 8 C9.01 8 8.02 8 7 8 C7 9.32 7 10.64 7 12 C7.66 12 8.32 12 9 12 C9 12.66 9 13.32 9 14 C8.01 14 7.02 14 6 14 C6 15.98 6 17.96 6 20 C5.34 20 4.68 20 4 20 C4 18.02 4 16.04 4 14 C3.01 14 2.02 14 1 14 C0.67 15.98 0.34 17.96 0 20 C-0.66 20 -1.32 20 -2 20 C-2 18.02 -2 16.04 -2 14 C-2.66 14 -3.32 14 -4 14 C-4 13.34 -4 12.68 -4 12 C-3.01 12 -2.02 12 -1 12 C-1 10.68 -1 9.36 -1 8 C-1.66 8 -2.32 8 -3 8 C-3 7.01 -3 6.02 -3 5 C-2.01 5 -1.02 5 0 5 C0 3.35 0 1.7 0 0 Z " fill="#4BAB97" transform="translate(1035,16)"/>
<path d="M0 0 C0.66 0 1.32 0 2 0 C2 1.65 2 3.3 2 5 C2.99 5 3.98 5 5 5 C5.33 3.35 5.66 1.7 6 0 C6.66 0 7.32 0 8 0 C8 1.98 8 3.96 8 6 C8.66 6 9.32 6 10 6 C10 6.66 10 7.32 10 8 C9.01 8 8.02 8 7 8 C7 9.32 7 10.64 7 12 C7.66 12 8.32 12 9 12 C9 12.66 9 13.32 9 14 C8.01 14 7.02 14 6 14 C6 15.98 6 17.96 6 20 C5.34 20 4.68 20 4 20 C4 18.02 4 16.04 4 14 C3.01 14 2.02 14 1 14 C0.67 15.98 0.34 17.96 0 20 C-0.66 20 -1.32 20 -2 20 C-2 18.02 -2 16.04 -2 14 C-2.66 14 -3.32 14 -4 14 C-4 13.34 -4 12.68 -4 12 C-3.01 12 -2.02 12 -1 12 C-1 10.68 -1 9.36 -1 8 C-1.66 8 -2.32 8 -3 8 C-3 7.01 -3 6.02 -3 5 C-2.01 5 -1.02 5 0 5 C0 3.35 0 1.7 0 0 Z " fill="#4BAB97" transform="translate(603,16)"/>
<path d="M0 0 C0.66 0 1.32 0 2 0 C2 1.65 2 3.3 2 5 C2.99 5 3.98 5 5 5 C5.33 3.35 5.66 1.7 6 0 C6.66 0 7.32 0 8 0 C8 1.98 8 3.96 8 6 C8.66 6 9.32 6 10 6 C10 6.66 10 7.32 10 8 C9.01 8 8.02 8 7 8 C7 9.32 7 10.64 7 12 C7.66 12 8.32 12 9 12 C9 12.66 9 13.32 9 14 C8.01 14 7.02 14 6 14 C6 15.98 6 17.96 6 20 C5.34 20 4.68 20 4 20 C4 18.02 4 16.04 4 14 C3.01 14 2.02 14 1 14 C0.67 15.98 0.34 17.96 0 20 C-0.66 20 -1.32 20 -2 20 C-2 18.02 -2 16.04 -2 14 C-2.66 14 -3.32 14 -4 14 C-4 13.34 -4 12.68 -4 12 C-3.01 12 -2.02 12 -1 12 C-1 10.68 -1 9.36 -1 8 C-1.66 8 -2.32 8 -3 8 C-3 7.01 -3 6.02 -3 5 C-2.01 5 -1.02 5 0 5 C0 3.35 0 1.7 0 0 Z " fill="#4BAB97" transform="translate(315,16)"/>
<path d="M0 0 C4.29 0 8.58 0 13 0 C13 0.66 13 1.32 13 2 C9.7 2 6.4 2 3 2 C3 3.98 3 5.96 3 8 C5.64 8 8.28 8 11 8 C11 8.99 11 9.98 11 11 C8.36 11 5.72 11 3 11 C3 12.98 3 14.96 3 17 C6.3 17 9.6 17 13 17 C13 17.99 13 18.98 13 20 C8.71 20 4.42 20 0 20 C0 13.4 0 6.8 0 0 Z " fill="#4EB29D" transform="translate(726,16)"/>
<path d="M0 0 C0 1.32 0 2.64 0 4 C-1.39 3.72 -1.39 3.72 -2.81 3.44 C-6.01 2.76 -6.01 2.76 -9 4 C-9.05 5.44 -9.09 6.87 -9.12 8.31 C-9.16 9.51 -9.16 9.51 -9.2 10.74 C-9.16 13.28 -9.16 13.28 -7 16 C-4.79 16.36 -4.79 16.36 -2.38 16.19 C-1.56 16.16 -0.74 16.13 0.1 16.11 C1.04 16.05 1.04 16.05 2 16 C1.67 16.99 1.34 17.98 1 19 C-2.14 20.57 -4.54 20.35 -8 20 C-10.94 18.12 -10.94 18.12 -13 15 C-13.93 10.03 -13.78 6.28 -11.12 1.94 C-7.24 -1.61 -5.07 -0.84 0 0 Z " fill="#4BAB97" transform="translate(162,16)"/>
<path d="M0 0 C0 1.32 0 2.64 0 4 C-1.39 3.72 -1.39 3.72 -2.81 3.44 C-6.01 2.76 -6.01 2.76 -9 4 C-9.05 5.44 -9.09 6.87 -9.12 8.31 C-9.16 9.51 -9.16 9.51 -9.2 10.74 C-9.16 13.28 -9.16 13.28 -7 16 C-4.79 16.36 -4.79 16.36 -2.38 16.19 C-1.56 16.16 -0.74 16.13 0.1 16.11 C1.04 16.05 1.04 16.05 2 16 C1.67 16.99 1.34 17.98 1 19 C-2.14 20.57 -4.54 20.35 -8 20 C-10.94 18.12 -10.94 18.12 -13 15 C-13.93 10.03 -13.78 6.28 -11.12 1.94 C-7.24 -1.61 -5.07 -0.84 0 0 Z " fill="#D2D041" transform="translate(162,92)"/>
<path d="M0 0 C0 1.32 0 2.64 0 4 C-1.39 3.72 -1.39 3.72 -2.81 3.44 C-6.01 2.76 -6.01 2.76 -9 4 C-9.05 5.44 -9.09 6.87 -9.12 8.31 C-9.16 9.51 -9.16 9.51 -9.2 10.74 C-9.16 13.28 -9.16 13.28 -7 16 C-4.79 16.36 -4.79 16.36 -2.38 16.19 C-1.56 16.16 -0.74 16.13 0.1 16.11 C1.04 16.05 1.04 16.05 2 16 C1.67 16.99 1.34 17.98 1 19 C-2.14 20.57 -4.54 20.35 -8 20 C-10.94 18.12 -10.94 18.12 -13 15 C-13.93 10.03 -13.78 6.28 -11.12 1.94 C-7.24 -1.61 -5.07 -0.84 0 0 Z " fill="#4CAC98" transform="translate(306,16)"/>
<path d="M0 0 C6 1 6 1 8 3 C8.55 6.38 8.56 9.62 8 13 C5.17 15.6 3.82 16 0 16 C0 10.72 0 5.44 0 0 Z " fill="#120806" transform="translate(8,132)"/>
<path d="M0 0 C6 1 6 1 8 3 C8.55 6.38 8.56 9.62 8 13 C5.17 15.6 3.82 16 0 16 C0 10.72 0 5.44 0 0 Z " fill="#120806" transform="translate(8,94)"/>
<path d="M0 0 C5 0 5 0 6.79 1.22 C8.31 3.46 8.4 4.81 8.38 7.5 C8.38 8.27 8.39 9.05 8.4 9.84 C8 12 8 12 6.79 13.78 C5 15 5 15 0 15 C0 10.05 0 5.1 0 0 Z " fill="#141406" transform="translate(440,132)"/>
<path d="M0 0 C5 0 5 0 6.79 1.22 C8.31 3.46 8.4 4.81 8.38 7.5 C8.38 8.27 8.39 9.05 8.4 9.84 C8 12 8 12 6.79 13.78 C5 15 5 15 0 15 C0 10.05 0 5.1 0 0 Z " fill="#141406" transform="translate(440,94)"/>
<path d="M0 0 C5 0 5 0 6.79 1.22 C8.31 3.46 8.4 4.81 8.38 7.5 C8.38 8.27 8.39 9.05 8.4 9.84 C8 12 8 12 6.79 13.78 C5 15 5 15 0 15 C0 10.05 0 5.1 0 0 Z " fill="#07100E" transform="translate(584,18)"/>
<path d="M0 0 C5 0 5 0 6.79 1.22 C8.31 3.46 8.4 4.81 8.38 7.5 C8.38 8.27 8.39 9.05 8.4 9.84 C8 12 8 12 6.79 13.78 C5 15 5 15 0 15 C0 10.05 0 5.1 0 0 Z " fill="#07100E" transform="translate(440,18)"/>
<path d="M0 0 C3.96 0 7.92 0 12 0 C12 0.66 12 1.32 12 2 C9.03 2 6.06 2 3 2 C3 3.98 3 5.96 3 8 C5.64 8 8.28 8 11 8 C11 8.99 11 9.98 11 11 C8.36 11 5.72 11 3 11 C3 13.97 3 16.94 3 20 C2.01 20 1.02 20 0 20 C0 13.4 0 6.8 0 0 Z " fill="#4DAF9B" transform="translate(1015,16)"/>
<path d="M0 0 C4.62 0 9.24 0 14 0 C13 5 13 5 11.56 7.19 C9.31 11.24 8.75 15.46 8 20 C7.01 20 6.02 20 5 20 C4.53 13.35 5.69 9.79 9 4 C6.03 3.67 3.06 3.34 0 3 C0 2.01 0 1.02 0 0 Z " fill="#B2533B" transform="translate(23,92)"/>
<path d="M0 0 C3.96 0 7.92 0 12 0 C12 0.66 12 1.32 12 2 C9.03 2 6.06 2 3 2 C3 4.31 3 6.62 3 9 C5.64 9 8.28 9 11 9 C11 9.66 11 10.32 11 11 C8.36 11 5.72 11 3 11 C3 13.97 3 16.94 3 20 C2.01 20 1.02 20 0 20 C0 13.4 0 6.8 0 0 Z " fill="#DEDC45" transform="translate(1015,130)"/>
<path d="M0 0 C3.96 0 7.92 0 12 0 C12 0.66 12 1.32 12 2 C9.03 2 6.06 2 3 2 C3 4.31 3 6.62 3 9 C5.64 9 8.28 9 11 9 C11 9.66 11 10.32 11 11 C8.36 11 5.72 11 3 11 C3 13.97 3 16.94 3 20 C2.01 20 1.02 20 0 20 C0 13.4 0 6.8 0 0 Z " fill="#DEDC45" transform="translate(1015,92)"/>
<path d="M0 0 C3.96 0 7.92 0 12 0 C12 0.66 12 1.32 12 2 C9.03 2 6.06 2 3 2 C3 4.31 3 6.62 3 9 C5.64 9 8.28 9 11 9 C11 9.66 11 10.32 11 11 C8.36 11 5.72 11 3 11 C3 13.97 3 16.94 3 20 C2.01 20 1.02 20 0 20 C0 13.4 0 6.8 0 0 Z " fill="#50B6A1" transform="translate(871,16)"/>
<path d="M0 0 C3.65 1.25 4.78 1.67 7 5 C7.69 8.82 7.87 12.51 5.88 15.92 C4.5 17.56 4.5 17.56 2 20 C1.01 19.67 0.02 19.34 -1 19 C-0.51 18.45 -0.02 17.89 0.48 17.32 C2.27 14.58 2.38 13.11 2.31 9.88 C2.31 9.01 2.3 8.14 2.3 7.24 C2.2 4.8 2.2 4.8 0 3 C0 2.01 0 1.02 0 0 Z " fill="#A74E38" transform="translate(13,130)"/>
<path d="M0 0 C3.65 1.25 4.78 1.67 7 5 C7.69 8.82 7.87 12.51 5.88 15.92 C4.5 17.56 4.5 17.56 2 20 C1.01 19.67 0.02 19.34 -1 19 C-0.51 18.45 -0.02 17.89 0.48 17.32 C2.27 14.58 2.38 13.11 2.31 9.88 C2.31 9.01 2.3 8.14 2.3 7.24 C2.2 4.8 2.2 4.8 0 3 C0 2.01 0 1.02 0 0 Z " fill="#A84E38" transform="translate(13,92)"/>
<path d="M0 0 C0.66 0 1.32 0 2 0 C2 1.65 2 3.3 2 5 C2.99 5 3.98 5 5 5 C5 7.31 5 9.62 5 12 C3.68 12 2.36 12 1 12 C0.34 10.68 -0.32 9.36 -1 8 C-1.66 8 -2.32 8 -3 8 C-3 7.01 -3 6.02 -3 5 C-2.01 5 -1.02 5 0 5 C0 3.35 0 1.7 0 0 Z " fill="#9E9C31" transform="translate(1035,130)"/>
<path d="M0 0 C0.66 0 1.32 0 2 0 C2 1.65 2 3.3 2 5 C2.99 5 3.98 5 5 5 C5 7.31 5 9.62 5 12 C3.68 12 2.36 12 1 12 C0.34 10.68 -0.32 9.36 -1 8 C-1.66 8 -2.32 8 -3 8 C-3 7.01 -3 6.02 -3 5 C-2.01 5 -1.02 5 0 5 C0 3.35 0 1.7 0 0 Z " fill="#9E9C31" transform="translate(1035,92)"/>
<path d="M0 0 C0.66 0 1.32 0 2 0 C2 1.65 2 3.3 2 5 C2.99 5 3.98 5 5 5 C5 7.31 5 9.62 5 12 C3.68 12 2.36 12 1 12 C0.34 10.68 -0.32 9.36 -1 8 C-1.66 8 -2.32 8 -3 8 C-3 7.01 -3 6.02 -3 5 C-2.01 5 -1.02 5 0 5 C0 3.35 0 1.7 0 0 Z " fill="#398172" transform="translate(1611,16)"/>
<path d="M0 0 C0.66 0 1.32 0 2 0 C2 1.65 2 3.3 2 5 C2.99 5 3.98 5 5 5 C5 7.31 5 9.62 5 12 C3.68 12 2.36 12 1 12 C0.34 10.68 -0.32 9.36 -1 8 C-1.66 8 -2.32 8 -3 8 C-3 7.01 -3 6.02 -3 5 C-2.01 5 -1.02 5 0 5 C0 3.35 0 1.7 0 0 Z " fill="#398172" transform="translate(1323,16)"/>
<path d="M0 0 C0.66 0 1.32 0 2 0 C2 1.65 2 3.3 2 5 C2.99 5 3.98 5 5 5 C5 7.31 5 9.62 5 12 C3.68 12 2.36 12 1 12 C0.34 10.68 -0.32 9.36 -1 8 C-1.66 8 -2.32 8 -3 8 C-3 7.01 -3 6.02 -3 5 C-2.01 5 -1.02 5 0 5 C0 3.35 0 1.7 0 0 Z " fill="#398172" transform="translate(1035,16)"/>
<path d="M0 0 C0.66 0 1.32 0 2 0 C2 1.65 2 3.3 2 5 C2.99 5 3.98 5 5 5 C5 7.31 5 9.62 5 12 C3.68 12 2.36 12 1 12 C0.34 10.68 -0.32 9.36 -1 8 C-1.66 8 -2.32 8 -3 8 C-3 7.01 -3 6.02 -3 5 C-2.01 5 -1.02 5 0 5 C0 3.35 0 1.7 0 0 Z " fill="#398172" transform="translate(603,16)"/>
<path d="M0 0 C0.66 0 1.32 0 2 0 C2 1.65 2 3.3 2 5 C2.99 5 3.98 5 5 5 C5 7.31 5 9.62 5 12 C3.68 12 2.36 12 1 12 C0.34 10.68 -0.32 9.36 -1 8 C-1.66 8 -2.32 8 -3 8 C-3 7.01 -3 6.02 -3 5 C-2.01 5 -1.02 5 0 5 C0 3.35 0 1.7 0 0 Z " fill="#398172" transform="translate(315,16)"/>
<path d="M0 0 C1.98 0 3.96 0 6 0 C6.38 1.66 6.71 3.32 7 5 C6 6 6 6 2.94 6.06 C1.48 6.03 1.48 6.03 0 6 C0 4.02 0 2.04 0 0 Z " fill="#010202" transform="translate(1737,27)"/>
<path d="M0 0 C0.66 0 1.32 0 2 0 C2 1.98 2 3.96 2 6 C2.66 6 3.32 6 4 6 C4 6.66 4 7.32 4 8 C3.01 8 2.02 8 1 8 C0.67 9.32 0.34 10.64 0 12 C-1.12 9.75 -1.13 8.49 -1.12 6 C-1.13 4.95 -1.13 4.95 -1.13 3.88 C-1 2 -1 2 0 0 Z " fill="#CDCC3F" transform="translate(1041,130)"/>
<path d="M0 0 C0.66 0 1.32 0 2 0 C2 1.98 2 3.96 2 6 C2.66 6 3.32 6 4 6 C4 6.66 4 7.32 4 8 C3.01 8 2.02 8 1 8 C0.67 9.32 0.34 10.64 0 12 C-1.12 9.75 -1.13 8.49 -1.12 6 C-1.13 4.95 -1.13 4.95 -1.13 3.88 C-1 2 -1 2 0 0 Z " fill="#CDCB3F" transform="translate(1041,92)"/>
<path d="M0 0 C0.66 0 1.32 0 2 0 C2 1.98 2 3.96 2 6 C2.66 6 3.32 6 4 6 C4 6.66 4 7.32 4 8 C3.01 8 2.02 8 1 8 C0.67 9.32 0.34 10.64 0 12 C-1.12 9.75 -1.13 8.49 -1.12 6 C-1.13 4.95 -1.13 4.95 -1.13 3.88 C-1 2 -1 2 0 0 Z " fill="#4AA895" transform="translate(1617,16)"/>
<path d="M0 0 C0.66 0 1.32 0 2 0 C2 1.98 2 3.96 2 6 C2.66 6 3.32 6 4 6 C4 6.66 4 7.32 4 8 C3.01 8 2.02 8 1 8 C0.67 9.32 0.34 10.64 0 12 C-1.12 9.75 -1.13 8.49 -1.12 6 C-1.13 4.95 -1.13 4.95 -1.13 3.88 C-1 2 -1 2 0 0 Z " fill="#4AA895" transform="translate(1329,16)"/>
<path d="M0 0 C0.66 0 1.32 0 2 0 C2 1.98 2 3.96 2 6 C2.66 6 3.32 6 4 6 C4 6.66 4 7.32 4 8 C3.01 8 2.02 8 1 8 C0.67 9.32 0.34 10.64 0 12 C-1.12 9.75 -1.13 8.49 -1.12 6 C-1.13 4.95 -1.13 4.95 -1.13 3.88 C-1 2 -1 2 0 0 Z " fill="#4AA895" transform="translate(1041,16)"/>
<path d="M0 0 C0.66 0 1.32 0 2 0 C2 1.98 2 3.96 2 6 C2.66 6 3.32 6 4 6 C4 6.66 4 7.32 4 8 C3.01 8 2.02 8 1 8 C1 8.66 1 9.32 1 10 C0.34 10 -0.32 10 -1 10 C-1.12 2.25 -1.12 2.25 0 0 Z " fill="#4AA894" transform="translate(609,16)"/>
<path d="M0 0 C0.66 0 1.32 0 2 0 C2 1.98 2 3.96 2 6 C2.66 6 3.32 6 4 6 C4 6.66 4 7.32 4 8 C3.01 8 2.02 8 1 8 C1 8.66 1 9.32 1 10 C0.34 10 -0.32 10 -1 10 C-1.12 2.25 -1.12 2.25 0 0 Z " fill="#4AA894" transform="translate(321,16)"/>
<path d="M0 0 C1.98 0 3.96 0 6 0 C5.67 1.65 5.34 3.3 5 5 C3.35 5 1.7 5 0 5 C0 3.35 0 1.7 0 0 Z " fill="#020605" transform="translate(1737,19)"/>
<path d="M0 0 C0.33 0.66 0.66 1.32 1 2 C1.99 2 2.98 2 4 2 C4 2.66 4 3.32 4 4 C3.01 4 2.02 4 1 4 C1 5.98 1 7.96 1 10 C0.34 10 -0.32 10 -1 10 C-1 7.69 -1 5.38 -1 3 C-1.66 2.67 -2.32 2.34 -3 2 C-2.01 2 -1.02 2 0 2 C0 1.34 0 0.68 0 0 Z " fill="#E0DE45" transform="translate(1040,140)"/>
<path d="M0 0 C0.66 0 1.32 0 2 0 C2 0.66 2 1.32 2 2 C2.66 2 3.32 2 4 2 C4 2.66 4 3.32 4 4 C3.01 4 2.02 4 1 4 C1 5.98 1 7.96 1 10 C0.34 10 -0.32 10 -1 10 C-1.12 2.25 -1.12 2.25 0 0 Z " fill="#50B6A1" transform="translate(608,26)"/>
<path d="M0 0 C0.66 0 1.32 0 2 0 C2 0.66 2 1.32 2 2 C2.66 2 3.32 2 4 2 C4 2.66 4 3.32 4 4 C3.01 4 2.02 4 1 4 C1 5.98 1 7.96 1 10 C0.34 10 -0.32 10 -1 10 C-1.12 2.25 -1.12 2.25 0 0 Z " fill="#50B6A1" transform="translate(320,26)"/>
<path d="M0 0 C0.33 0.66 0.66 1.32 1 2 C1.99 2 2.98 2 4 2 C4 2.66 4 3.32 4 4 C3.01 4 2.02 4 1 4 C1 5.98 1 7.96 1 10 C0.34 10 -0.32 10 -1 10 C-1.33 7.36 -1.66 4.72 -2 2 C-1.34 2 -0.68 2 0 2 C0 1.34 0 0.68 0 0 Z " fill="#E0DE45" transform="translate(1040,102)"/>
<path d="M0 0 C0.33 0.66 0.66 1.32 1 2 C1.99 2 2.98 2 4 2 C4 2.66 4 3.32 4 4 C3.01 4 2.02 4 1 4 C1 5.98 1 7.96 1 10 C0.34 10 -0.32 10 -1 10 C-1.12 2.25 -1.12 2.25 0 0 Z " fill="#51B7A1" transform="translate(1616,26)"/>
<path d="M0 0 C0.33 0.66 0.66 1.32 1 2 C1.99 2 2.98 2 4 2 C4 2.66 4 3.32 4 4 C3.01 4 2.02 4 1 4 C1 5.98 1 7.96 1 10 C0.34 10 -0.32 10 -1 10 C-1.12 2.25 -1.12 2.25 0 0 Z " fill="#51B7A1" transform="translate(1328,26)"/>
<path d="M0 0 C0.33 0.66 0.66 1.32 1 2 C1.99 2 2.98 2 4 2 C4 2.66 4 3.32 4 4 C3.01 4 2.02 4 1 4 C1 5.98 1 7.96 1 10 C0.34 10 -0.32 10 -1 10 C-1.12 2.25 -1.12 2.25 0 0 Z " fill="#51B7A1" transform="translate(1040,26)"/>
<path d="M0 0 C1.32 0 2.64 0 4 0 C4.33 1.32 4.66 2.64 5 4 C3.68 4 2.36 4 1 4 C1 4.66 1 5.32 1 6 C0.34 6 -0.32 6 -1 6 C-0.67 4.02 -0.34 2.04 0 0 Z " fill="#4FB49F" transform="translate(1594,16)"/>
<path d="M0 0 C1.32 0 2.64 0 4 0 C4.33 1.32 4.66 2.64 5 4 C3.02 4.33 1.04 4.66 -1 5 C-0.67 3.35 -0.34 1.7 0 0 Z " fill="#DAD843" transform="translate(1450,130)"/>
<path d="M0 0 C1.32 0 2.64 0 4 0 C4.33 1.32 4.66 2.64 5 4 C3.02 4.33 1.04 4.66 -1 5 C-0.67 3.35 -0.34 1.7 0 0 Z " fill="#DAD843" transform="translate(1450,92)"/>
<path d="M0 0 C2.31 0 4.62 0 7 0 C6.01 0.5 6.01 0.5 5 1 C5 2.98 5 4.96 5 7 C4.67 5.68 4.34 4.36 4 3 C2.68 3 1.36 3 0 3 C0 2.01 0 1.02 0 0 Z " fill="#409180" transform="translate(1164,25)"/>
<path d="M0 0 C1.32 0 2.64 0 4 0 C4.33 1.32 4.66 2.64 5 4 C3.02 4.33 1.04 4.66 -1 5 C-0.67 3.35 -0.34 1.7 0 0 Z " fill="#4FB29E" transform="translate(1450,16)"/>
<path d="M0 0 C0.66 0 1.32 0 2 0 C2.33 2.31 2.66 4.62 3 7 C1.68 7 0.36 7 -1 7 C-0.67 4.69 -0.34 2.38 0 0 Z " fill="#23230B" transform="translate(1451,134)"/>
<path d="M0 0 C0.66 0 1.32 0 2 0 C2.33 2.31 2.66 4.62 3 7 C1.68 7 0.36 7 -1 7 C-0.67 4.69 -0.34 2.38 0 0 Z " fill="#23230B" transform="translate(1451,96)"/>
<path d="M0 0 C0.66 0 1.32 0 2 0 C2.33 2.31 2.66 4.62 3 7 C1.68 7 0.36 7 -1 7 C-0.67 4.69 -0.34 2.38 0 0 Z " fill="#0C1D19" transform="translate(1595,20)"/>
<path d="M0 0 C0.66 0 1.32 0 2 0 C2.33 2.31 2.66 4.62 3 7 C1.68 7 0.36 7 -1 7 C-0.67 4.69 -0.34 2.38 0 0 Z " fill="#0C1D19" transform="translate(1451,20)"/>
</svg>
