<?xml version="1.0" standalone="no"?>
<!DOCTYPE svg PUBLIC "-//W3C//DTD SVG 20010904//EN"
 "http://www.w3.org/TR/2001/REC-SVG-20010904/DTD/svg10.dtd">
<svg version="1.0" xmlns="http://www.w3.org/2000/svg"
 width="1772.000000pt" height="546.000000pt" viewBox="0 0 1772.000000 546.000000"
 preserveAspectRatio="xMidYMid meet">
<metadata>
Created by potrace 1.16, written by Peter Selinger 2001-2019
</metadata>
<g transform="translate(0.000000,546.000000) scale(0.100000,-0.100000)"
fill="#000000" stroke="none">
<path d="M0 2730 l0 -2730 8860 0 8860 0 0 2730 0 2730 -8860 0 -8860 0 0
-2730z m1619 2671 c7 -5 10 -14 6 -21 -5 -8 -10 -9 -18 -1 -18 18 -55 12 -71
-11 -23 -32 -20 -94 4 -118 23 -23 33 -24 62 -9 27 14 38 1 14 -17 -31 -22
-65 -17 -97 15 -43 43 -38 121 10 158 19 14 70 17 90 4z m1440 0 c7 -5 10 -14
6 -21 -5 -8 -10 -9 -18 -1 -18 18 -55 12 -71 -11 -23 -32 -20 -94 4 -118 23
-23 33 -24 62 -9 27 14 38 1 14 -17 -31 -22 -65 -17 -97 15 -43 43 -38 121 10
158 19 14 70 17 90 4z m129 -49 c10 2 18 15 20 31 2 15 8 27 14 27 6 0 8 -10
5 -22 -4 -12 -1 -28 5 -35 7 -9 7 -13 -1 -13 -6 0 -11 -11 -11 -25 0 -14 5
-25 10 -25 6 0 10 -4 10 -10 0 -5 -7 -10 -15 -10 -9 0 -15 -9 -15 -24 0 -14
-5 -28 -11 -32 -8 -5 -10 3 -7 25 4 27 2 31 -19 31 -19 0 -23 -5 -23 -30 0
-16 -5 -30 -10 -30 -6 0 -8 11 -4 26 4 17 2 29 -6 34 -11 7 -10 12 3 25 22 21
21 31 0 44 -16 9 -16 10 -2 11 10 0 20 13 25 33 l8 32 3 -33 c3 -25 9 -32 21
-30z m1276 48 c42 -16 61 -78 41 -140 -8 -24 -60 -50 -100 -50 l-25 0 0 100 0
100 29 0 c16 0 41 -4 55 -10z m1468 -20 c20 -24 25 -99 8 -130 -10 -20 -59
-40 -96 -40 -24 0 -24 2 -24 101 l0 102 47 -6 c32 -3 53 -12 65 -27z m136 -28
c10 2 18 15 20 31 2 15 8 27 14 27 6 0 8 -10 5 -22 -4 -12 -1 -28 5 -35 7 -9
7 -13 -1 -13 -6 0 -11 -11 -11 -25 0 -14 5 -25 10 -25 6 0 10 -4 10 -10 0 -5
-7 -10 -15 -10 -9 0 -15 -9 -15 -24 0 -14 -5 -28 -11 -32 -8 -5 -10 3 -7 25 4
27 2 31 -19 31 -19 0 -23 -5 -23 -30 0 -16 -5 -30 -10 -30 -6 0 -8 11 -4 26 4
17 2 29 -6 34 -11 7 -10 12 3 25 22 21 21 31 0 44 -16 9 -16 10 -2 11 10 0 20
13 25 33 l8 32 3 -33 c3 -25 9 -32 21 -30z m1322 48 c0 -5 -22 -10 -50 -10
-49 0 -50 -1 -50 -30 0 -28 2 -30 40 -30 51 0 53 -18 3 -22 -36 -3 -38 -5 -41
-40 l-3 -38 50 0 c29 0 51 -5 51 -10 0 -7 -24 -10 -62 -8 l-63 3 -3 98 -3 97
66 0 c37 0 65 -4 65 -10z m1440 1 c0 -6 -21 -11 -47 -13 -46 -3 -48 -4 -48
-33 0 -28 3 -30 43 -33 56 -4 54 -22 -3 -22 l-45 0 0 -45 c0 -25 -4 -45 -10
-45 -6 0 -10 40 -10 100 l0 100 60 0 c33 0 60 -4 60 -9z m1440 0 c0 -6 -21
-11 -47 -13 -46 -3 -48 -4 -48 -33 0 -28 3 -30 43 -33 56 -4 54 -22 -3 -22
l-45 0 0 -45 c0 -25 -4 -45 -10 -45 -6 0 -10 40 -10 100 l0 100 60 0 c33 0 60
-4 60 -9z m118 -49 c10 2 18 15 20 31 2 15 8 27 14 27 6 0 8 -10 5 -22 -4 -12
-1 -28 5 -35 7 -9 7 -13 -1 -13 -6 0 -11 -11 -11 -25 0 -14 5 -25 10 -25 6 0
10 -4 10 -10 0 -5 -7 -10 -15 -10 -9 0 -15 -9 -15 -24 0 -14 -5 -28 -11 -32
-8 -5 -10 3 -7 25 4 27 2 31 -19 31 -19 0 -23 -5 -23 -30 0 -16 -5 -30 -10
-30 -6 0 -8 11 -4 26 4 17 2 29 -6 34 -11 7 -10 12 3 25 22 21 21 31 0 44 -16
9 -16 10 -2 11 10 0 20 13 25 33 l8 32 3 -33 c3 -25 9 -32 21 -30z m1310 33
c3 -16 1 -18 -9 -7 -21 20 -56 14 -78 -14 -28 -36 -27 -79 4 -109 25 -26 41
-30 63 -16 16 10 12 56 -5 56 -6 0 -15 3 -19 8 -4 4 7 7 24 7 31 0 32 -2 32
-40 0 -29 -5 -42 -19 -50 -33 -17 -71 -11 -96 15 -36 35 -36 115 0 151 32 32
98 31 103 -1z m1440 0 c3 -16 1 -18 -9 -7 -50 47 -124 -43 -89 -108 25 -47 90
-49 90 -4 0 16 -8 28 -22 34 -21 8 -20 9 10 9 31 1 32 0 32 -39 0 -43 -18 -60
-65 -60 -44 0 -75 41 -75 98 0 71 28 104 84 100 32 -2 42 -7 44 -23z m130 -33
c10 2 18 15 20 31 2 15 8 27 14 27 6 0 8 -10 5 -22 -4 -12 -1 -28 5 -35 7 -9
7 -13 -1 -13 -6 0 -11 -11 -11 -25 0 -14 5 -25 10 -25 6 0 10 -4 10 -10 0 -5
-7 -10 -15 -10 -9 0 -15 -9 -15 -24 0 -14 -5 -28 -11 -32 -8 -5 -10 3 -7 25 4
27 2 31 -19 31 -19 0 -23 -5 -23 -30 0 -16 -5 -30 -10 -30 -6 0 -8 11 -4 26 4
17 2 29 -6 34 -11 7 -10 12 3 25 22 21 21 31 0 44 -16 9 -16 10 -2 11 10 0 20
13 25 33 l8 32 3 -33 c3 -25 9 -32 21 -30z m1296 -29 c16 -49 31 -94 33 -100
3 -7 -2 -13 -10 -13 -9 0 -18 13 -22 30 -6 27 -10 30 -45 30 -35 0 -39 -3 -45
-30 -4 -17 -13 -30 -22 -30 -8 0 -13 6 -10 13 2 6 17 51 33 100 20 61 33 87
44 87 11 0 24 -26 44 -87z m1440 0 c16 -49 31 -94 33 -100 3 -7 -2 -13 -10
-13 -9 0 -18 13 -22 30 -6 27 -10 30 -45 30 -35 0 -39 -3 -45 -30 -4 -17 -13
-30 -22 -30 -8 0 -13 6 -10 13 2 6 17 51 33 100 20 61 33 87 44 87 11 0 24
-26 44 -87z m144 29 c10 2 18 15 20 31 2 15 8 27 14 27 6 0 8 -10 5 -22 -4
-12 -1 -28 5 -35 7 -9 7 -13 -1 -13 -6 0 -11 -11 -11 -25 0 -14 5 -25 10 -25
6 0 10 -4 10 -10 0 -5 -7 -10 -15 -10 -9 0 -15 -9 -15 -24 0 -14 -5 -28 -11
-32 -8 -5 -10 3 -7 25 4 27 2 31 -19 31 -19 0 -23 -5 -23 -30 0 -16 -5 -30
-10 -30 -6 0 -8 11 -4 26 4 17 2 29 -6 34 -11 7 -10 12 3 25 22 21 21 31 0 44
-16 9 -16 10 -2 11 10 0 20 13 25 33 l8 32 3 -33 c3 -25 9 -32 21 -30z m1293
48 c22 -12 25 -50 7 -69 -11 -10 -10 -14 5 -22 21 -12 23 -62 3 -78 -8 -6 -37
-14 -65 -18 l-51 -6 0 102 0 101 41 0 c22 0 49 -5 60 -10z m-12959 -770 c32
-24 41 -69 25 -117 -13 -42 -45 -63 -94 -63 l-33 0 0 100 0 100 39 0 c23 0 48
-8 63 -20z m5788 10 c0 -5 -20 -10 -45 -10 -45 0 -45 0 -45 -35 0 -34 1 -35
40 -35 22 0 40 -4 40 -10 0 -5 -18 -10 -39 -10 -40 0 -40 0 -43 -42 -2 -23 -9
-43 -15 -46 -10 -3 -13 21 -13 97 l0 101 60 0 c33 0 60 -4 60 -10z m118 -48
c10 2 18 15 20 31 2 15 8 27 14 27 6 0 8 -11 6 -25 -4 -17 0 -29 11 -35 14 -8
14 -9 -1 -15 -19 -7 -25 -45 -8 -45 6 0 10 -4 10 -10 0 -5 -7 -10 -15 -10 -10
0 -15 -10 -15 -30 0 -16 -4 -30 -10 -30 -5 0 -10 14 -10 30 0 20 -5 30 -15 30
-9 0 -18 -12 -21 -30 -4 -16 -11 -30 -16 -30 -6 0 -7 11 -4 27 5 17 3 29 -6
35 -9 5 -10 10 -2 16 19 13 25 42 9 42 -19 0 -19 16 0 24 8 3 15 14 15 24 0
33 15 35 18 2 3 -23 8 -30 20 -28z m7053 48 c21 -12 27 -64 8 -76 -8 -5 -6
-10 5 -16 9 -5 16 -22 16 -38 0 -38 -32 -60 -87 -60 l-43 0 0 100 0 100 41 0
c22 0 49 -5 60 -10z m-12959 -390 c32 -24 41 -69 25 -117 -13 -42 -45 -63 -94
-63 l-33 0 0 100 0 100 39 0 c23 0 48 -8 63 -20z m5788 10 c0 -5 -20 -10 -45
-10 -45 0 -45 0 -45 -35 0 -34 1 -35 40 -35 22 0 40 -4 40 -10 0 -5 -18 -10
-39 -10 -40 0 -40 0 -43 -42 -2 -23 -9 -43 -15 -46 -10 -3 -13 21 -13 97 l0
101 60 0 c33 0 60 -4 60 -10z m118 -48 c10 2 18 15 20 31 2 15 8 27 14 27 6 0
8 -11 6 -25 -4 -17 0 -29 11 -35 14 -8 14 -9 -1 -15 -19 -7 -25 -45 -8 -45 6
0 10 -4 10 -10 0 -5 -7 -10 -15 -10 -10 0 -15 -10 -15 -30 0 -16 -4 -30 -10
-30 -5 0 -10 14 -10 30 0 20 -5 30 -15 30 -9 0 -18 -12 -21 -30 -4 -16 -11
-30 -16 -30 -6 0 -7 11 -4 27 5 17 3 29 -6 35 -9 5 -10 10 -2 16 19 13 25 42
9 42 -19 0 -19 16 0 24 8 3 15 14 15 24 0 33 15 35 18 2 3 -23 8 -30 20 -28z
m4176 -29 c16 -49 31 -94 33 -100 3 -7 -2 -13 -10 -13 -9 0 -18 13 -22 30 -6
27 -10 30 -45 30 -35 0 -39 -3 -45 -30 -4 -17 -13 -30 -22 -30 -8 0 -13 6 -10
13 2 6 17 51 33 100 20 61 33 87 44 87 11 0 24 -26 44 -87z m2877 77 c21 -12
27 -64 8 -76 -8 -5 -6 -10 5 -16 9 -5 16 -22 16 -38 0 -38 -32 -60 -87 -60
l-43 0 0 100 0 100 41 0 c22 0 49 -5 60 -10z m-12959 -390 c32 -24 41 -69 25
-117 -13 -42 -45 -63 -94 -63 l-33 0 0 100 0 100 39 0 c23 0 48 -8 63 -20z
m7217 7 c16 -20 4 -26 -29 -14 -24 9 -32 8 -49 -7 -40 -36 -34 -110 11 -136
22 -12 29 -12 42 -1 23 19 21 51 -4 51 -11 0 -20 7 -20 15 0 10 10 15 30 15
29 0 30 -2 30 -43 0 -52 -13 -67 -57 -67 -52 0 -83 37 -83 98 0 67 27 102 80
102 20 0 43 -6 49 -13z m5742 3 c21 -12 27 -64 8 -76 -8 -5 -6 -10 5 -16 9 -5
16 -22 16 -38 0 -38 -32 -60 -87 -60 l-43 0 0 100 0 100 41 0 c22 0 49 -5 60
-10z m-12959 -390 c30 -23 40 -65 27 -113 -12 -45 -26 -56 -83 -63 l-46 -7 0
102 0 101 39 0 c23 0 48 -8 63 -20z m5788 10 c0 -5 -20 -10 -45 -10 -45 0 -45
0 -45 -35 0 -34 1 -35 40 -35 22 0 40 -4 40 -10 0 -5 -18 -10 -39 -10 -40 0
-40 0 -43 -42 -2 -23 -9 -43 -15 -46 -10 -3 -13 21 -13 97 l0 101 60 0 c33 0
60 -4 60 -10z m118 -48 c10 2 18 15 20 31 2 15 8 27 14 27 6 0 8 -11 6 -25 -4
-17 0 -29 11 -35 14 -8 14 -9 -1 -15 -19 -7 -25 -45 -8 -45 6 0 10 -4 10 -10
0 -5 -7 -10 -15 -10 -10 0 -15 -10 -15 -30 0 -16 -4 -30 -10 -30 -5 0 -10 14
-10 30 0 20 -5 30 -15 30 -9 0 -18 -12 -21 -30 -4 -16 -11 -30 -16 -30 -6 0
-7 11 -4 27 5 17 3 29 -6 35 -9 5 -10 10 -2 16 19 13 25 42 9 42 -19 0 -19 16
0 24 8 3 15 14 15 24 0 33 15 35 18 2 3 -23 8 -30 20 -28z m1311 45 c16 -20 4
-26 -29 -14 -24 9 -32 8 -49 -7 -40 -36 -34 -110 11 -136 22 -12 29 -12 42 -1
23 19 21 51 -4 51 -11 0 -20 7 -20 15 0 10 10 15 30 15 29 0 30 -2 30 -43 0
-52 -13 -67 -57 -67 -52 0 -83 37 -83 98 0 67 27 102 80 102 20 0 43 -6 49
-13z m5742 3 c21 -12 27 -64 8 -76 -8 -5 -6 -10 5 -16 9 -5 16 -22 16 -38 0
-38 -32 -60 -87 -60 l-43 0 0 100 0 100 41 0 c22 0 49 -5 60 -10z m-10051
-380 c0 -5 -22 -10 -50 -10 -49 0 -50 -1 -50 -30 0 -28 2 -30 41 -30 52 0 48
-24 -4 -28 -33 -3 -37 -6 -37 -32 0 -27 3 -29 47 -32 26 -2 48 -9 51 -15 3
-10 -14 -13 -62 -13 l-66 0 0 100 0 100 65 0 c37 0 65 -4 65 -10z m5749 -3
c16 -20 4 -26 -29 -14 -24 9 -32 8 -49 -7 -40 -36 -34 -110 11 -136 22 -12 29
-12 42 -1 23 19 21 51 -4 51 -11 0 -20 7 -20 15 0 10 10 15 30 15 29 0 30 -2
30 -43 0 -52 -13 -67 -57 -67 -52 0 -83 37 -83 98 0 67 27 102 80 102 20 0 43
-6 49 -13z m129 -45 c10 2 18 15 20 31 2 15 8 27 14 27 6 0 8 -11 6 -25 -4
-17 0 -29 11 -35 14 -8 14 -9 -1 -15 -19 -7 -25 -45 -8 -45 6 0 10 -4 10 -10
0 -5 -7 -10 -15 -10 -10 0 -15 -10 -15 -30 0 -16 -4 -30 -10 -30 -5 0 -10 14
-10 30 0 20 -5 30 -15 30 -9 0 -18 -12 -21 -30 -4 -16 -11 -30 -16 -30 -6 0
-7 11 -4 27 5 17 3 29 -6 35 -9 5 -10 10 -2 16 19 13 25 42 9 42 -19 0 -19 16
0 24 8 3 15 14 15 24 0 33 15 35 18 2 3 -23 8 -30 20 -28z m4173 48 c21 -12
27 -64 8 -76 -8 -5 -6 -10 5 -16 9 -5 16 -22 16 -38 0 -38 -32 -60 -87 -60
l-43 0 0 100 0 100 41 0 c22 0 49 -5 60 -10z m-14382 -379 c7 -5 10 -14 6 -21
-5 -8 -10 -9 -18 -1 -33 33 -87 -9 -87 -66 0 -44 6 -56 38 -72 16 -8 27 -9 42
-1 28 15 46 2 23 -16 -19 -14 -61 -18 -88 -8 -22 9 -45 57 -45 94 0 35 23 86
42 93 21 9 72 7 87 -2z m129 -49 c10 2 18 15 20 31 2 15 8 27 14 27 6 0 8 -11
6 -25 -4 -17 0 -29 11 -35 14 -8 14 -9 -1 -15 -19 -7 -25 -45 -8 -45 6 0 10
-4 10 -10 0 -5 -7 -10 -15 -10 -10 0 -15 -10 -15 -30 0 -16 -4 -30 -10 -30 -5
0 -10 14 -10 30 0 20 -5 30 -15 30 -9 0 -18 -12 -21 -30 -4 -16 -11 -30 -16
-30 -6 0 -7 11 -4 27 5 17 3 29 -6 35 -9 5 -10 10 -2 16 19 13 25 42 9 42 -19
0 -19 16 0 24 8 3 15 14 15 24 0 33 15 35 18 2 3 -23 8 -30 20 -28z m4202 48
c0 -5 -22 -10 -50 -10 -49 0 -50 -1 -50 -30 0 -28 2 -30 41 -30 52 0 48 -24
-4 -28 -33 -3 -37 -6 -37 -32 0 -27 3 -29 47 -32 26 -2 48 -9 51 -15 3 -10
-14 -13 -62 -13 l-66 0 0 100 0 100 65 0 c37 0 65 -4 65 -10z m7174 -77 c16
-49 31 -94 33 -100 3 -7 -2 -13 -10 -13 -9 0 -18 13 -22 30 -6 27 -10 30 -45
30 -35 0 -39 -3 -45 -30 -4 -17 -13 -30 -22 -30 -8 0 -13 6 -10 13 2 6 17 51
33 100 20 61 33 87 44 87 11 0 24 -26 44 -87z m-11505 -302 c7 -5 10 -14 6
-21 -5 -8 -10 -9 -18 -1 -33 33 -87 -9 -87 -66 0 -44 6 -56 38 -72 16 -8 27
-9 42 -1 28 15 46 2 23 -16 -19 -14 -61 -18 -88 -8 -22 9 -45 57 -45 94 0 35
23 86 42 93 21 9 72 7 87 -2z m129 -49 c10 2 18 15 20 31 2 15 8 27 14 27 6 0
8 -11 6 -25 -4 -17 0 -29 11 -35 14 -8 14 -9 -1 -15 -19 -7 -25 -45 -8 -45 6
0 10 -4 10 -10 0 -5 -7 -10 -15 -10 -10 0 -15 -10 -15 -30 0 -16 -4 -30 -10
-30 -5 0 -10 14 -10 30 0 20 -5 30 -15 30 -9 0 -18 -12 -21 -30 -4 -16 -11
-30 -16 -30 -6 0 -7 11 -4 27 5 17 3 29 -6 35 -9 5 -10 10 -2 16 19 13 25 42
9 42 -19 0 -19 16 0 24 8 3 15 14 15 24 0 33 15 35 18 2 3 -23 8 -30 20 -28z
m4202 48 c0 -5 -22 -10 -50 -10 -49 0 -50 -1 -50 -30 0 -28 2 -30 41 -30 52 0
48 -24 -4 -28 -33 -3 -37 -6 -37 -32 0 -27 3 -29 47 -32 26 -2 48 -9 51 -15 3
-10 -14 -13 -62 -13 l-66 0 0 100 0 100 65 0 c37 0 65 -4 65 -10z m7174 -77
c16 -49 31 -94 33 -100 3 -7 -2 -13 -10 -13 -9 0 -18 13 -22 30 -6 27 -10 30
-45 30 -35 0 -39 -3 -45 -30 -4 -17 -13 -30 -22 -30 -8 0 -13 6 -10 13 2 6 17
51 33 100 20 61 33 87 44 87 11 0 24 -26 44 -87z m-11505 -302 c7 -5 10 -14 6
-21 -5 -8 -10 -9 -18 -1 -33 33 -87 -9 -87 -66 0 -44 6 -56 38 -72 16 -8 27
-9 42 -1 28 15 46 2 23 -16 -19 -14 -61 -18 -88 -8 -22 9 -45 57 -45 94 0 35
23 86 42 93 21 9 72 7 87 -2z m129 -49 c10 2 18 15 20 31 2 15 8 27 14 27 6 0
8 -11 6 -25 -4 -17 0 -29 11 -35 14 -8 14 -9 -1 -15 -19 -7 -25 -45 -8 -45 6
0 10 -4 10 -10 0 -5 -7 -10 -15 -10 -10 0 -15 -10 -15 -30 0 -16 -4 -30 -10
-30 -5 0 -10 14 -10 30 0 20 -5 30 -15 30 -9 0 -18 -12 -21 -30 -4 -16 -11
-30 -16 -30 -6 0 -7 11 -4 27 5 17 3 29 -6 35 -9 5 -10 10 -2 16 19 13 25 42
9 42 -19 0 -19 16 0 24 8 3 15 14 15 24 0 33 15 35 18 2 3 -23 8 -30 20 -28z
m4202 48 c0 -5 -22 -10 -50 -10 -49 0 -50 -1 -50 -30 0 -28 2 -30 41 -30 52 0
48 -24 -4 -28 -33 -3 -37 -6 -37 -32 0 -27 3 -29 47 -32 26 -2 48 -9 51 -15 3
-10 -14 -13 -62 -13 l-66 0 0 100 0 100 65 0 c37 0 65 -4 65 -10z m5749 -3
c16 -20 4 -26 -29 -14 -24 9 -32 8 -49 -7 -40 -36 -34 -110 11 -136 22 -12 29
-12 42 -1 23 19 21 51 -4 51 -11 0 -20 7 -20 15 0 10 10 15 30 15 29 0 30 -2
30 -43 0 -52 -13 -67 -57 -67 -52 0 -83 37 -83 98 0 67 27 102 80 102 20 0 43
-6 49 -13z m129 -45 c10 2 18 15 20 31 2 15 8 27 14 27 6 0 8 -11 6 -25 -4
-17 0 -29 11 -35 14 -8 14 -9 -1 -15 -19 -7 -25 -45 -8 -45 6 0 10 -4 10 -10
0 -5 -7 -10 -15 -10 -10 0 -15 -10 -15 -30 0 -16 -4 -30 -10 -30 -5 0 -10 14
-10 30 0 20 -5 30 -15 30 -9 0 -18 -12 -21 -30 -4 -16 -11 -30 -16 -30 -6 0
-7 11 -4 27 5 17 3 29 -6 35 -9 5 -10 10 -2 16 19 13 25 42 9 42 -19 0 -19 16
0 24 8 3 15 14 15 24 0 33 15 35 18 2 3 -23 8 -30 20 -28z m-10209 -331 c7 -5
10 -14 6 -21 -5 -8 -10 -9 -18 -1 -33 33 -87 -9 -87 -66 0 -44 6 -56 38 -72
16 -8 27 -9 42 -1 28 15 46 2 23 -16 -19 -14 -61 -18 -88 -8 -22 9 -45 57 -45
94 0 35 23 86 42 93 21 9 72 7 87 -2z m129 -49 c10 2 18 15 20 31 2 15 8 27
14 27 6 0 8 -11 6 -25 -4 -17 0 -29 11 -35 14 -8 14 -9 -1 -15 -19 -7 -25 -45
-8 -45 6 0 10 -4 10 -10 0 -5 -7 -10 -15 -10 -10 0 -15 -10 -15 -30 0 -16 -4
-30 -10 -30 -5 0 -10 14 -10 30 0 20 -5 30 -15 30 -9 0 -18 -12 -21 -30 -4
-16 -11 -30 -16 -30 -6 0 -7 11 -4 27 5 17 3 29 -6 35 -9 5 -10 10 -2 16 19
13 25 42 9 42 -19 0 -19 16 0 24 8 3 15 14 15 24 0 33 15 35 18 2 3 -23 8 -30
20 -28z m7082 48 c0 -5 -20 -10 -45 -10 -45 0 -45 0 -45 -35 0 -34 1 -35 40
-35 22 0 40 -4 40 -10 0 -5 -18 -10 -40 -10 l-40 0 0 -45 c0 -33 -4 -45 -15
-45 -12 0 -15 18 -15 100 l0 100 60 0 c33 0 60 -4 60 -10z m118 -48 c10 2 18
15 20 31 2 15 8 27 14 27 6 0 8 -11 6 -25 -4 -17 0 -29 11 -35 14 -8 14 -9 -1
-15 -19 -7 -25 -45 -8 -45 6 0 10 -4 10 -10 0 -5 -7 -10 -15 -10 -10 0 -15
-10 -15 -30 0 -16 -4 -30 -10 -30 -5 0 -10 14 -10 30 0 20 -5 30 -15 30 -9 0
-18 -12 -21 -30 -4 -16 -11 -30 -16 -30 -6 0 -7 11 -4 27 5 17 3 29 -6 35 -9
5 -10 10 -2 16 19 13 25 42 9 42 -19 0 -19 16 0 24 8 3 15 14 15 24 0 33 15
35 18 2 3 -23 8 -30 20 -28z m4176 -29 c16 -49 31 -94 33 -100 3 -7 -2 -13
-10 -13 -9 0 -18 13 -22 30 -6 27 -10 30 -45 30 -35 0 -39 -3 -45 -30 -4 -17
-13 -30 -22 -30 -8 0 -13 6 -10 13 2 6 17 51 33 100 20 61 33 87 44 87 11 0
24 -26 44 -87z m-10082 -313 c30 -23 40 -65 27 -113 -12 -45 -26 -56 -83 -63
l-46 -7 0 102 0 101 39 0 c23 0 48 -8 63 -20z m5788 10 c0 -5 -20 -10 -45 -10
-45 0 -45 0 -45 -35 0 -34 1 -35 40 -35 22 0 40 -4 40 -10 0 -5 -18 -10 -39
-10 -40 0 -40 0 -43 -42 -2 -23 -9 -43 -15 -46 -10 -3 -13 21 -13 97 l0 101
60 0 c33 0 60 -4 60 -10z m118 -48 c10 2 18 15 20 31 2 15 8 27 14 27 6 0 8
-11 6 -25 -4 -17 0 -29 11 -35 14 -8 14 -9 -1 -15 -19 -7 -25 -45 -8 -45 6 0
10 -4 10 -10 0 -5 -7 -10 -15 -10 -10 0 -15 -10 -15 -30 0 -16 -4 -30 -10 -30
-5 0 -10 14 -10 30 0 20 -5 30 -15 30 -9 0 -18 -12 -21 -30 -4 -16 -11 -30
-16 -30 -6 0 -7 11 -4 27 5 17 3 29 -6 35 -9 5 -10 10 -2 16 19 13 25 42 9 42
-19 0 -19 16 0 24 8 3 15 14 15 24 0 33 15 35 18 2 3 -23 8 -30 20 -28z m4176
-29 c16 -49 31 -94 33 -100 3 -7 -2 -13 -10 -13 -9 0 -18 13 -22 30 -6 27 -10
30 -45 30 -35 0 -39 -3 -45 -30 -4 -17 -13 -30 -22 -30 -8 0 -13 6 -10 13 2 6
17 51 33 100 20 61 33 87 44 87 11 0 24 -26 44 -87z m-10082 -313 c32 -24 41
-69 25 -117 -13 -42 -45 -63 -94 -63 l-33 0 0 100 0 100 39 0 c23 0 48 -8 63
-20z m7217 7 c16 -20 4 -26 -29 -14 -24 9 -32 8 -49 -7 -40 -36 -34 -110 11
-136 22 -12 29 -12 42 -1 23 19 21 51 -4 51 -11 0 -20 7 -20 15 0 10 10 15 30
15 29 0 30 -2 30 -43 0 -52 -13 -67 -57 -67 -52 0 -83 37 -83 98 0 67 27 102
80 102 20 0 43 -6 49 -13z m5742 3 c21 -12 27 -64 8 -76 -8 -5 -6 -10 5 -16 9
-5 16 -22 16 -38 0 -38 -32 -60 -87 -60 l-43 0 0 100 0 100 41 0 c22 0 49 -5
60 -10z m-14382 -379 c7 -5 10 -14 6 -21 -5 -8 -10 -9 -18 -1 -33 33 -87 -9
-87 -66 0 -44 6 -56 38 -72 16 -8 27 -9 42 -1 28 15 46 2 23 -16 -19 -14 -61
-18 -88 -8 -22 9 -45 57 -45 94 0 35 23 86 42 93 21 9 72 7 87 -2z m129 -49
c10 2 18 15 20 31 2 15 8 27 14 27 6 0 8 -11 6 -25 -4 -17 0 -29 11 -35 14 -8
14 -9 -1 -15 -19 -7 -25 -45 -8 -45 6 0 10 -4 10 -10 0 -5 -7 -10 -15 -10 -10
0 -15 -10 -15 -30 0 -16 -4 -30 -10 -30 -5 0 -10 14 -10 30 0 20 -5 30 -15 30
-9 0 -18 -12 -21 -30 -4 -16 -11 -30 -16 -30 -6 0 -7 11 -4 27 5 17 3 29 -6
35 -9 5 -10 10 -2 16 19 13 25 42 9 42 -19 0 -19 16 0 24 8 3 15 14 15 24 0
33 15 35 18 2 3 -23 8 -30 20 -28z m4202 48 c0 -5 -22 -10 -50 -10 -49 0 -50
-1 -50 -30 0 -28 2 -30 41 -30 52 0 48 -24 -4 -28 -33 -3 -37 -6 -37 -32 0
-27 3 -29 47 -32 26 -2 48 -9 51 -15 3 -10 -14 -13 -62 -13 l-66 0 0 100 0
100 65 0 c37 0 65 -4 65 -10z m7174 -77 c16 -49 31 -94 33 -100 3 -7 -2 -13
-10 -13 -9 0 -18 13 -22 30 -6 27 -10 30 -45 30 -35 0 -39 -3 -45 -30 -4 -17
-13 -30 -22 -30 -8 0 -13 6 -10 13 2 6 17 51 33 100 20 61 33 87 44 87 11 0
24 -26 44 -87z"/>
<path d="M3167 5333 c-15 -15 -7 -43 13 -43 15 0 20 7 20 25 0 24 -18 34 -33
18z"/>
<path d="M4402 5313 c3 -77 3 -78 28 -75 83 8 76 152 -7 152 -23 0 -24 -2 -21
-77z"/>
<path d="M5842 5313 c3 -77 3 -78 28 -75 57 6 81 89 37 130 -13 12 -33 22 -46
22 -21 0 -22 -3 -19 -77z"/>
<path d="M6047 5333 c-15 -15 -7 -43 13 -43 15 0 20 7 20 25 0 24 -18 34 -33
18z"/>
<path d="M10367 5333 c-15 -15 -7 -43 13 -43 15 0 20 7 20 25 0 24 -18 34 -33
18z"/>
<path d="M13247 5333 c-15 -15 -7 -43 13 -43 15 0 20 7 20 25 0 24 -18 34 -33
18z"/>
<path d="M14502 5334 c-11 -37 1 -53 32 -41 12 5 12 13 4 41 -6 20 -14 36 -18
36 -4 0 -12 -16 -18 -36z"/>
<path d="M15942 5334 c-11 -37 1 -53 32 -41 12 5 12 13 4 41 -6 20 -14 36 -18
36 -4 0 -12 -16 -18 -36z"/>
<path d="M16127 5333 c-15 -15 -7 -43 13 -43 15 0 20 7 20 25 0 24 -18 34 -33
18z"/>
<path d="M17360 5360 c0 -27 3 -30 34 -30 22 0 36 6 40 16 9 24 -12 44 -45 44
-26 0 -29 -4 -29 -30z"/>
<path d="M17367 5304 c-11 -11 -9 -62 3 -69 6 -4 24 -4 40 0 30 7 49 40 33 56
-12 12 -67 22 -76 13z"/>
<path d="M4402 4553 c3 -77 3 -78 28 -75 33 4 60 37 60 74 0 34 -39 78 -70 78
-20 0 -21 -5 -18 -77z"/>
<path d="M10360 4550 c0 -13 7 -20 20 -20 13 0 20 7 20 20 0 13 -7 20 -20 20
-13 0 -20 -7 -20 -20z"/>
<path d="M17370 4600 c0 -25 4 -30 24 -30 13 0 30 7 37 16 11 14 10 18 -6 30
-33 24 -55 18 -55 -16z"/>
<path d="M17370 4510 c0 -41 1 -42 28 -35 15 3 34 13 42 21 12 12 12 16 0 28
-8 8 -27 18 -42 21 -27 7 -28 6 -28 -35z"/>
<path d="M4402 4173 c3 -77 3 -78 28 -75 33 4 60 37 60 74 0 34 -39 78 -70 78
-20 0 -21 -5 -18 -77z"/>
<path d="M10360 4170 c0 -13 7 -20 20 -20 13 0 20 7 20 20 0 13 -7 20 -20 20
-13 0 -20 -7 -20 -20z"/>
<path d="M14506 4208 c-11 -43 -7 -58 15 -58 19 0 21 4 15 31 -3 17 -6 35 -6
40 0 18 -18 8 -24 -13z"/>
<path d="M17370 4220 c0 -25 4 -30 24 -30 13 0 30 7 37 16 11 14 10 18 -6 30
-33 24 -55 18 -55 -16z"/>
<path d="M17370 4130 c0 -41 1 -42 28 -35 15 3 34 13 42 21 12 12 12 16 0 28
-8 8 -27 18 -42 21 -27 7 -28 6 -28 -35z"/>
<path d="M4402 3793 c3 -77 3 -78 28 -75 33 4 60 37 60 74 0 34 -39 78 -70 78
-20 0 -21 -5 -18 -77z"/>
<path d="M17370 3840 c0 -25 4 -30 24 -30 13 0 30 7 37 16 11 14 10 18 -6 30
-33 24 -55 18 -55 -16z"/>
<path d="M17370 3751 c0 -40 1 -41 28 -35 15 4 34 13 42 20 12 12 12 16 0 28
-8 8 -27 18 -42 21 -27 7 -28 6 -28 -34z"/>
<path d="M4402 3413 c3 -77 3 -78 28 -75 33 4 60 37 60 74 0 34 -39 78 -70 78
-20 0 -21 -5 -18 -77z"/>
<path d="M10360 3410 c0 -13 7 -20 20 -20 13 0 20 7 20 20 0 13 -7 20 -20 20
-13 0 -20 -7 -20 -20z"/>
<path d="M17370 3460 c0 -25 4 -30 24 -30 13 0 30 7 37 16 11 14 10 18 -6 30
-33 24 -55 18 -55 -16z"/>
<path d="M17370 3370 c0 -41 1 -42 28 -35 15 3 34 13 42 21 12 12 12 16 0 28
-8 8 -27 18 -42 21 -27 7 -28 6 -28 -35z"/>
<path d="M13240 3030 c0 -13 7 -20 20 -20 13 0 20 7 20 20 0 13 -7 20 -20 20
-13 0 -20 -7 -20 -20z"/>
<path d="M17370 3080 c0 -25 4 -30 24 -30 13 0 30 7 37 16 11 14 10 18 -6 30
-33 24 -55 18 -55 -16z"/>
<path d="M17370 2991 c0 -40 1 -41 28 -35 15 4 34 13 42 20 12 12 12 16 0 28
-8 8 -27 18 -42 21 -27 7 -28 6 -28 -34z"/>
<path d="M3160 2650 c0 -13 7 -20 20 -20 13 0 20 7 20 20 0 13 -7 20 -20 20
-13 0 -20 -7 -20 -20z"/>
<path d="M14506 2688 c-11 -43 -7 -58 15 -58 19 0 21 4 15 31 -3 17 -6 35 -6
40 0 18 -18 8 -24 -13z"/>
<path d="M3160 2270 c0 -13 7 -20 20 -20 13 0 20 7 20 20 0 13 -7 20 -20 20
-13 0 -20 -7 -20 -20z"/>
<path d="M14506 2308 c-11 -43 -7 -58 15 -58 19 0 21 4 15 31 -3 17 -6 35 -6
40 0 18 -18 8 -24 -13z"/>
<path d="M3160 1890 c0 -13 7 -20 20 -20 13 0 20 7 20 20 0 13 -7 20 -20 20
-13 0 -20 -7 -20 -20z"/>
<path d="M13240 1890 c0 -13 7 -20 20 -20 13 0 20 7 20 20 0 13 -7 20 -20 20
-13 0 -20 -7 -20 -20z"/>
<path d="M3160 1510 c0 -13 7 -20 20 -20 13 0 20 7 20 20 0 13 -7 20 -20 20
-13 0 -20 -7 -20 -20z"/>
<path d="M10360 1510 c0 -13 7 -20 20 -20 13 0 20 7 20 20 0 13 -7 20 -20 20
-13 0 -20 -7 -20 -20z"/>
<path d="M14506 1548 c-11 -43 -7 -58 15 -58 19 0 21 4 15 31 -3 17 -6 35 -6
40 0 18 -18 8 -24 -13z"/>
<path d="M4402 1133 c3 -77 3 -78 28 -75 33 4 60 37 60 74 0 34 -39 78 -70 78
-20 0 -21 -5 -18 -77z"/>
<path d="M10360 1130 c0 -13 7 -20 20 -20 13 0 20 7 20 20 0 13 -7 20 -20 20
-13 0 -20 -7 -20 -20z"/>
<path d="M14506 1168 c-11 -43 -7 -58 15 -58 19 0 21 4 15 31 -3 17 -6 35 -6
40 0 18 -18 8 -24 -13z"/>
<path d="M4402 753 c3 -77 3 -78 28 -75 33 4 60 37 60 74 0 34 -39 78 -70 78
-20 0 -21 -5 -18 -77z"/>
<path d="M17370 800 c0 -25 4 -30 24 -30 13 0 30 7 37 16 11 14 10 18 -6 30
-33 24 -55 18 -55 -16z"/>
<path d="M17370 710 c0 -41 1 -42 27 -35 67 16 70 56 6 70 l-33 7 0 -42z"/>
<path d="M3160 370 c0 -13 7 -20 20 -20 13 0 20 7 20 20 0 13 -7 20 -20 20
-13 0 -20 -7 -20 -20z"/>
<path d="M14506 408 c-11 -43 -7 -58 15 -58 19 0 21 4 15 31 -3 17 -6 35 -6
40 0 18 -18 8 -24 -13z"/>
</g>
</svg>
