<?xml version="1.0" encoding="UTF-8"?>
<!-- Generator: visioncortex VTracer 0.6.4 -->
<svg version="1.1" xmlns="http://www.w3.org/2000/svg" width="1772" height="546">
<path d="M0 0 C584.76 0 1169.52 0 1772 0 C1772 180.18 1772 360.36 1772 546 C1187.24 546 602.48 546 0 546 C0 365.82 0 185.64 0 0 Z " fill="#000000" transform="translate(0,0)"/>
<path d="M0 0 C10 0 10 0 13.12 1.94 C15.67 6.1 16 9.25 15 14 C13.73 17.12 12.83 17.79 10 20 C6.7 20 3.4 20 0 20 C0 13.4 0 6.8 0 0 Z " fill="#CCCA3F" transform="translate(437,461)"/>
<path d="M0 0 C10 0 10 0 13.12 1.94 C15.67 6.1 16 9.25 15 14 C13.73 17.12 12.83 17.79 10 20 C6.7 20 3.4 20 0 20 C0 13.4 0 6.8 0 0 Z " fill="#D2D141" transform="translate(437,423)"/>
<path d="M0 0 C10 0 10 0 13.12 1.94 C15.67 6.1 16 9.25 15 14 C13.73 17.12 12.83 17.79 10 20 C6.7 20 3.4 20 0 20 C0 13.4 0 6.8 0 0 Z " fill="#B5543C" transform="translate(5,423)"/>
<path d="M0 0 C10 0 10 0 13.12 1.94 C15.67 6.1 16 9.25 15 14 C13.73 17.12 12.83 17.79 10 20 C6.7 20 3.4 20 0 20 C0 13.4 0 6.8 0 0 Z " fill="#CCCA3F" transform="translate(437,195)"/>
<path d="M0 0 C10 0 10 0 13.12 1.94 C15.67 6.1 16 9.25 15 14 C13.73 17.12 12.83 17.79 10 20 C6.7 20 3.4 20 0 20 C0 13.4 0 6.8 0 0 Z " fill="#CCCA3F" transform="translate(437,157)"/>
<path d="M0 0 C10 0 10 0 13.12 1.94 C15.67 6.1 16 9.25 15 14 C13.73 17.12 12.83 17.79 10 20 C6.7 20 3.4 20 0 20 C0 13.4 0 6.8 0 0 Z " fill="#CCCA3F" transform="translate(437,119)"/>
<path d="M0 0 C10 0 10 0 13.12 1.94 C15.67 6.1 16 9.25 15 14 C13.73 17.12 12.83 17.79 10 20 C6.7 20 3.4 20 0 20 C0 13.4 0 6.8 0 0 Z " fill="#CCCA3F" transform="translate(437,81)"/>
<path d="M0 0 C10 0 10 0 13.12 1.94 C15.67 6.1 16 9.25 15 14 C13.73 17.12 12.83 17.79 10 20 C6.7 20 3.4 20 0 20 C0 13.4 0 6.8 0 0 Z " fill="#4AA794" transform="translate(581,5)"/>
<path d="M0 0 C10 0 10 0 13.12 1.94 C15.67 6.1 16 9.25 15 14 C13.73 17.12 12.83 17.79 10 20 C6.7 20 3.4 20 0 20 C0 13.4 0 6.8 0 0 Z " fill="#4AA794" transform="translate(437,5)"/>
<path d="M0 0 C3.3 0 6.6 0 10 0 C13.01 3.01 12 5.89 12 10 C12.66 10.66 13.32 11.32 14 12 C13.81 15 13.81 15 13 18 C10 20 10 20 0 20 C0 13.4 0 6.8 0 0 Z " fill="#D2D041" transform="translate(1734,461)"/>
<path d="M0 0 C3.3 0 6.6 0 10 0 C13.01 3.01 12 5.89 12 10 C12.66 10.66 13.32 11.32 14 12 C13.81 15 13.81 15 13 18 C10 20 10 20 0 20 C0 13.4 0 6.8 0 0 Z " fill="#D2D041" transform="translate(1734,233)"/>
<path d="M0 0 C3.3 0 6.6 0 10 0 C13.01 3.01 12 5.89 12 10 C12.66 10.66 13.32 11.32 14 12 C13.81 15 13.81 15 13 18 C10 20 10 20 0 20 C0 13.4 0 6.8 0 0 Z " fill="#D2D041" transform="translate(1734,195)"/>
<path d="M0 0 C3.3 0 6.6 0 10 0 C13.01 3.01 12 5.89 12 10 C12.66 10.66 13.32 11.32 14 12 C13.81 15 13.81 15 13 18 C10 20 10 20 0 20 C0 13.4 0 6.8 0 0 Z " fill="#D2D041" transform="translate(1734,157)"/>
<path d="M0 0 C3.3 0 6.6 0 10 0 C13.01 3.01 12 5.89 12 10 C12.66 10.66 13.32 11.32 14 12 C13.81 15 13.81 15 13 18 C10 20 10 20 0 20 C0 13.4 0 6.8 0 0 Z " fill="#A74E38" transform="translate(6,119)"/>
<path d="M0 0 C3.3 0 6.6 0 10 0 C13.01 3.01 12 5.89 12 10 C12.66 10.66 13.32 11.32 14 12 C13.81 15 13.81 15 13 18 C10 20 10 20 0 20 C0 13.4 0 6.8 0 0 Z " fill="#D2D041" transform="translate(1734,119)"/>
<path d="M0 0 C3.3 0 6.6 0 10 0 C13.01 3.01 12 5.89 12 10 C12.66 10.66 13.32 11.32 14 12 C13.81 15 13.81 15 13 18 C10 20 10 20 0 20 C0 13.4 0 6.8 0 0 Z " fill="#A74E38" transform="translate(6,81)"/>
<path d="M0 0 C3.3 0 6.6 0 10 0 C13.01 3.01 12 5.89 12 10 C12.66 10.66 13.32 11.32 14 12 C13.81 15 13.81 15 13 18 C10 20 10 20 0 20 C0 13.4 0 6.8 0 0 Z " fill="#D2D041" transform="translate(1734,81)"/>
<path d="M0 0 C3.3 0 6.6 0 10 0 C13.01 3.01 12 5.89 12 10 C12.66 10.66 13.32 11.32 14 12 C13.81 15 13.81 15 13 18 C10 20 10 20 0 20 C0 13.4 0 6.8 0 0 Z " fill="#4CAC98" transform="translate(1734,5)"/>
<path d="M0 0 C1.32 0 2.64 0 4 0 C5.01 2.58 6.01 5.16 7 7.75 C7.29 8.48 7.57 9.21 7.87 9.96 C8.14 10.67 8.41 11.38 8.69 12.11 C8.94 12.76 9.19 13.41 9.45 14.08 C10 16 10 16 10 20 C8.68 19.67 7.36 19.34 6 19 C6 17.35 6 15.7 6 14 C3.36 14 0.72 14 -2 14 C-2.33 15.98 -2.66 17.96 -3 20 C-3.99 20 -4.98 20 -6 20 C-5.5 12.85 -2.68 6.59 0 0 Z " fill="#D0CE40" transform="translate(1450,309)"/>
<path d="M0 0 C1.32 0 2.64 0 4 0 C5.01 2.58 6.01 5.16 7 7.75 C7.29 8.48 7.57 9.21 7.87 9.96 C8.14 10.67 8.41 11.38 8.69 12.11 C8.94 12.76 9.19 13.41 9.45 14.08 C10 16 10 16 10 20 C8.68 19.67 7.36 19.34 6 19 C6 17.35 6 15.7 6 14 C3.36 14 0.72 14 -2 14 C-2.33 15.98 -2.66 17.96 -3 20 C-3.99 20 -4.98 20 -6 20 C-5.5 12.85 -2.68 6.59 0 0 Z " fill="#429785" transform="translate(1450,5)"/>
<path d="M0 0 C1.32 0 2.64 0 4 0 C5.01 2.58 6.01 5.16 7 7.75 C7.29 8.48 7.57 9.21 7.87 9.96 C8.14 10.67 8.41 11.38 8.69 12.11 C8.94 12.76 9.19 13.41 9.45 14.08 C10 16 10 16 10 20 C9.01 20 8.02 20 7 20 C6.67 18.02 6.34 16.04 6 14 C3.36 14 0.72 14 -2 14 C-2.33 15.98 -2.66 17.96 -3 20 C-3.99 20 -4.98 20 -6 20 C-5.5 12.85 -2.68 6.59 0 0 Z " fill="#D1CF41" transform="translate(1450,499)"/>
<path d="M0 0 C1.32 0 2.64 0 4 0 C5.01 2.58 6.01 5.16 7 7.75 C7.29 8.48 7.57 9.21 7.87 9.96 C8.14 10.67 8.41 11.38 8.69 12.11 C8.94 12.76 9.19 13.41 9.45 14.08 C10 16 10 16 10 20 C9.01 20 8.02 20 7 20 C6.67 18.02 6.34 16.04 6 14 C3.36 14 0.72 14 -2 14 C-2.33 15.98 -2.66 17.96 -3 20 C-3.99 20 -4.98 20 -6 20 C-5.5 12.85 -2.68 6.59 0 0 Z " fill="#D1CF41" transform="translate(1450,423)"/>
<path d="M0 0 C1.32 0 2.64 0 4 0 C5.01 2.58 6.01 5.16 7 7.75 C7.29 8.48 7.57 9.21 7.87 9.96 C8.14 10.67 8.41 11.38 8.69 12.11 C8.94 12.76 9.19 13.41 9.45 14.08 C10 16 10 16 10 20 C8.68 19.67 7.36 19.34 6 19 C6 17.35 6 15.7 6 14 C3.36 14 0.72 14 -2 14 C-2.33 15.98 -2.66 17.96 -3 20 C-3.99 20 -4.98 20 -6 20 C-5.5 12.85 -2.68 6.59 0 0 Z " fill="#D1CF41" transform="translate(1450,271)"/>
<path d="M0 0 C1.32 0 2.64 0 4 0 C5.01 2.58 6.01 5.16 7 7.75 C7.29 8.48 7.57 9.21 7.87 9.96 C8.14 10.67 8.41 11.38 8.69 12.11 C8.94 12.76 9.19 13.41 9.45 14.08 C10 16 10 16 10 20 C8.68 19.67 7.36 19.34 6 19 C6 17.35 6 15.7 6 14 C3.36 14 0.72 14 -2 14 C-2.33 15.98 -2.66 17.96 -3 20 C-3.99 20 -4.98 20 -6 20 C-5.5 12.85 -2.68 6.59 0 0 Z " fill="#4BAB97" transform="translate(1594,5)"/>
<path d="M0 0 C1.32 0 2.64 0 4 0 C5.01 2.58 6.01 5.16 7 7.75 C7.29 8.48 7.57 9.21 7.87 9.96 C8.14 10.67 8.41 11.38 8.69 12.11 C8.94 12.76 9.19 13.41 9.45 14.08 C10 16 10 16 10 20 C9.01 20 8.02 20 7 20 C6.67 18.02 6.34 16.04 6 14 C3.36 14 0.72 14 -2 14 C-2.33 15.98 -2.66 17.96 -3 20 C-3.99 20 -4.98 20 -6 20 C-5.5 12.85 -2.68 6.59 0 0 Z " fill="#D2D041" transform="translate(1450,385)"/>
<path d="M0 0 C1.32 0 2.64 0 4 0 C5.01 2.58 6.01 5.16 7 7.75 C7.29 8.48 7.57 9.21 7.87 9.96 C8.14 10.67 8.41 11.38 8.69 12.11 C8.94 12.76 9.19 13.41 9.45 14.08 C10 16 10 16 10 20 C9.01 20 8.02 20 7 20 C6.67 18.02 6.34 16.04 6 14 C3.36 14 0.72 14 -2 14 C-2.33 15.98 -2.66 17.96 -3 20 C-3.99 20 -4.98 20 -6 20 C-5.5 12.85 -2.68 6.59 0 0 Z " fill="#D3D141" transform="translate(1450,119)"/>
<path d="M0 0 C0.99 0.66 1.98 1.32 3 2 C2.67 2.99 2.34 3.98 2 5 C-0.31 4.67 -2.62 4.34 -5 4 C-7.7 8.05 -7.23 10.18 -7 15 C-6.67 15.66 -6.34 16.32 -6 17 C-2.97 17.66 -2.97 17.66 0 18 C0 16.35 0 14.7 0 13 C-1.32 13 -2.64 13 -4 13 C-4 12.01 -4 11.02 -4 10 C-1.69 10 0.62 10 3 10 C3 13.3 3 16.6 3 20 C-0.25 21.62 -3.5 21.69 -7 21 C-10.09 18.42 -11.65 16.91 -12.37 12.96 C-12.49 9.25 -12.31 5.97 -10 3 C-6.63 0.45 -4.22 -0.56 0 0 Z " fill="#49A592" transform="translate(1312,4)"/>
<path d="M0 0 C3.68 -0.03 3.68 -0.03 7.44 -0.06 C8.21 -0.07 8.99 -0.08 9.78 -0.09 C11.52 -0.1 13.26 -0.05 15 0 C16 1 16 1 16.1 4.16 C16.09 5.45 16.07 6.74 16.06 8.06 C16.05 9.35 16.04 10.64 16.04 11.97 C16.02 12.97 16.01 13.97 16 15 C15.01 15 14.02 15 13 15 C13 11.04 13 7.08 13 3 C12.01 3 11.02 3 10 3 C10 6.96 10 10.92 10 15 C9.01 15 8.02 15 7 15 C7 11.04 7 7.08 7 3 C6.01 3.33 5.02 3.66 4 4 C3.67 7.63 3.34 11.26 3 15 C2.01 15 1.02 15 0 15 C0 10.05 0 5.1 0 0 Z " fill="#B4543C" transform="translate(40,390)"/>
<path d="M0 0 C3.68 -0.03 3.68 -0.03 7.44 -0.06 C8.21 -0.07 8.99 -0.08 9.78 -0.09 C11.52 -0.1 13.26 -0.05 15 0 C16 1 16 1 16.1 4.16 C16.09 5.45 16.07 6.74 16.06 8.06 C16.05 9.35 16.04 10.64 16.04 11.97 C16.02 12.97 16.01 13.97 16 15 C15.01 15 14.02 15 13 15 C13 11.04 13 7.08 13 3 C12.01 3 11.02 3 10 3 C10 6.96 10 10.92 10 15 C9.01 15 8.02 15 7 15 C7 11.04 7 7.08 7 3 C6.01 3.33 5.02 3.66 4 4 C3.67 7.63 3.34 11.26 3 15 C2.01 15 1.02 15 0 15 C0 10.05 0 5.1 0 0 Z " fill="#B4543C" transform="translate(40,352)"/>
<path d="M0 0 C3.68 -0.03 3.68 -0.03 7.44 -0.06 C8.21 -0.07 8.99 -0.08 9.78 -0.09 C11.52 -0.1 13.26 -0.05 15 0 C16 1 16 1 16.1 4.16 C16.09 5.45 16.07 6.74 16.06 8.06 C16.05 9.35 16.04 10.64 16.04 11.97 C16.02 12.97 16.01 13.97 16 15 C15.01 15 14.02 15 13 15 C13 11.04 13 7.08 13 3 C12.01 3 11.02 3 10 3 C10 6.96 10 10.92 10 15 C9.01 15 8.02 15 7 15 C7 11.04 7 7.08 7 3 C6.01 3.33 5.02 3.66 4 4 C3.67 7.63 3.34 11.26 3 15 C2.01 15 1.02 15 0 15 C0 10.05 0 5.1 0 0 Z " fill="#B4543C" transform="translate(22,124)"/>
<path d="M0 0 C3.68 -0.03 3.68 -0.03 7.44 -0.06 C8.21 -0.07 8.99 -0.08 9.78 -0.09 C11.52 -0.1 13.26 -0.05 15 0 C16 1 16 1 16.1 4.16 C16.09 5.45 16.07 6.74 16.06 8.06 C16.05 9.35 16.04 10.64 16.04 11.97 C16.02 12.97 16.01 13.97 16 15 C15.01 15 14.02 15 13 15 C13 11.04 13 7.08 13 3 C12.01 3 11.02 3 10 3 C10 6.96 10 10.92 10 15 C9.01 15 8.02 15 7 15 C7 11.04 7 7.08 7 3 C6.01 3.33 5.02 3.66 4 4 C3.67 7.63 3.34 11.26 3 15 C2.01 15 1.02 15 0 15 C0 10.05 0 5.1 0 0 Z " fill="#BA573E" transform="translate(22,86)"/>
<path d="M0 0 C1.32 0 2.64 0 4 0 C5.01 2.77 6 5.54 7 8.31 C7.29 9.1 7.57 9.88 7.87 10.69 C8.14 11.45 8.41 12.21 8.69 12.99 C9.06 14.03 9.06 14.03 9.45 15.1 C10 17 10 17 10 20 C9.01 20 8.02 20 7 20 C6.67 18.02 6.34 16.04 6 14 C3.36 14 0.72 14 -2 14 C-2.33 15.98 -2.66 17.96 -3 20 C-3.99 20 -4.98 20 -6 20 C-4.63 13.04 -2.55 6.61 0 0 Z " fill="#BD583F" transform="translate(10,499)"/>
<path d="M0 0 C1.32 0 2.64 0 4 0 C5.01 2.77 6 5.54 7 8.31 C7.29 9.1 7.57 9.88 7.87 10.69 C8.14 11.45 8.41 12.21 8.69 12.99 C9.06 14.03 9.06 14.03 9.45 15.1 C10 17 10 17 10 20 C9.01 20 8.02 20 7 20 C6.67 18.02 6.34 16.04 6 14 C3.36 14 0.72 14 -2 14 C-2.33 15.98 -2.66 17.96 -3 20 C-3.99 20 -4.98 20 -6 20 C-4.63 13.04 -2.55 6.61 0 0 Z " fill="#BD583F" transform="translate(10,309)"/>
<path d="M0 0 C1.32 0 2.64 0 4 0 C5.01 2.77 6 5.54 7 8.31 C7.29 9.1 7.57 9.88 7.87 10.69 C8.14 11.45 8.41 12.21 8.69 12.99 C9.06 14.03 9.06 14.03 9.45 15.1 C10 17 10 17 10 20 C9.01 20 8.02 20 7 20 C6.67 18.02 6.34 16.04 6 14 C3.36 14 0.72 14 -2 14 C-2.33 15.98 -2.66 17.96 -3 20 C-3.99 20 -4.98 20 -6 20 C-4.63 13.04 -2.55 6.61 0 0 Z " fill="#BD583F" transform="translate(10,271)"/>
<path d="M0 0 C1.32 0 2.64 0 4 0 C5.01 2.77 6 5.54 7 8.31 C7.29 9.1 7.57 9.88 7.87 10.69 C8.14 11.45 8.41 12.21 8.69 12.99 C9.06 14.03 9.06 14.03 9.45 15.1 C10 17 10 17 10 20 C9.01 20 8.02 20 7 20 C6.67 18.02 6.34 16.04 6 14 C3.36 14 0.72 14 -2 14 C-2.33 15.98 -2.66 17.96 -3 20 C-3.99 20 -4.98 20 -6 20 C-4.63 13.04 -2.55 6.61 0 0 Z " fill="#BC583F" transform="translate(64,119)"/>
<path d="M0 0 C0.99 0.66 1.98 1.32 3 2 C2.67 2.99 2.34 3.98 2 5 C-0.31 4.67 -2.62 4.34 -5 4 C-7.7 8.05 -7.23 10.18 -7 15 C-6.67 15.66 -6.34 16.32 -6 17 C-2.97 17.66 -2.97 17.66 0 18 C0 16.35 0 14.7 0 13 C-1.32 13 -2.64 13 -4 13 C-4 12.01 -4 11.02 -4 10 C-1.69 10 0.62 10 3 10 C3 13.3 3 16.6 3 20 C-0.23 21.61 -3.51 21.57 -7 21 C-9.5 19.19 -9.5 19.19 -11 16 C-11.71 10.98 -12.14 6.6 -9.12 2.38 C-5.83 0.24 -3.94 -0.29 0 0 Z " fill="#D8D643" transform="translate(1168,460)"/>
<path d="M0 0 C0.99 0.66 1.98 1.32 3 2 C2.67 2.99 2.34 3.98 2 5 C-0.31 4.67 -2.62 4.34 -5 4 C-7.7 8.05 -7.23 10.18 -7 15 C-6.67 15.66 -6.34 16.32 -6 17 C-2.97 17.66 -2.97 17.66 0 18 C0 16.35 0 14.7 0 13 C-1.32 13 -2.64 13 -4 13 C-4 12.01 -4 11.02 -4 10 C-1.69 10 0.62 10 3 10 C3 13.3 3 16.6 3 20 C-0.23 21.61 -3.51 21.57 -7 21 C-9.5 19.19 -9.5 19.19 -11 16 C-11.71 10.98 -12.14 6.6 -9.12 2.38 C-5.83 0.24 -3.94 -0.29 0 0 Z " fill="#D8D643" transform="translate(1312,346)"/>
<path d="M0 0 C0.99 0.66 1.98 1.32 3 2 C2.67 2.99 2.34 3.98 2 5 C-0.31 4.67 -2.62 4.34 -5 4 C-7.7 8.05 -7.23 10.18 -7 15 C-6.67 15.66 -6.34 16.32 -6 17 C-2.97 17.66 -2.97 17.66 0 18 C0 16.35 0 14.7 0 13 C-1.32 13 -2.64 13 -4 13 C-4 12.01 -4 11.02 -4 10 C-1.69 10 0.62 10 3 10 C3 13.3 3 16.6 3 20 C-0.23 21.61 -3.51 21.57 -7 21 C-9.5 19.19 -9.5 19.19 -11 16 C-11.71 10.98 -12.14 6.6 -9.12 2.38 C-5.83 0.24 -3.94 -0.29 0 0 Z " fill="#D8D643" transform="translate(1312,232)"/>
<path d="M0 0 C0.99 0.66 1.98 1.32 3 2 C2.67 2.99 2.34 3.98 2 5 C-0.31 4.67 -2.62 4.34 -5 4 C-7.7 8.05 -7.23 10.18 -7 15 C-6.67 15.66 -6.34 16.32 -6 17 C-2.97 17.66 -2.97 17.66 0 18 C0 16.35 0 14.7 0 13 C-1.32 13 -2.64 13 -4 13 C-4 12.01 -4 11.02 -4 10 C-1.69 10 0.62 10 3 10 C3 13.3 3 16.6 3 20 C-0.23 21.61 -3.51 21.57 -7 21 C-9.5 19.19 -9.5 19.19 -11 16 C-11.71 10.98 -12.14 6.6 -9.12 2.38 C-5.83 0.24 -3.94 -0.29 0 0 Z " fill="#D8D643" transform="translate(1168,194)"/>
<path d="M0 0 C0.99 0.66 1.98 1.32 3 2 C2.67 2.99 2.34 3.98 2 5 C-0.31 4.67 -2.62 4.34 -5 4 C-7.7 8.05 -7.23 10.18 -7 15 C-6.67 15.66 -6.34 16.32 -6 17 C-2.97 17.66 -2.97 17.66 0 18 C0 16.35 0 14.7 0 13 C-1.32 13 -2.64 13 -4 13 C-4 12.01 -4 11.02 -4 10 C-1.69 10 0.62 10 3 10 C3 13.3 3 16.6 3 20 C-0.23 21.61 -3.51 21.57 -7 21 C-9.5 19.19 -9.5 19.19 -11 16 C-11.71 10.98 -12.14 6.6 -9.12 2.38 C-5.83 0.24 -3.94 -0.29 0 0 Z " fill="#D8D643" transform="translate(1168,156)"/>
<path d="M0 0 C0.99 0.66 1.98 1.32 3 2 C2.67 2.99 2.34 3.98 2 5 C-0.31 4.67 -2.62 4.34 -5 4 C-7.7 8.05 -7.23 10.18 -7 15 C-6.67 15.66 -6.34 16.32 -6 17 C-2.97 17.66 -2.97 17.66 0 18 C0 16.35 0 14.7 0 13 C-1.32 13 -2.64 13 -4 13 C-4 12.01 -4 11.02 -4 10 C-1.69 10 0.62 10 3 10 C3 13.3 3 16.6 3 20 C-0.23 21.61 -3.51 21.57 -7 21 C-9.5 19.19 -9.5 19.19 -11 16 C-11.71 10.98 -12.14 6.6 -9.12 2.38 C-5.83 0.24 -3.94 -0.29 0 0 Z " fill="#4FB39E" transform="translate(1168,4)"/>
<path d="M0 0 C0.66 0 1.32 0 2 0 C2 1.65 2 3.3 2 5 C2.99 5 3.98 5 5 5 C5.33 3.35 5.66 1.7 6 0 C6.66 0 7.32 0 8 0 C8 1.98 8 3.96 8 6 C8.66 6 9.32 6 10 6 C10 6.66 10 7.32 10 8 C9.01 8 8.02 8 7 8 C7 9.32 7 10.64 7 12 C7.66 12 8.32 12 9 12 C9 12.66 9 13.32 9 14 C8.01 14 7.02 14 6 14 C6 15.98 6 17.96 6 20 C5.34 20 4.68 20 4 20 C4 18.02 4 16.04 4 14 C3.01 14 2.02 14 1 14 C0.67 15.98 0.34 17.96 0 20 C-0.66 20 -1.32 20 -2 20 C-2 18.02 -2 16.04 -2 14 C-2.66 14 -3.32 14 -4 14 C-4 13.34 -4 12.68 -4 12 C-3.01 12 -2.02 12 -1 12 C-1 10.68 -1 9.36 -1 8 C-1.66 8 -2.32 8 -3 8 C-3 7.01 -3 6.02 -3 5 C-2.01 5 -1.02 5 0 5 C0 3.35 0 1.7 0 0 Z " fill="#C7C63E" transform="translate(315,499)"/>
<path d="M0 0 C0.66 0 1.32 0 2 0 C2 1.65 2 3.3 2 5 C2.99 5 3.98 5 5 5 C5.33 3.35 5.66 1.7 6 0 C6.66 0 7.32 0 8 0 C8 1.98 8 3.96 8 6 C8.66 6 9.32 6 10 6 C10 6.66 10 7.32 10 8 C9.01 8 8.02 8 7 8 C7 9.32 7 10.64 7 12 C7.66 12 8.32 12 9 12 C9 12.66 9 13.32 9 14 C8.01 14 7.02 14 6 14 C6 15.98 6 17.96 6 20 C5.34 20 4.68 20 4 20 C4 18.02 4 16.04 4 14 C3.01 14 2.02 14 1 14 C0.67 15.98 0.34 17.96 0 20 C-0.66 20 -1.32 20 -2 20 C-2 18.02 -2 16.04 -2 14 C-2.66 14 -3.32 14 -4 14 C-4 13.34 -4 12.68 -4 12 C-3.01 12 -2.02 12 -1 12 C-1 10.68 -1 9.36 -1 8 C-1.66 8 -2.32 8 -3 8 C-3 7.01 -3 6.02 -3 5 C-2.01 5 -1.02 5 0 5 C0 3.35 0 1.7 0 0 Z " fill="#D0CE40" transform="translate(1035,423)"/>
<path d="M0 0 C0.66 0 1.32 0 2 0 C2 1.65 2 3.3 2 5 C2.99 5 3.98 5 5 5 C5.33 3.35 5.66 1.7 6 0 C6.66 0 7.32 0 8 0 C8 1.98 8 3.96 8 6 C8.66 6 9.32 6 10 6 C10 6.66 10 7.32 10 8 C9.01 8 8.02 8 7 8 C7 9.32 7 10.64 7 12 C7.66 12 8.32 12 9 12 C9 12.66 9 13.32 9 14 C8.01 14 7.02 14 6 14 C6 15.98 6 17.96 6 20 C5.34 20 4.68 20 4 20 C4 18.02 4 16.04 4 14 C3.01 14 2.02 14 1 14 C0.67 15.98 0.34 17.96 0 20 C-0.66 20 -1.32 20 -2 20 C-2 18.02 -2 16.04 -2 14 C-2.66 14 -3.32 14 -4 14 C-4 13.34 -4 12.68 -4 12 C-3.01 12 -2.02 12 -1 12 C-1 10.68 -1 9.36 -1 8 C-1.66 8 -2.32 8 -3 8 C-3 7.01 -3 6.02 -3 5 C-2.01 5 -1.02 5 0 5 C0 3.35 0 1.7 0 0 Z " fill="#CFCE40" transform="translate(1035,385)"/>
<path d="M0 0 C0.66 0 1.32 0 2 0 C2 1.65 2 3.3 2 5 C2.99 5 3.98 5 5 5 C5.33 3.35 5.66 1.7 6 0 C6.66 0 7.32 0 8 0 C8 1.98 8 3.96 8 6 C8.66 6 9.32 6 10 6 C10 6.66 10 7.32 10 8 C9.01 8 8.02 8 7 8 C7 9.32 7 10.64 7 12 C7.66 12 8.32 12 9 12 C9 12.66 9 13.32 9 14 C8.01 14 7.02 14 6 14 C6 15.98 6 17.96 6 20 C5.34 20 4.68 20 4 20 C4 18.02 4 16.04 4 14 C3.01 14 2.02 14 1 14 C0.67 15.98 0.34 17.96 0 20 C-0.66 20 -1.32 20 -2 20 C-2 18.02 -2 16.04 -2 14 C-2.66 14 -3.32 14 -4 14 C-4 13.34 -4 12.68 -4 12 C-3.01 12 -2.02 12 -1 12 C-1 10.68 -1 9.36 -1 8 C-1.66 8 -2.32 8 -3 8 C-3 7.01 -3 6.02 -3 5 C-2.01 5 -1.02 5 0 5 C0 3.35 0 1.7 0 0 Z " fill="#D1CF41" transform="translate(315,385)"/>
<path d="M0 0 C0.66 0 1.32 0 2 0 C2 1.65 2 3.3 2 5 C2.99 5 3.98 5 5 5 C5.33 3.35 5.66 1.7 6 0 C6.66 0 7.32 0 8 0 C8 1.98 8 3.96 8 6 C8.66 6 9.32 6 10 6 C10 6.66 10 7.32 10 8 C9.01 8 8.02 8 7 8 C7 9.32 7 10.64 7 12 C7.66 12 8.32 12 9 12 C9 12.66 9 13.32 9 14 C8.01 14 7.02 14 6 14 C6 15.98 6 17.96 6 20 C5.34 20 4.68 20 4 20 C4 18.02 4 16.04 4 14 C3.01 14 2.02 14 1 14 C0.67 15.98 0.34 17.96 0 20 C-0.66 20 -1.32 20 -2 20 C-2 18.02 -2 16.04 -2 14 C-2.66 14 -3.32 14 -4 14 C-4 13.34 -4 12.68 -4 12 C-3.01 12 -2.02 12 -1 12 C-1 10.68 -1 9.36 -1 8 C-1.66 8 -2.32 8 -3 8 C-3 7.01 -3 6.02 -3 5 C-2.01 5 -1.02 5 0 5 C0 3.35 0 1.7 0 0 Z " fill="#D0CE40" transform="translate(1323,347)"/>
<path d="M0 0 C0.66 0 1.32 0 2 0 C2 1.65 2 3.3 2 5 C2.99 5 3.98 5 5 5 C5.33 3.35 5.66 1.7 6 0 C6.66 0 7.32 0 8 0 C8 1.98 8 3.96 8 6 C8.66 6 9.32 6 10 6 C10 6.66 10 7.32 10 8 C9.01 8 8.02 8 7 8 C7 9.32 7 10.64 7 12 C7.66 12 8.32 12 9 12 C9 12.66 9 13.32 9 14 C8.01 14 7.02 14 6 14 C6 15.98 6 17.96 6 20 C5.34 20 4.68 20 4 20 C4 18.02 4 16.04 4 14 C3.01 14 2.02 14 1 14 C0.67 15.98 0.34 17.96 0 20 C-0.66 20 -1.32 20 -2 20 C-2 18.02 -2 16.04 -2 14 C-2.66 14 -3.32 14 -4 14 C-4 13.34 -4 12.68 -4 12 C-3.01 12 -2.02 12 -1 12 C-1 10.68 -1 9.36 -1 8 C-1.66 8 -2.32 8 -3 8 C-3 7.01 -3 6.02 -3 5 C-2.01 5 -1.02 5 0 5 C0 3.35 0 1.7 0 0 Z " fill="#CFCE40" transform="translate(315,347)"/>
<path d="M0 0 C0.66 0 1.32 0 2 0 C2 1.65 2 3.3 2 5 C2.99 5 3.98 5 5 5 C5.33 3.35 5.66 1.7 6 0 C6.66 0 7.32 0 8 0 C8 1.98 8 3.96 8 6 C8.66 6 9.32 6 10 6 C10 6.66 10 7.32 10 8 C9.01 8 8.02 8 7 8 C7 9.32 7 10.64 7 12 C7.66 12 8.32 12 9 12 C9 12.66 9 13.32 9 14 C8.01 14 7.02 14 6 14 C6 15.98 6 17.96 6 20 C5.34 20 4.68 20 4 20 C4 18.02 4 16.04 4 14 C3.01 14 2.02 14 1 14 C0.67 15.98 0.34 17.96 0 20 C-0.66 20 -1.32 20 -2 20 C-2 18.02 -2 16.04 -2 14 C-2.66 14 -3.32 14 -4 14 C-4 13.34 -4 12.68 -4 12 C-3.01 12 -2.02 12 -1 12 C-1 10.68 -1 9.36 -1 8 C-1.66 8 -2.32 8 -3 8 C-3 7.01 -3 6.02 -3 5 C-2.01 5 -1.02 5 0 5 C0 3.35 0 1.7 0 0 Z " fill="#D0CE40" transform="translate(315,309)"/>
<path d="M0 0 C0.66 0 1.32 0 2 0 C2 1.65 2 3.3 2 5 C2.99 5 3.98 5 5 5 C5.33 3.35 5.66 1.7 6 0 C6.66 0 7.32 0 8 0 C8 1.98 8 3.96 8 6 C8.66 6 9.32 6 10 6 C10 6.66 10 7.32 10 8 C9.01 8 8.02 8 7 8 C7 9.32 7 10.64 7 12 C7.66 12 8.32 12 9 12 C9 12.66 9 13.32 9 14 C8.01 14 7.02 14 6 14 C6 15.98 6 17.96 6 20 C5.34 20 4.68 20 4 20 C4 18.02 4 16.04 4 14 C3.01 14 2.02 14 1 14 C0.67 15.98 0.34 17.96 0 20 C-0.66 20 -1.32 20 -2 20 C-2 18.02 -2 16.04 -2 14 C-2.66 14 -3.32 14 -4 14 C-4 13.34 -4 12.68 -4 12 C-3.01 12 -2.02 12 -1 12 C-1 10.68 -1 9.36 -1 8 C-1.66 8 -2.32 8 -3 8 C-3 7.01 -3 6.02 -3 5 C-2.01 5 -1.02 5 0 5 C0 3.35 0 1.7 0 0 Z " fill="#D0CE40" transform="translate(315,271)"/>
<path d="M0 0 C0.66 0 1.32 0 2 0 C2 1.65 2 3.3 2 5 C2.99 5 3.98 5 5 5 C5.33 3.35 5.66 1.7 6 0 C6.66 0 7.32 0 8 0 C8 1.98 8 3.96 8 6 C8.66 6 9.32 6 10 6 C10 6.66 10 7.32 10 8 C9.01 8 8.02 8 7 8 C7 9.32 7 10.64 7 12 C7.66 12 8.32 12 9 12 C9 12.66 9 13.32 9 14 C8.01 14 7.02 14 6 14 C6 15.98 6 17.96 6 20 C5.34 20 4.68 20 4 20 C4 18.02 4 16.04 4 14 C3.01 14 2.02 14 1 14 C0.67 15.98 0.34 17.96 0 20 C-0.66 20 -1.32 20 -2 20 C-2 18.02 -2 16.04 -2 14 C-2.66 14 -3.32 14 -4 14 C-4 13.34 -4 12.68 -4 12 C-3.01 12 -2.02 12 -1 12 C-1 10.68 -1 9.36 -1 8 C-1.66 8 -2.32 8 -3 8 C-3 7.01 -3 6.02 -3 5 C-2.01 5 -1.02 5 0 5 C0 3.35 0 1.7 0 0 Z " fill="#D0CE40" transform="translate(1323,233)"/>
<path d="M0 0 C0.66 0 1.32 0 2 0 C2 1.65 2 3.3 2 5 C2.99 5 3.98 5 5 5 C5.33 3.35 5.66 1.7 6 0 C6.66 0 7.32 0 8 0 C8 1.98 8 3.96 8 6 C8.66 6 9.32 6 10 6 C10 6.66 10 7.32 10 8 C9.01 8 8.02 8 7 8 C7 9.32 7 10.64 7 12 C7.66 12 8.32 12 9 12 C9 12.66 9 13.32 9 14 C8.01 14 7.02 14 6 14 C6 15.98 6 17.96 6 20 C5.34 20 4.68 20 4 20 C4 18.02 4 16.04 4 14 C3.01 14 2.02 14 1 14 C0.67 15.98 0.34 17.96 0 20 C-0.66 20 -1.32 20 -2 20 C-2 18.02 -2 16.04 -2 14 C-2.66 14 -3.32 14 -4 14 C-4 13.34 -4 12.68 -4 12 C-3.01 12 -2.02 12 -1 12 C-1 10.68 -1 9.36 -1 8 C-1.66 8 -2.32 8 -3 8 C-3 7.01 -3 6.02 -3 5 C-2.01 5 -1.02 5 0 5 C0 3.35 0 1.7 0 0 Z " fill="#CFCE40" transform="translate(1035,195)"/>
<path d="M0 0 C0.66 0 1.32 0 2 0 C2 1.65 2 3.3 2 5 C2.99 5 3.98 5 5 5 C5.33 3.35 5.66 1.7 6 0 C6.66 0 7.32 0 8 0 C8 1.98 8 3.96 8 6 C8.66 6 9.32 6 10 6 C10 6.66 10 7.32 10 8 C9.01 8 8.02 8 7 8 C7 9.32 7 10.64 7 12 C7.66 12 8.32 12 9 12 C9 12.66 9 13.32 9 14 C8.01 14 7.02 14 6 14 C6 15.98 6 17.96 6 20 C5.34 20 4.68 20 4 20 C4 18.02 4 16.04 4 14 C3.01 14 2.02 14 1 14 C0.67 15.98 0.34 17.96 0 20 C-0.66 20 -1.32 20 -2 20 C-2 18.02 -2 16.04 -2 14 C-2.66 14 -3.32 14 -4 14 C-4 13.34 -4 12.68 -4 12 C-3.01 12 -2.02 12 -1 12 C-1 10.68 -1 9.36 -1 8 C-1.66 8 -2.32 8 -3 8 C-3 7.01 -3 6.02 -3 5 C-2.01 5 -1.02 5 0 5 C0 3.35 0 1.7 0 0 Z " fill="#CFCE40" transform="translate(1035,119)"/>
<path d="M0 0 C0.66 0 1.32 0 2 0 C2 1.65 2 3.3 2 5 C2.99 5 3.98 5 5 5 C5.33 3.35 5.66 1.7 6 0 C6.66 0 7.32 0 8 0 C8 1.98 8 3.96 8 6 C8.66 6 9.32 6 10 6 C10 6.66 10 7.32 10 8 C9.01 8 8.02 8 7 8 C7 9.32 7 10.64 7 12 C7.66 12 8.32 12 9 12 C9 12.66 9 13.32 9 14 C8.01 14 7.02 14 6 14 C6 15.98 6 17.96 6 20 C5.34 20 4.68 20 4 20 C4 18.02 4 16.04 4 14 C3.01 14 2.02 14 1 14 C0.67 15.98 0.34 17.96 0 20 C-0.66 20 -1.32 20 -2 20 C-2 18.02 -2 16.04 -2 14 C-2.66 14 -3.32 14 -4 14 C-4 13.34 -4 12.68 -4 12 C-3.01 12 -2.02 12 -1 12 C-1 10.68 -1 9.36 -1 8 C-1.66 8 -2.32 8 -3 8 C-3 7.01 -3 6.02 -3 5 C-2.01 5 -1.02 5 0 5 C0 3.35 0 1.7 0 0 Z " fill="#D0CE40" transform="translate(1035,81)"/>
<path d="M0 0 C0.66 0 1.32 0 2 0 C2 1.65 2 3.3 2 5 C2.99 5 3.98 5 5 5 C5.33 3.35 5.66 1.7 6 0 C6.66 0 7.32 0 8 0 C8 1.98 8 3.96 8 6 C8.66 6 9.32 6 10 6 C10 6.66 10 7.32 10 8 C9.01 8 8.02 8 7 8 C7 9.32 7 10.64 7 12 C7.66 12 8.32 12 9 12 C9 12.66 9 13.32 9 14 C8.01 14 7.02 14 6 14 C6 15.98 6 17.96 6 20 C5.34 20 4.68 20 4 20 C4 18.02 4 16.04 4 14 C3.01 14 2.02 14 1 14 C0.67 15.98 0.34 17.96 0 20 C-0.66 20 -1.32 20 -2 20 C-2 18.02 -2 16.04 -2 14 C-2.66 14 -3.32 14 -4 14 C-4 13.34 -4 12.68 -4 12 C-3.01 12 -2.02 12 -1 12 C-1 10.68 -1 9.36 -1 8 C-1.66 8 -2.32 8 -3 8 C-3 7.01 -3 6.02 -3 5 C-2.01 5 -1.02 5 0 5 C0 3.35 0 1.7 0 0 Z " fill="#4BAB97" transform="translate(1611,5)"/>
<path d="M0 0 C0.66 0 1.32 0 2 0 C2 1.65 2 3.3 2 5 C2.99 5 3.98 5 5 5 C5.33 3.35 5.66 1.7 6 0 C6.66 0 7.32 0 8 0 C8 1.98 8 3.96 8 6 C8.66 6 9.32 6 10 6 C10 6.66 10 7.32 10 8 C9.01 8 8.02 8 7 8 C7 9.32 7 10.64 7 12 C7.66 12 8.32 12 9 12 C9 12.66 9 13.32 9 14 C8.01 14 7.02 14 6 14 C6 15.98 6 17.96 6 20 C5.34 20 4.68 20 4 20 C4 18.02 4 16.04 4 14 C3.01 14 2.02 14 1 14 C0.67 15.98 0.34 17.96 0 20 C-0.66 20 -1.32 20 -2 20 C-2 18.02 -2 16.04 -2 14 C-2.66 14 -3.32 14 -4 14 C-4 13.34 -4 12.68 -4 12 C-3.01 12 -2.02 12 -1 12 C-1 10.68 -1 9.36 -1 8 C-1.66 8 -2.32 8 -3 8 C-3 7.01 -3 6.02 -3 5 C-2.01 5 -1.02 5 0 5 C0 3.35 0 1.7 0 0 Z " fill="#4BAB97" transform="translate(1323,5)"/>
<path d="M0 0 C0.66 0 1.32 0 2 0 C2 1.65 2 3.3 2 5 C2.99 5 3.98 5 5 5 C5.33 3.35 5.66 1.7 6 0 C6.66 0 7.32 0 8 0 C8 1.98 8 3.96 8 6 C8.66 6 9.32 6 10 6 C10 6.66 10 7.32 10 8 C9.01 8 8.02 8 7 8 C7 9.32 7 10.64 7 12 C7.66 12 8.32 12 9 12 C9 12.66 9 13.32 9 14 C8.01 14 7.02 14 6 14 C6 15.98 6 17.96 6 20 C5.34 20 4.68 20 4 20 C4 18.02 4 16.04 4 14 C3.01 14 2.02 14 1 14 C0.67 15.98 0.34 17.96 0 20 C-0.66 20 -1.32 20 -2 20 C-2 18.02 -2 16.04 -2 14 C-2.66 14 -3.32 14 -4 14 C-4 13.34 -4 12.68 -4 12 C-3.01 12 -2.02 12 -1 12 C-1 10.68 -1 9.36 -1 8 C-1.66 8 -2.32 8 -3 8 C-3 7.01 -3 6.02 -3 5 C-2.01 5 -1.02 5 0 5 C0 3.35 0 1.7 0 0 Z " fill="#4BAB97" transform="translate(1035,5)"/>
<path d="M0 0 C0.66 0 1.32 0 2 0 C2 1.65 2 3.3 2 5 C2.99 5 3.98 5 5 5 C5.33 3.35 5.66 1.7 6 0 C6.66 0 7.32 0 8 0 C8 1.98 8 3.96 8 6 C8.66 6 9.32 6 10 6 C10 6.66 10 7.32 10 8 C9.01 8 8.02 8 7 8 C7 9.32 7 10.64 7 12 C7.66 12 8.32 12 9 12 C9 12.66 9 13.32 9 14 C8.01 14 7.02 14 6 14 C6 15.98 6 17.96 6 20 C5.34 20 4.68 20 4 20 C4 18.02 4 16.04 4 14 C3.01 14 2.02 14 1 14 C0.67 15.98 0.34 17.96 0 20 C-0.66 20 -1.32 20 -2 20 C-2 18.02 -2 16.04 -2 14 C-2.66 14 -3.32 14 -4 14 C-4 13.34 -4 12.68 -4 12 C-3.01 12 -2.02 12 -1 12 C-1 10.68 -1 9.36 -1 8 C-1.66 8 -2.32 8 -3 8 C-3 7.01 -3 6.02 -3 5 C-2.01 5 -1.02 5 0 5 C0 3.35 0 1.7 0 0 Z " fill="#4BAB97" transform="translate(603,5)"/>
<path d="M0 0 C0.66 0 1.32 0 2 0 C2 1.65 2 3.3 2 5 C2.99 5 3.98 5 5 5 C5.33 3.35 5.66 1.7 6 0 C6.66 0 7.32 0 8 0 C8 1.98 8 3.96 8 6 C8.66 6 9.32 6 10 6 C10 6.66 10 7.32 10 8 C9.01 8 8.02 8 7 8 C7 9.32 7 10.64 7 12 C7.66 12 8.32 12 9 12 C9 12.66 9 13.32 9 14 C8.01 14 7.02 14 6 14 C6 15.98 6 17.96 6 20 C5.34 20 4.68 20 4 20 C4 18.02 4 16.04 4 14 C3.01 14 2.02 14 1 14 C0.67 15.98 0.34 17.96 0 20 C-0.66 20 -1.32 20 -2 20 C-2 18.02 -2 16.04 -2 14 C-2.66 14 -3.32 14 -4 14 C-4 13.34 -4 12.68 -4 12 C-3.01 12 -2.02 12 -1 12 C-1 10.68 -1 9.36 -1 8 C-1.66 8 -2.32 8 -3 8 C-3 7.01 -3 6.02 -3 5 C-2.01 5 -1.02 5 0 5 C0 3.35 0 1.7 0 0 Z " fill="#4BAB97" transform="translate(315,5)"/>
<path d="M0 0 C0.66 0.33 1.32 0.66 2 1 C1.67 1.99 1.34 2.98 1 4 C-1.31 3.67 -3.62 3.34 -6 3 C-8.7 7.05 -8.23 9.18 -8 14 C-7.67 14.66 -7.34 15.32 -7 16 C-3.97 16.66 -3.97 16.66 -1 17 C-1 15.35 -1 13.7 -1 12 C-2.32 12 -3.64 12 -5 12 C-5 11.01 -5 10.02 -5 9 C-2.69 9 -0.38 9 2 9 C2 12.3 2 15.6 2 19 C-1.23 20.61 -4.51 20.57 -8 20 C-10.5 18.19 -10.5 18.19 -12 15 C-12.7 10.09 -12.95 5.71 -10.5 1.31 C-6.8 -0.63 -4.16 -0.34 0 0 Z " fill="#BA563E" transform="translate(17,461)"/>
<path d="M0 0 C0.66 0.33 1.32 0.66 2 1 C1.67 1.99 1.34 2.98 1 4 C-1.31 3.67 -3.62 3.34 -6 3 C-8.7 7.05 -8.23 9.18 -8 14 C-7.67 14.66 -7.34 15.32 -7 16 C-3.97 16.66 -3.97 16.66 -1 17 C-1 15.35 -1 13.7 -1 12 C-2.32 12 -3.64 12 -5 12 C-5 11.01 -5 10.02 -5 9 C-2.69 9 -0.38 9 2 9 C2 12.3 2 15.6 2 19 C-1.23 20.61 -4.51 20.57 -8 20 C-10.5 18.19 -10.5 18.19 -12 15 C-12.7 10.09 -12.95 5.71 -10.5 1.31 C-6.8 -0.63 -4.16 -0.34 0 0 Z " fill="#BA563E" transform="translate(17,195)"/>
<path d="M0 0 C0.66 0 1.32 0 2 0 C2 1.65 2 3.3 2 5 C2.99 5 3.98 5 5 5 C5.33 3.35 5.66 1.7 6 0 C6.66 0 7.32 0 8 0 C8 1.98 8 3.96 8 6 C8.66 6 9.32 6 10 6 C10 6.66 10 7.32 10 8 C9.01 8 8.02 8 7 8 C7 9.32 7 10.64 7 12 C7.66 12 8.32 12 9 12 C9 12.66 9 13.32 9 14 C8.01 14 7.02 14 6 14 C6 15.98 6 17.96 6 20 C5.34 20 4.68 20 4 20 C4 18.02 4 16.04 4 14 C3.01 14 2.02 14 1 14 C0.67 15.98 0.34 17.96 0 20 C-0.66 20 -1.32 20 -2 20 C-2 18.02 -2 16.04 -2 14 C-2.66 14 -3.32 14 -4 14 C-4 13.34 -4 12.68 -4 12 C-3.01 12 -2.02 12 -1 12 C-1 10.68 -1 9.36 -1 8 C-1.66 8 -2.32 8 -3 8 C-3 7.01 -3 6.02 -3 5 C-2.01 5 -1.02 5 0 5 C0 3.35 0 1.7 0 0 Z " fill="#B1523B" transform="translate(63,195)"/>
<path d="M0 0 C0.66 0.33 1.32 0.66 2 1 C1.67 1.99 1.34 2.98 1 4 C-1.31 3.67 -3.62 3.34 -6 3 C-8.7 7.05 -8.23 9.18 -8 14 C-7.67 14.66 -7.34 15.32 -7 16 C-3.97 16.66 -3.97 16.66 -1 17 C-1 15.35 -1 13.7 -1 12 C-2.32 12 -3.64 12 -5 12 C-5 11.01 -5 10.02 -5 9 C-2.69 9 -0.38 9 2 9 C2 12.3 2 15.6 2 19 C-1.23 20.61 -4.51 20.57 -8 20 C-10.5 18.19 -10.5 18.19 -12 15 C-12.7 10.09 -12.95 5.71 -10.5 1.31 C-6.8 -0.63 -4.16 -0.34 0 0 Z " fill="#B9563E" transform="translate(17,157)"/>
<path d="M0 0 C0.66 0 1.32 0 2 0 C2 1.65 2 3.3 2 5 C3.32 5 4.64 5 6 5 C6 3.35 6 1.7 6 0 C6.66 0 7.32 0 8 0 C8 1.98 8 3.96 8 6 C8.66 6 9.32 6 10 6 C10 6.66 10 7.32 10 8 C9.01 8 8.02 8 7 8 C7 9.32 7 10.64 7 12 C7.66 12 8.32 12 9 12 C9 12.66 9 13.32 9 14 C8.01 14 7.02 14 6 14 C6 15.98 6 17.96 6 20 C5.34 20 4.68 20 4 20 C4 18.02 4 16.04 4 14 C3.01 14 2.02 14 1 14 C0.67 15.98 0.34 17.96 0 20 C-0.66 20 -1.32 20 -2 20 C-2 18.02 -2 16.04 -2 14 C-2.66 14 -3.32 14 -4 14 C-4 13.34 -4 12.68 -4 12 C-3.01 12 -2.02 12 -1 12 C-1 10.68 -1 9.36 -1 8 C-1.66 8 -2.32 8 -3 8 C-3 7.01 -3 6.02 -3 5 C-2.01 5 -1.02 5 0 5 C0 3.35 0 1.7 0 0 Z " fill="#B6553D" transform="translate(27,385)"/>
<path d="M0 0 C0.66 0 1.32 0 2 0 C2 1.65 2 3.3 2 5 C3.32 5 4.64 5 6 5 C6 3.35 6 1.7 6 0 C6.66 0 7.32 0 8 0 C8 1.98 8 3.96 8 6 C8.66 6 9.32 6 10 6 C10 6.66 10 7.32 10 8 C9.01 8 8.02 8 7 8 C7 9.32 7 10.64 7 12 C7.66 12 8.32 12 9 12 C9 12.66 9 13.32 9 14 C8.01 14 7.02 14 6 14 C6 15.98 6 17.96 6 20 C5.34 20 4.68 20 4 20 C4 18.02 4 16.04 4 14 C3.01 14 2.02 14 1 14 C0.67 15.98 0.34 17.96 0 20 C-0.66 20 -1.32 20 -2 20 C-2 18.02 -2 16.04 -2 14 C-2.66 14 -3.32 14 -4 14 C-4 13.34 -4 12.68 -4 12 C-3.01 12 -2.02 12 -1 12 C-1 10.68 -1 9.36 -1 8 C-1.66 8 -2.32 8 -3 8 C-3 7.01 -3 6.02 -3 5 C-2.01 5 -1.02 5 0 5 C0 3.35 0 1.7 0 0 Z " fill="#B6553D" transform="translate(27,347)"/>
<path d="M0 0 C4.29 0 8.58 0 13 0 C13 0.66 13 1.32 13 2 C9.7 2 6.4 2 3 2 C3 3.98 3 5.96 3 8 C5.64 8 8.28 8 11 8 C11 8.99 11 9.98 11 11 C8.36 11 5.72 11 3 11 C3 12.98 3 14.96 3 17 C6.3 17 9.6 17 13 17 C13 17.99 13 18.98 13 20 C8.71 20 4.42 20 0 20 C0 13.4 0 6.8 0 0 Z " fill="#D9D743" transform="translate(726,499)"/>
<path d="M0 0 C4.29 0 8.58 0 13 0 C13 0.66 13 1.32 13 2 C9.7 2 6.4 2 3 2 C3 3.98 3 5.96 3 8 C5.64 8 8.28 8 11 8 C11 8.99 11 9.98 11 11 C8.36 11 5.72 11 3 11 C3 12.98 3 14.96 3 17 C6.3 17 9.6 17 13 17 C13 17.99 13 18.98 13 20 C8.71 20 4.42 20 0 20 C0 13.4 0 6.8 0 0 Z " fill="#D9D743" transform="translate(726,347)"/>
<path d="M0 0 C4.29 0 8.58 0 13 0 C13 0.66 13 1.32 13 2 C9.7 2 6.4 2 3 2 C3 3.98 3 5.96 3 8 C5.64 8 8.28 8 11 8 C11 8.99 11 9.98 11 11 C8.36 11 5.72 11 3 11 C3 12.98 3 14.96 3 17 C6.3 17 9.6 17 13 17 C13 17.99 13 18.98 13 20 C8.71 20 4.42 20 0 20 C0 13.4 0 6.8 0 0 Z " fill="#D9D743" transform="translate(726,309)"/>
<path d="M0 0 C4.29 0 8.58 0 13 0 C13 0.66 13 1.32 13 2 C9.7 2 6.4 2 3 2 C3 3.98 3 5.96 3 8 C5.64 8 8.28 8 11 8 C11 8.99 11 9.98 11 11 C8.36 11 5.72 11 3 11 C3 12.98 3 14.96 3 17 C6.3 17 9.6 17 13 17 C13 17.99 13 18.98 13 20 C8.71 20 4.42 20 0 20 C0 13.4 0 6.8 0 0 Z " fill="#D9D743" transform="translate(726,271)"/>
<path d="M0 0 C4.29 0 8.58 0 13 0 C13 0.66 13 1.32 13 2 C9.7 2 6.4 2 3 2 C3 3.98 3 5.96 3 8 C5.64 8 8.28 8 11 8 C11 8.99 11 9.98 11 11 C8.36 11 5.72 11 3 11 C3 12.98 3 14.96 3 17 C6.3 17 9.6 17 13 17 C13 17.99 13 18.98 13 20 C8.71 20 4.42 20 0 20 C0 13.4 0 6.8 0 0 Z " fill="#D9D743" transform="translate(726,233)"/>
<path d="M0 0 C4.29 0 8.58 0 13 0 C13 0.66 13 1.32 13 2 C9.7 2 6.4 2 3 2 C3 3.98 3 5.96 3 8 C5.64 8 8.28 8 11 8 C11 8.99 11 9.98 11 11 C8.36 11 5.72 11 3 11 C3 12.98 3 14.96 3 17 C6.3 17 9.6 17 13 17 C13 17.99 13 18.98 13 20 C8.71 20 4.42 20 0 20 C0 13.4 0 6.8 0 0 Z " fill="#B8563D" transform="translate(6,233)"/>
<path d="M0 0 C4.29 0 8.58 0 13 0 C13 0.66 13 1.32 13 2 C9.7 2 6.4 2 3 2 C3 3.98 3 5.96 3 8 C5.64 8 8.28 8 11 8 C11 8.99 11 9.98 11 11 C8.36 11 5.72 11 3 11 C3 12.98 3 14.96 3 17 C6.3 17 9.6 17 13 17 C13 17.99 13 18.98 13 20 C8.71 20 4.42 20 0 20 C0 13.4 0 6.8 0 0 Z " fill="#4EB29D" transform="translate(726,5)"/>
<path d="M0 0 C0 1.32 0 2.64 0 4 C-1.39 3.72 -1.39 3.72 -2.81 3.44 C-6.01 2.76 -6.01 2.76 -9 4 C-9.05 5.44 -9.09 6.87 -9.12 8.31 C-9.16 9.51 -9.16 9.51 -9.2 10.74 C-9.16 13.28 -9.16 13.28 -7 16 C-4.79 16.36 -4.79 16.36 -2.38 16.19 C-1.56 16.16 -0.74 16.13 0.1 16.11 C1.04 16.05 1.04 16.05 2 16 C1.67 16.99 1.34 17.98 1 19 C-2.14 20.57 -4.54 20.35 -8 20 C-10.94 18.12 -10.94 18.12 -13 15 C-13.93 10.03 -13.78 6.28 -11.12 1.94 C-7.24 -1.61 -5.07 -0.84 0 0 Z " fill="#D2D041" transform="translate(306,499)"/>
<path d="M0 0 C0 1.32 0 2.64 0 4 C-1.39 3.72 -1.39 3.72 -2.81 3.44 C-6.01 2.76 -6.01 2.76 -9 4 C-9.05 5.44 -9.09 6.87 -9.12 8.31 C-9.16 9.51 -9.16 9.51 -9.2 10.74 C-9.16 13.28 -9.16 13.28 -7 16 C-4.79 16.36 -4.79 16.36 -2.38 16.19 C-1.56 16.16 -0.74 16.13 0.1 16.11 C1.04 16.05 1.04 16.05 2 16 C1.67 16.99 1.34 17.98 1 19 C-2.14 20.57 -4.54 20.35 -8 20 C-10.94 18.12 -10.94 18.12 -13 15 C-13.93 10.03 -13.78 6.28 -11.12 1.94 C-7.24 -1.61 -5.07 -0.84 0 0 Z " fill="#D2D041" transform="translate(306,385)"/>
<path d="M0 0 C0 1.32 0 2.64 0 4 C-1.39 3.72 -1.39 3.72 -2.81 3.44 C-6.01 2.76 -6.01 2.76 -9 4 C-9.05 5.44 -9.09 6.87 -9.12 8.31 C-9.16 9.51 -9.16 9.51 -9.2 10.74 C-9.16 13.28 -9.16 13.28 -7 16 C-4.79 16.36 -4.79 16.36 -2.38 16.19 C-1.56 16.16 -0.74 16.13 0.1 16.11 C1.04 16.05 1.04 16.05 2 16 C1.67 16.99 1.34 17.98 1 19 C-2.14 20.57 -4.54 20.35 -8 20 C-10.94 18.12 -10.94 18.12 -13 15 C-13.93 10.03 -13.78 6.28 -11.12 1.94 C-7.24 -1.61 -5.07 -0.84 0 0 Z " fill="#D2D041" transform="translate(306,347)"/>
<path d="M0 0 C0 1.32 0 2.64 0 4 C-1.39 3.72 -1.39 3.72 -2.81 3.44 C-6.01 2.76 -6.01 2.76 -9 4 C-9.05 5.44 -9.09 6.87 -9.12 8.31 C-9.16 9.51 -9.16 9.51 -9.2 10.74 C-9.16 13.28 -9.16 13.28 -7 16 C-4.79 16.36 -4.79 16.36 -2.38 16.19 C-1.56 16.16 -0.74 16.13 0.1 16.11 C1.04 16.05 1.04 16.05 2 16 C1.67 16.99 1.34 17.98 1 19 C-2.14 20.57 -4.54 20.35 -8 20 C-10.94 18.12 -10.94 18.12 -13 15 C-13.93 10.03 -13.78 6.28 -11.12 1.94 C-7.24 -1.61 -5.07 -0.84 0 0 Z " fill="#D2D041" transform="translate(306,271)"/>
<path d="M0 0 C0 1.32 0 2.64 0 4 C-1.39 3.72 -1.39 3.72 -2.81 3.44 C-6.01 2.76 -6.01 2.76 -9 4 C-9.05 5.44 -9.09 6.87 -9.12 8.31 C-9.16 9.51 -9.16 9.51 -9.2 10.74 C-9.16 13.28 -9.16 13.28 -7 16 C-4.79 16.36 -4.79 16.36 -2.38 16.19 C-1.56 16.16 -0.74 16.13 0.1 16.11 C1.04 16.05 1.04 16.05 2 16 C1.67 16.99 1.34 17.98 1 19 C-2.14 20.57 -4.54 20.35 -8 20 C-10.94 18.12 -10.94 18.12 -13 15 C-13.93 10.03 -13.78 6.28 -11.12 1.94 C-7.24 -1.61 -5.07 -0.84 0 0 Z " fill="#4CAC98" transform="translate(306,5)"/>
<path d="M0 0 C6 1 6 1 8 3 C8.55 6.38 8.56 9.62 8 13 C5.17 15.6 3.82 16 0 16 C0 10.72 0 5.44 0 0 Z " fill="#120806" transform="translate(8,425)"/>
<path d="M0 0 C0 1.32 0 2.64 0 4 C-1.39 3.72 -1.39 3.72 -2.81 3.44 C-6.01 2.76 -6.01 2.76 -9 4 C-9.05 5.44 -9.09 6.87 -9.12 8.31 C-9.16 9.51 -9.16 9.51 -9.2 10.74 C-9.16 13.28 -9.16 13.28 -7 16 C-4.79 16.36 -4.79 16.36 -2.38 16.19 C-1.56 16.16 -0.74 16.13 0.1 16.11 C1.04 16.05 1.04 16.05 2 16 C1.67 16.99 1.34 17.98 1 19 C-2.14 20.57 -4.54 20.35 -8 20 C-10.94 18.12 -10.94 18.12 -13 15 C-13.9 10.19 -13.61 6.32 -11.56 1.88 C-7.82 -0.86 -4.48 -0.43 0 0 Z " fill="#D6D442" transform="translate(306,309)"/>
<path d="M0 0 C0 1.32 0 2.64 0 4 C-1.39 3.72 -1.39 3.72 -2.81 3.44 C-6.01 2.76 -6.01 2.76 -9 4 C-9.05 5.44 -9.09 6.87 -9.12 8.31 C-9.16 9.51 -9.16 9.51 -9.2 10.74 C-9.16 13.28 -9.16 13.28 -7 16 C-4.79 16.36 -4.79 16.36 -2.38 16.19 C-1.56 16.16 -0.74 16.13 0.1 16.11 C1.04 16.05 1.04 16.05 2 16 C1.67 16.99 1.34 17.98 1 19 C-2.14 20.57 -4.54 20.35 -8 20 C-10.94 18.12 -10.94 18.12 -13 15 C-13.9 10.19 -13.61 6.32 -11.56 1.88 C-7.82 -0.86 -4.48 -0.43 0 0 Z " fill="#4DB09B" transform="translate(162,5)"/>
<path d="M0 0 C0 1.32 0 2.64 0 4 C-0.93 3.77 -1.86 3.55 -2.81 3.31 C-5.88 2.71 -5.88 2.71 -7.88 4 C-9.59 7.06 -9.31 9.57 -9 13 C-8.01 14.49 -8.01 14.49 -7 16 C-4.79 16.36 -4.79 16.36 -2.38 16.19 C-1.56 16.16 -0.74 16.13 0.1 16.11 C1.04 16.05 1.04 16.05 2 16 C1.67 16.99 1.34 17.98 1 19 C-2.14 20.57 -4.54 20.35 -8 20 C-10.94 18.12 -10.94 18.12 -13 15 C-13.9 10.19 -13.61 6.32 -11.56 1.88 C-7.82 -0.86 -4.48 -0.43 0 0 Z " fill="#B7553D" transform="translate(18,347)"/>
<path d="M0 0 C5 0 5 0 6.79 1.22 C8.31 3.46 8.4 4.81 8.38 7.5 C8.38 8.27 8.39 9.05 8.4 9.84 C8 12 8 12 6.79 13.78 C5 15 5 15 0 15 C0 10.05 0 5.1 0 0 Z " fill="#141406" transform="translate(440,463)"/>
<path d="M0 0 C5 0 5 0 6.79 1.22 C8.31 3.46 8.4 4.81 8.38 7.5 C8.38 8.27 8.39 9.05 8.4 9.84 C8 12 8 12 6.79 13.78 C5 15 5 15 0 15 C0 10.05 0 5.1 0 0 Z " fill="#141406" transform="translate(440,425)"/>
<path d="M0 0 C5 0 5 0 6.79 1.22 C8.31 3.46 8.4 4.81 8.38 7.5 C8.38 8.27 8.39 9.05 8.4 9.84 C8 12 8 12 6.79 13.78 C5 15 5 15 0 15 C0 10.05 0 5.1 0 0 Z " fill="#141406" transform="translate(440,197)"/>
<path d="M0 0 C5 0 5 0 6.79 1.22 C8.31 3.46 8.4 4.81 8.38 7.5 C8.38 8.27 8.39 9.05 8.4 9.84 C8 12 8 12 6.79 13.78 C5 15 5 15 0 15 C0 10.05 0 5.1 0 0 Z " fill="#141406" transform="translate(440,159)"/>
<path d="M0 0 C5 0 5 0 6.79 1.22 C8.31 3.46 8.4 4.81 8.38 7.5 C8.38 8.27 8.39 9.05 8.4 9.84 C8 12 8 12 6.79 13.78 C5 15 5 15 0 15 C0 10.05 0 5.1 0 0 Z " fill="#141406" transform="translate(440,121)"/>
<path d="M0 0 C5 0 5 0 6.79 1.22 C8.31 3.46 8.4 4.81 8.38 7.5 C8.38 8.27 8.39 9.05 8.4 9.84 C8 12 8 12 6.79 13.78 C5 15 5 15 0 15 C0 10.05 0 5.1 0 0 Z " fill="#141406" transform="translate(440,83)"/>
<path d="M0 0 C5 0 5 0 6.79 1.22 C8.31 3.46 8.4 4.81 8.38 7.5 C8.38 8.27 8.39 9.05 8.4 9.84 C8 12 8 12 6.79 13.78 C5 15 5 15 0 15 C0 10.05 0 5.1 0 0 Z " fill="#07100E" transform="translate(584,7)"/>
<path d="M0 0 C5 0 5 0 6.79 1.22 C8.31 3.46 8.4 4.81 8.38 7.5 C8.38 8.27 8.39 9.05 8.4 9.84 C8 12 8 12 6.79 13.78 C5 15 5 15 0 15 C0 10.05 0 5.1 0 0 Z " fill="#07100E" transform="translate(440,7)"/>
<path d="M0 0 C3.96 0 7.92 0 12 0 C12 0.66 12 1.32 12 2 C9.03 2 6.06 2 3 2 C3 3.98 3 5.96 3 8 C5.64 8 8.28 8 11 8 C11 8.99 11 9.98 11 11 C8.36 11 5.72 11 3 11 C3 13.97 3 16.94 3 20 C2.01 20 1.02 20 0 20 C0 13.4 0 6.8 0 0 Z " fill="#4DAF9B" transform="translate(1015,5)"/>
<path d="M0 0 C3.96 0 7.92 0 12 0 C12 0.66 12 1.32 12 2 C9.03 2 6.06 2 3 2 C3 4.31 3 6.62 3 9 C5.64 9 8.28 9 11 9 C11 9.66 11 10.32 11 11 C8.36 11 5.72 11 3 11 C3 13.97 3 16.94 3 20 C2.01 20 1.02 20 0 20 C0 13.4 0 6.8 0 0 Z " fill="#DEDC45" transform="translate(1015,423)"/>
<path d="M0 0 C3.96 0 7.92 0 12 0 C12 0.66 12 1.32 12 2 C9.03 2 6.06 2 3 2 C3 4.31 3 6.62 3 9 C5.64 9 8.28 9 11 9 C11 9.66 11 10.32 11 11 C8.36 11 5.72 11 3 11 C3 13.97 3 16.94 3 20 C2.01 20 1.02 20 0 20 C0 13.4 0 6.8 0 0 Z " fill="#DEDC45" transform="translate(1015,385)"/>
<path d="M0 0 C3.96 0 7.92 0 12 0 C12 0.66 12 1.32 12 2 C9.03 2 6.06 2 3 2 C3 4.31 3 6.62 3 9 C5.64 9 8.28 9 11 9 C11 9.66 11 10.32 11 11 C8.36 11 5.72 11 3 11 C3 13.97 3 16.94 3 20 C2.01 20 1.02 20 0 20 C0 13.4 0 6.8 0 0 Z " fill="#C05940" transform="translate(7,385)"/>
<path d="M0 0 C3.96 0 7.92 0 12 0 C12 0.66 12 1.32 12 2 C9.03 2 6.06 2 3 2 C3 4.31 3 6.62 3 9 C5.64 9 8.28 9 11 9 C11 9.66 11 10.32 11 11 C8.36 11 5.72 11 3 11 C3 13.97 3 16.94 3 20 C2.01 20 1.02 20 0 20 C0 13.4 0 6.8 0 0 Z " fill="#DEDC45" transform="translate(1015,195)"/>
<path d="M0 0 C3.96 0 7.92 0 12 0 C12 0.66 12 1.32 12 2 C9.03 2 6.06 2 3 2 C3 4.31 3 6.62 3 9 C5.64 9 8.28 9 11 9 C11 9.66 11 10.32 11 11 C8.36 11 5.72 11 3 11 C3 13.97 3 16.94 3 20 C2.01 20 1.02 20 0 20 C0 13.4 0 6.8 0 0 Z " fill="#BF5940" transform="translate(43,195)"/>
<path d="M0 0 C3.96 0 7.92 0 12 0 C12 0.66 12 1.32 12 2 C9.03 2 6.06 2 3 2 C3 4.31 3 6.62 3 9 C5.64 9 8.28 9 11 9 C11 9.66 11 10.32 11 11 C8.36 11 5.72 11 3 11 C3 13.97 3 16.94 3 20 C2.01 20 1.02 20 0 20 C0 13.4 0 6.8 0 0 Z " fill="#DEDC45" transform="translate(1015,119)"/>
<path d="M0 0 C3.96 0 7.92 0 12 0 C12 0.66 12 1.32 12 2 C9.03 2 6.06 2 3 2 C3 4.31 3 6.62 3 9 C5.64 9 8.28 9 11 9 C11 9.66 11 10.32 11 11 C8.36 11 5.72 11 3 11 C3 13.97 3 16.94 3 20 C2.01 20 1.02 20 0 20 C0 13.4 0 6.8 0 0 Z " fill="#DEDC45" transform="translate(1015,81)"/>
<path d="M0 0 C3.96 0 7.92 0 12 0 C12 0.66 12 1.32 12 2 C9.03 2 6.06 2 3 2 C3 4.31 3 6.62 3 9 C5.64 9 8.28 9 11 9 C11 9.66 11 10.32 11 11 C8.36 11 5.72 11 3 11 C3 13.97 3 16.94 3 20 C2.01 20 1.02 20 0 20 C0 13.4 0 6.8 0 0 Z " fill="#50B6A1" transform="translate(871,5)"/>
<path d="M0 0 C0.99 0 1.98 0 3 0 C2.36 3.59 1.41 6.88 0.15 10.3 C-0.21 11.28 -0.56 12.25 -0.93 13.26 C-1.3 14.27 -1.68 15.27 -2.06 16.31 C-2.63 17.85 -2.63 17.85 -3.21 19.42 C-4.13 21.95 -5.07 24.48 -6 27 C-6.99 27 -7.98 27 -9 27 C-8.36 21 -6.12 15.7 -3.94 10.12 C-3.37 8.66 -3.37 8.66 -2.79 7.17 C-1.87 4.78 -0.94 2.39 0 0 Z " fill="#B3543C" transform="translate(33,193)"/>
<path d="M0 0 C0.99 0 1.98 0 3 0 C2.36 3.59 1.41 6.88 0.15 10.3 C-0.21 11.28 -0.56 12.25 -0.93 13.26 C-1.3 14.27 -1.68 15.27 -2.06 16.31 C-2.63 17.85 -2.63 17.85 -3.21 19.42 C-4.13 21.95 -5.07 24.48 -6 27 C-6.99 27 -7.98 27 -9 27 C-8.36 21 -6.12 15.7 -3.94 10.12 C-3.37 8.66 -3.37 8.66 -2.79 7.17 C-1.87 4.78 -0.94 2.39 0 0 Z " fill="#B3533C" transform="translate(51,117)"/>
<path d="M0 0 C2.64 0 5.28 0 8 0 C8 0.66 8 1.32 8 2 C6.02 2 4.04 2 2 2 C2 3.98 2 5.96 2 8 C3.65 8 5.3 8 7 8 C6.67 8.66 6.34 9.32 6 10 C5.01 10 4.02 10 3 10 C3 12.64 3 15.28 3 18 C4.32 18 5.64 18 7 18 C7 18.66 7 19.32 7 20 C4.69 20 2.38 20 0 20 C0 13.4 0 6.8 0 0 Z " fill="#C25A41" transform="translate(6,119)"/>
<path d="M0 0 C2.64 0 5.28 0 8 0 C8 0.66 8 1.32 8 2 C6.02 2 4.04 2 2 2 C2 3.98 2 5.96 2 8 C3.65 8 5.3 8 7 8 C6.67 8.66 6.34 9.32 6 10 C5.01 10 4.02 10 3 10 C3 12.64 3 15.28 3 18 C4.32 18 5.64 18 7 18 C7 18.66 7 19.32 7 20 C4.69 20 2.38 20 0 20 C0 13.4 0 6.8 0 0 Z " fill="#C25A41" transform="translate(6,81)"/>
<path d="M0 0 C3 1 3 1 5 4 C5.68 7.78 5.79 11.45 4.02 14.92 C2.75 16.56 2.75 16.56 0 19 C-1.32 19 -2.64 19 -4 19 C-4 18.34 -4 17.68 -4 17 C-4.66 16.67 -5.32 16.34 -6 16 C-4.02 15.67 -2.04 15.34 0 15 C0 10.05 0 5.1 0 0 Z " fill="#C5C33D" transform="translate(447,424)"/>
<path d="M0 0 C3.65 1.25 4.78 1.67 7 5 C7.69 8.82 7.87 12.51 5.88 15.92 C4.5 17.56 4.5 17.56 2 20 C1.01 19.67 0.02 19.34 -1 19 C-0.51 18.45 -0.02 17.89 0.48 17.32 C2.27 14.58 2.38 13.11 2.31 9.88 C2.31 9.01 2.3 8.14 2.3 7.24 C2.2 4.8 2.2 4.8 0 3 C0 2.01 0 1.02 0 0 Z " fill="#A84E38" transform="translate(13,423)"/>
<path d="M0 0 C1.32 0 2.64 0 4 0 C4.66 2.31 5.32 4.62 6 7 C5.34 7 4.68 7 4 7 C4 8.65 4 10.3 4 12 C2.68 12 1.36 12 0 12 C-0.22 10.82 -0.22 10.82 -0.44 9.62 C-0.88 7.04 -0.88 7.04 -2 5 C-1.06 2.38 -1.06 2.38 0 0 Z " fill="#B3533B" transform="translate(10,499)"/>
<path d="M0 0 C1.32 0 2.64 0 4 0 C4.66 2.31 5.32 4.62 6 7 C5.34 7 4.68 7 4 7 C4 8.65 4 10.3 4 12 C2.68 12 1.36 12 0 12 C-0.22 10.82 -0.22 10.82 -0.44 9.62 C-0.88 7.04 -0.88 7.04 -2 5 C-1.06 2.38 -1.06 2.38 0 0 Z " fill="#B3533B" transform="translate(10,309)"/>
<path d="M0 0 C1.32 0 2.64 0 4 0 C4.66 2.31 5.32 4.62 6 7 C5.34 7 4.68 7 4 7 C4 8.65 4 10.3 4 12 C2.68 12 1.36 12 0 12 C-0.22 10.82 -0.22 10.82 -0.44 9.62 C-0.88 7.04 -0.88 7.04 -2 5 C-1.06 2.38 -1.06 2.38 0 0 Z " fill="#B2533C" transform="translate(10,271)"/>
<path d="M0 0 C1.67 -0.04 3.33 -0.04 5 0 C6 1 6 1 6.1 4.16 C6.09 5.45 6.07 6.74 6.06 8.06 C6.05 9.35 6.04 10.64 6.04 11.97 C6.02 12.97 6.01 13.97 6 15 C5.01 15 4.02 15 3 15 C3 11.04 3 7.08 3 3 C1.68 2.67 0.36 2.34 -1 2 C-0.67 1.34 -0.34 0.68 0 0 Z " fill="#BE593F" transform="translate(50,390)"/>
<path d="M0 0 C1.67 -0.04 3.33 -0.04 5 0 C6 1 6 1 6.1 4.16 C6.09 5.45 6.07 6.74 6.06 8.06 C6.05 9.35 6.04 10.64 6.04 11.97 C6.02 12.97 6.01 13.97 6 15 C5.01 15 4.02 15 3 15 C3 11.04 3 7.08 3 3 C1.68 2.67 0.36 2.34 -1 2 C-0.67 1.34 -0.34 0.68 0 0 Z " fill="#BE593F" transform="translate(50,352)"/>
<path d="M0 0 C1.67 -0.04 3.33 -0.04 5 0 C6 1 6 1 6.1 4.16 C6.09 5.45 6.07 6.74 6.06 8.06 C6.05 9.35 6.04 10.64 6.04 11.97 C6.02 12.97 6.01 13.97 6 15 C5.01 15 4.02 15 3 15 C3 11.04 3 7.08 3 3 C1.68 2.67 0.36 2.34 -1 2 C-0.67 1.34 -0.34 0.68 0 0 Z " fill="#BE593F" transform="translate(32,124)"/>
<path d="M0 0 C1.98 0 3.96 0 6 0 C6.33 0.99 6.66 1.98 7 3 C6.01 3.33 5.02 3.66 4 4 C3.67 7.63 3.34 11.26 3 15 C2.01 15 1.02 15 0 15 C0 10.05 0 5.1 0 0 Z " fill="#A94F38" transform="translate(22,86)"/>
<path d="M0 0 C0.66 0 1.32 0 2 0 C2 1.65 2 3.3 2 5 C2.99 5 3.98 5 5 5 C5 7.31 5 9.62 5 12 C3.68 12 2.36 12 1 12 C0.34 10.68 -0.32 9.36 -1 8 C-1.66 8 -2.32 8 -3 8 C-3 7.01 -3 6.02 -3 5 C-2.01 5 -1.02 5 0 5 C0 3.35 0 1.7 0 0 Z " fill="#9E9C31" transform="translate(1035,423)"/>
<path d="M0 0 C0.66 0 1.32 0 2 0 C2 1.65 2 3.3 2 5 C2.99 5 3.98 5 5 5 C5 7.31 5 9.62 5 12 C3.68 12 2.36 12 1 12 C0.34 10.68 -0.32 9.36 -1 8 C-1.66 8 -2.32 8 -3 8 C-3 7.01 -3 6.02 -3 5 C-2.01 5 -1.02 5 0 5 C0 3.35 0 1.7 0 0 Z " fill="#9E9C31" transform="translate(1035,385)"/>
<path d="M0 0 C0.66 0 1.32 0 2 0 C2 1.65 2 3.3 2 5 C2.99 5 3.98 5 5 5 C5 7.31 5 9.62 5 12 C3.68 12 2.36 12 1 12 C0.34 10.68 -0.32 9.36 -1 8 C-1.66 8 -2.32 8 -3 8 C-3 7.01 -3 6.02 -3 5 C-2.01 5 -1.02 5 0 5 C0 3.35 0 1.7 0 0 Z " fill="#9E9C31" transform="translate(315,385)"/>
<path d="M0 0 C0.66 0 1.32 0 2 0 C2 1.65 2 3.3 2 5 C2.99 5 3.98 5 5 5 C5 7.31 5 9.62 5 12 C3.68 12 2.36 12 1 12 C0.34 10.68 -0.32 9.36 -1 8 C-1.66 8 -2.32 8 -3 8 C-3 7.01 -3 6.02 -3 5 C-2.01 5 -1.02 5 0 5 C0 3.35 0 1.7 0 0 Z " fill="#823D2B" transform="translate(27,385)"/>
<path d="M0 0 C0.66 0 1.32 0 2 0 C2 1.65 2 3.3 2 5 C2.99 5 3.98 5 5 5 C5 7.31 5 9.62 5 12 C3.68 12 2.36 12 1 12 C0.34 10.68 -0.32 9.36 -1 8 C-1.66 8 -2.32 8 -3 8 C-3 7.01 -3 6.02 -3 5 C-2.01 5 -1.02 5 0 5 C0 3.35 0 1.7 0 0 Z " fill="#9E9C31" transform="translate(1323,347)"/>
<path d="M0 0 C0.66 0 1.32 0 2 0 C2 1.65 2 3.3 2 5 C2.99 5 3.98 5 5 5 C5 7.31 5 9.62 5 12 C3.68 12 2.36 12 1 12 C0.34 10.68 -0.32 9.36 -1 8 C-1.66 8 -2.32 8 -3 8 C-3 7.01 -3 6.02 -3 5 C-2.01 5 -1.02 5 0 5 C0 3.35 0 1.7 0 0 Z " fill="#9E9C31" transform="translate(315,347)"/>
<path d="M0 0 C0.66 0 1.32 0 2 0 C2 1.65 2 3.3 2 5 C2.99 5 3.98 5 5 5 C5 7.31 5 9.62 5 12 C3.68 12 2.36 12 1 12 C0.34 10.68 -0.32 9.36 -1 8 C-1.66 8 -2.32 8 -3 8 C-3 7.01 -3 6.02 -3 5 C-2.01 5 -1.02 5 0 5 C0 3.35 0 1.7 0 0 Z " fill="#823D2B" transform="translate(27,347)"/>
<path d="M0 0 C0.66 0 1.32 0 2 0 C2 1.65 2 3.3 2 5 C2.99 5 3.98 5 5 5 C5 7.31 5 9.62 5 12 C3.68 12 2.36 12 1 12 C0.34 10.68 -0.32 9.36 -1 8 C-1.66 8 -2.32 8 -3 8 C-3 7.01 -3 6.02 -3 5 C-2.01 5 -1.02 5 0 5 C0 3.35 0 1.7 0 0 Z " fill="#9E9C31" transform="translate(315,309)"/>
<path d="M0 0 C0.66 0 1.32 0 2 0 C2 1.65 2 3.3 2 5 C2.99 5 3.98 5 5 5 C5 7.31 5 9.62 5 12 C3.68 12 2.36 12 1 12 C0.34 10.68 -0.32 9.36 -1 8 C-1.66 8 -2.32 8 -3 8 C-3 7.01 -3 6.02 -3 5 C-2.01 5 -1.02 5 0 5 C0 3.35 0 1.7 0 0 Z " fill="#9E9C31" transform="translate(315,271)"/>
<path d="M0 0 C0.66 0 1.32 0 2 0 C2 1.65 2 3.3 2 5 C2.99 5 3.98 5 5 5 C5 7.31 5 9.62 5 12 C3.68 12 2.36 12 1 12 C0.34 10.68 -0.32 9.36 -1 8 C-1.66 8 -2.32 8 -3 8 C-3 7.01 -3 6.02 -3 5 C-2.01 5 -1.02 5 0 5 C0 3.35 0 1.7 0 0 Z " fill="#9E9C31" transform="translate(1323,233)"/>
<path d="M0 0 C0.66 0 1.32 0 2 0 C2 1.65 2 3.3 2 5 C2.99 5 3.98 5 5 5 C5 7.31 5 9.62 5 12 C3.68 12 2.36 12 1 12 C0.34 10.68 -0.32 9.36 -1 8 C-1.66 8 -2.32 8 -3 8 C-3 7.01 -3 6.02 -3 5 C-2.01 5 -1.02 5 0 5 C0 3.35 0 1.7 0 0 Z " fill="#9E9C31" transform="translate(1035,195)"/>
<path d="M0 0 C0.66 0 1.32 0 2 0 C2 1.65 2 3.3 2 5 C2.99 5 3.98 5 5 5 C5 7.31 5 9.62 5 12 C3.68 12 2.36 12 1 12 C0.34 10.68 -0.32 9.36 -1 8 C-1.66 8 -2.32 8 -3 8 C-3 7.01 -3 6.02 -3 5 C-2.01 5 -1.02 5 0 5 C0 3.35 0 1.7 0 0 Z " fill="#823D2B" transform="translate(63,195)"/>
<path d="M0 0 C0.66 0 1.32 0 2 0 C2 1.65 2 3.3 2 5 C2.99 5 3.98 5 5 5 C5 7.31 5 9.62 5 12 C3.68 12 2.36 12 1 12 C0.34 10.68 -0.32 9.36 -1 8 C-1.66 8 -2.32 8 -3 8 C-3 7.01 -3 6.02 -3 5 C-2.01 5 -1.02 5 0 5 C0 3.35 0 1.7 0 0 Z " fill="#9E9C31" transform="translate(1035,119)"/>
<path d="M0 0 C1.32 0 2.64 0 4 0 C4.33 1.32 4.66 2.64 5 4 C4.34 4 3.68 4 3 4 C3.33 6.64 3.66 9.28 4 12 C2.68 12 1.36 12 0 12 C-0.22 10.82 -0.22 10.82 -0.44 9.62 C-0.88 7.04 -0.88 7.04 -2 5 C-1.06 2.38 -1.06 2.38 0 0 Z " fill="#B2533B" transform="translate(64,119)"/>
<path d="M0 0 C0.66 0 1.32 0 2 0 C2 1.65 2 3.3 2 5 C2.99 5 3.98 5 5 5 C5 7.31 5 9.62 5 12 C3.68 12 2.36 12 1 12 C0.34 10.68 -0.32 9.36 -1 8 C-1.66 8 -2.32 8 -3 8 C-3 7.01 -3 6.02 -3 5 C-2.01 5 -1.02 5 0 5 C0 3.35 0 1.7 0 0 Z " fill="#9E9C31" transform="translate(1035,81)"/>
<path d="M0 0 C0.66 0 1.32 0 2 0 C2 1.65 2 3.3 2 5 C2.99 5 3.98 5 5 5 C5 7.31 5 9.62 5 12 C3.68 12 2.36 12 1 12 C0.34 10.68 -0.32 9.36 -1 8 C-1.66 8 -2.32 8 -3 8 C-3 7.01 -3 6.02 -3 5 C-2.01 5 -1.02 5 0 5 C0 3.35 0 1.7 0 0 Z " fill="#398172" transform="translate(1611,5)"/>
<path d="M0 0 C0.66 0 1.32 0 2 0 C2 1.65 2 3.3 2 5 C2.99 5 3.98 5 5 5 C5 7.31 5 9.62 5 12 C3.68 12 2.36 12 1 12 C0.34 10.68 -0.32 9.36 -1 8 C-1.66 8 -2.32 8 -3 8 C-3 7.01 -3 6.02 -3 5 C-2.01 5 -1.02 5 0 5 C0 3.35 0 1.7 0 0 Z " fill="#398172" transform="translate(1323,5)"/>
<path d="M0 0 C0.66 0 1.32 0 2 0 C2 1.65 2 3.3 2 5 C2.99 5 3.98 5 5 5 C5 7.31 5 9.62 5 12 C3.68 12 2.36 12 1 12 C0.34 10.68 -0.32 9.36 -1 8 C-1.66 8 -2.32 8 -3 8 C-3 7.01 -3 6.02 -3 5 C-2.01 5 -1.02 5 0 5 C0 3.35 0 1.7 0 0 Z " fill="#398172" transform="translate(1035,5)"/>
<path d="M0 0 C0.66 0 1.32 0 2 0 C2 1.65 2 3.3 2 5 C2.99 5 3.98 5 5 5 C5 7.31 5 9.62 5 12 C3.68 12 2.36 12 1 12 C0.34 10.68 -0.32 9.36 -1 8 C-1.66 8 -2.32 8 -3 8 C-3 7.01 -3 6.02 -3 5 C-2.01 5 -1.02 5 0 5 C0 3.35 0 1.7 0 0 Z " fill="#398172" transform="translate(603,5)"/>
<path d="M0 0 C0.66 0 1.32 0 2 0 C2 1.65 2 3.3 2 5 C2.99 5 3.98 5 5 5 C5 7.31 5 9.62 5 12 C3.68 12 2.36 12 1 12 C0.34 10.68 -0.32 9.36 -1 8 C-1.66 8 -2.32 8 -3 8 C-3 7.01 -3 6.02 -3 5 C-2.01 5 -1.02 5 0 5 C0 3.35 0 1.7 0 0 Z " fill="#398172" transform="translate(315,5)"/>
<path d="M0 0 C2.31 0 4.62 0 7 0 C7 3.3 7 6.6 7 10 C5.68 10.33 4.36 10.66 3 11 C3 10.34 3 9.68 3 9 C1.68 8.67 0.36 8.34 -1 8 C0.65 8 2.3 8 4 8 C4 6.35 4 4.7 4 3 C2.68 3 1.36 3 0 3 C0 2.01 0 1.02 0 0 Z " fill="#A54D37" transform="translate(12,470)"/>
<path d="M0 0 C2.31 0 4.62 0 7 0 C7 3.3 7 6.6 7 10 C5.68 10.33 4.36 10.66 3 11 C3 10.34 3 9.68 3 9 C1.68 8.67 0.36 8.34 -1 8 C0.65 8 2.3 8 4 8 C4 6.35 4 4.7 4 3 C2.68 3 1.36 3 0 3 C0 2.01 0 1.02 0 0 Z " fill="#A64D37" transform="translate(12,204)"/>
<path d="M0 0 C2.31 0 4.62 0 7 0 C7 3.3 7 6.6 7 10 C5.68 10.33 4.36 10.66 3 11 C3 10.34 3 9.68 3 9 C2.01 8.67 1.02 8.34 0 8 C1.32 8 2.64 8 4 8 C4 6.35 4 4.7 4 3 C2.68 3 1.36 3 0 3 C0 2.01 0 1.02 0 0 Z " fill="#C6C43D" transform="translate(1164,470)"/>
<path d="M0 0 C2.31 0 4.62 0 7 0 C7 3.3 7 6.6 7 10 C5.68 10.33 4.36 10.66 3 11 C3 10.34 3 9.68 3 9 C2.01 8.67 1.02 8.34 0 8 C1.32 8 2.64 8 4 8 C4 6.35 4 4.7 4 3 C2.68 3 1.36 3 0 3 C0 2.01 0 1.02 0 0 Z " fill="#C6C43D" transform="translate(1308,356)"/>
<path d="M0 0 C2.31 0 4.62 0 7 0 C7 3.3 7 6.6 7 10 C5.68 10.33 4.36 10.66 3 11 C3 10.34 3 9.68 3 9 C2.01 8.67 1.02 8.34 0 8 C1.32 8 2.64 8 4 8 C4 6.35 4 4.7 4 3 C2.68 3 1.36 3 0 3 C0 2.01 0 1.02 0 0 Z " fill="#C6C43D" transform="translate(1308,242)"/>
<path d="M0 0 C2.31 0 4.62 0 7 0 C7 3.3 7 6.6 7 10 C5.68 10.33 4.36 10.66 3 11 C3 10.34 3 9.68 3 9 C2.01 8.67 1.02 8.34 0 8 C1.32 8 2.64 8 4 8 C4 6.35 4 4.7 4 3 C2.68 3 1.36 3 0 3 C0 2.01 0 1.02 0 0 Z " fill="#C6C43D" transform="translate(1164,204)"/>
<path d="M0 0 C2.31 0 4.62 0 7 0 C7 3.3 7 6.6 7 10 C5.68 10.33 4.36 10.66 3 11 C3 10.34 3 9.68 3 9 C2.01 8.67 1.02 8.34 0 8 C1.32 8 2.64 8 4 8 C4 6.35 4 4.7 4 3 C2.68 3 1.36 3 0 3 C0 2.01 0 1.02 0 0 Z " fill="#C6C43D" transform="translate(1164,166)"/>
<path d="M0 0 C2.31 0 4.62 0 7 0 C7 3.3 7 6.6 7 10 C5.68 10.33 4.36 10.66 3 11 C3 10.34 3 9.68 3 9 C2.01 8.67 1.02 8.34 0 8 C1.32 8 2.64 8 4 8 C4 6.35 4 4.7 4 3 C2.68 3 1.36 3 0 3 C0 2.01 0 1.02 0 0 Z " fill="#A64D37" transform="translate(12,166)"/>
<path d="M0 0 C2.31 0 4.62 0 7 0 C7 3.3 7 6.6 7 10 C5.68 10.33 4.36 10.66 3 11 C3 10.34 3 9.68 3 9 C2.01 8.67 1.02 8.34 0 8 C1.32 8 2.64 8 4 8 C4 6.35 4 4.7 4 3 C2.68 3 1.36 3 0 3 C0 2.01 0 1.02 0 0 Z " fill="#47A28F" transform="translate(1164,14)"/>
<path d="M0 0 C1.32 0.33 2.64 0.66 4 1 C3.67 5.62 3.34 10.24 3 15 C2.01 15 1.02 15 0 15 C0 10.05 0 5.1 0 0 Z " fill="#A94F38" transform="translate(40,390)"/>
<path d="M0 0 C1.32 0.33 2.64 0.66 4 1 C3.67 5.62 3.34 10.24 3 15 C2.01 15 1.02 15 0 15 C0 10.05 0 5.1 0 0 Z " fill="#A94F38" transform="translate(40,352)"/>
<path d="M0 0 C1.32 0.33 2.64 0.66 4 1 C3.67 5.62 3.34 10.24 3 15 C2.01 15 1.02 15 0 15 C0 10.05 0 5.1 0 0 Z " fill="#A94F38" transform="translate(22,124)"/>
<path d="M0 0 C0.66 0 1.32 0 2 0 C2 1.98 2 3.96 2 6 C2.66 6 3.32 6 4 6 C4 6.66 4 7.32 4 8 C3.01 8 2.02 8 1 8 C0.67 9.32 0.34 10.64 0 12 C-1.32 11.67 -2.64 11.34 -4 11 C-4 9.02 -4 7.04 -4 5 C-3.01 5 -2.02 5 -1 5 C-0.67 3.35 -0.34 1.7 0 0 Z " fill="#A3A232" transform="translate(321,499)"/>
<path d="M0 0 C0.99 0.66 1.98 1.32 3 2 C2.67 2.99 2.34 3.98 2 5 C0.91 4.77 -0.19 4.55 -1.31 4.31 C-4.9 3.58 -4.9 3.58 -6.75 5.44 C-7.16 5.95 -7.58 6.47 -8 7 C-8.99 7 -9.98 7 -11 7 C-10.81 5.19 -10.81 5.19 -10 3 C-6.67 0.41 -4.2 -0.55 0 0 Z " fill="#48A591" transform="translate(1168,4)"/>
<path d="M0 0 C1.98 0 3.96 0 6 0 C6.38 1.66 6.71 3.32 7 5 C6 6 6 6 2.94 6.06 C1.48 6.03 1.48 6.03 0 6 C0 4.02 0 2.04 0 0 Z " fill="#030301" transform="translate(1737,472)"/>
<path d="M0 0 C1.98 0 3.96 0 6 0 C6.38 1.66 6.71 3.32 7 5 C6 6 6 6 2.94 6.06 C1.48 6.03 1.48 6.03 0 6 C0 4.02 0 2.04 0 0 Z " fill="#030301" transform="translate(1737,244)"/>
<path d="M0 0 C1.98 0 3.96 0 6 0 C6.38 1.66 6.71 3.32 7 5 C6 6 6 6 2.94 6.06 C1.48 6.03 1.48 6.03 0 6 C0 4.02 0 2.04 0 0 Z " fill="#030301" transform="translate(1737,206)"/>
<path d="M0 0 C1.98 0 3.96 0 6 0 C6.38 1.66 6.71 3.32 7 5 C6 6 6 6 2.94 6.06 C1.48 6.03 1.48 6.03 0 6 C0 4.02 0 2.04 0 0 Z " fill="#030301" transform="translate(1737,168)"/>
<path d="M0 0 C1.98 0 3.96 0 6 0 C6.38 1.66 6.71 3.32 7 5 C6 6 6 6 2.94 6.06 C1.48 6.03 1.48 6.03 0 6 C0 4.02 0 2.04 0 0 Z " fill="#030301" transform="translate(1737,130)"/>
<path d="M0 0 C1.98 0 3.96 0 6 0 C6.38 1.66 6.71 3.32 7 5 C6 6 6 6 2.94 6.06 C1.48 6.03 1.48 6.03 0 6 C0 4.02 0 2.04 0 0 Z " fill="#010000" transform="translate(9,130)"/>
<path d="M0 0 C1.98 0 3.96 0 6 0 C6.38 1.66 6.71 3.32 7 5 C6 6 6 6 2.94 6.06 C1.48 6.03 1.48 6.03 0 6 C0 4.02 0 2.04 0 0 Z " fill="#030301" transform="translate(1737,92)"/>
<path d="M0 0 C1.98 0 3.96 0 6 0 C6.38 1.66 6.71 3.32 7 5 C6 6 6 6 2.94 6.06 C1.48 6.03 1.48 6.03 0 6 C0 4.02 0 2.04 0 0 Z " fill="#010000" transform="translate(9,92)"/>
<path d="M0 0 C1.98 0 3.96 0 6 0 C6.38 1.66 6.71 3.32 7 5 C6 6 6 6 2.94 6.06 C1.48 6.03 1.48 6.03 0 6 C0 4.02 0 2.04 0 0 Z " fill="#010202" transform="translate(1737,16)"/>
<path d="M0 0 C1.32 0 2.64 0 4 0 C4.33 1.32 4.66 2.64 5 4 C3.68 4 2.36 4 1 4 C0.67 5.98 0.34 7.96 0 10 C-0.99 10.33 -1.98 10.66 -3 11 C-2.69 9.54 -2.38 8.08 -2.06 6.62 C-1.89 5.81 -1.71 5 -1.54 4.16 C-1 2 -1 2 0 0 Z " fill="#D9D743" transform="translate(1450,119)"/>
<path d="M0 0 C0.29 0.62 0.58 1.24 0.88 1.88 C1.94 4.13 1.94 4.13 4 6 C3.01 6 2.02 6 1 6 C0.67 7.98 0.34 9.96 0 12 C-0.66 12 -1.32 12 -2 12 C-2 10.02 -2 8.04 -2 6 C-2.66 6 -3.32 6 -4 6 C-4 5.34 -4 4.68 -4 4 C-3.01 4 -2.02 4 -1 4 C-0.67 2.68 -0.34 1.36 0 0 Z " fill="#B1523B" transform="translate(27,393)"/>
<path d="M0 0 C0.29 0.62 0.58 1.24 0.88 1.88 C1.94 4.13 1.94 4.13 4 6 C3.01 6 2.02 6 1 6 C0.67 7.98 0.34 9.96 0 12 C-0.66 12 -1.32 12 -2 12 C-2 10.02 -2 8.04 -2 6 C-2.66 6 -3.32 6 -4 6 C-4 5.34 -4 4.68 -4 4 C-3.01 4 -2.02 4 -1 4 C-0.67 2.68 -0.34 1.36 0 0 Z " fill="#B1523B" transform="translate(27,355)"/>
<path d="M0 0 C0.66 0 1.32 0 2 0 C2 1.98 2 3.96 2 6 C2.66 6 3.32 6 4 6 C4 6.66 4 7.32 4 8 C3.01 8 2.02 8 1 8 C0.67 9.32 0.34 10.64 0 12 C-1.12 9.75 -1.13 8.49 -1.12 6 C-1.13 4.95 -1.13 4.95 -1.13 3.88 C-1 2 -1 2 0 0 Z " fill="#CDCC3F" transform="translate(1041,423)"/>
<path d="M0 0 C0.66 0 1.32 0 2 0 C2 1.98 2 3.96 2 6 C2.66 6 3.32 6 4 6 C4 6.66 4 7.32 4 8 C3.01 8 2.02 8 1 8 C0.67 9.32 0.34 10.64 0 12 C-1.12 9.75 -1.13 8.49 -1.12 6 C-1.13 4.95 -1.13 4.95 -1.13 3.88 C-1 2 -1 2 0 0 Z " fill="#CDCC3F" transform="translate(1041,385)"/>
<path d="M0 0 C0.66 0 1.32 0 2 0 C2 1.98 2 3.96 2 6 C2.66 6 3.32 6 4 6 C4 6.66 4 7.32 4 8 C3.01 8 2.02 8 1 8 C0.67 9.32 0.34 10.64 0 12 C-1.12 9.75 -1.13 8.49 -1.12 6 C-1.13 4.95 -1.13 4.95 -1.13 3.88 C-1 2 -1 2 0 0 Z " fill="#CDCB3F" transform="translate(1329,347)"/>
<path d="M0 0 C0.66 0 1.32 0 2 0 C2 1.98 2 3.96 2 6 C2.66 6 3.32 6 4 6 C4 6.66 4 7.32 4 8 C3.01 8 2.02 8 1 8 C0.67 9.32 0.34 10.64 0 12 C-1.12 9.75 -1.13 8.49 -1.12 6 C-1.13 4.95 -1.13 4.95 -1.13 3.88 C-1 2 -1 2 0 0 Z " fill="#CDCB3F" transform="translate(321,347)"/>
<path d="M0 0 C0.66 0 1.32 0 2 0 C2 1.98 2 3.96 2 6 C2.66 6 3.32 6 4 6 C4 6.66 4 7.32 4 8 C3.01 8 2.02 8 1 8 C0.67 9.32 0.34 10.64 0 12 C-1.12 9.75 -1.13 8.49 -1.12 6 C-1.13 4.95 -1.13 4.95 -1.13 3.88 C-1 2 -1 2 0 0 Z " fill="#CDCB3F" transform="translate(321,309)"/>
<path d="M0 0 C0.66 0 1.32 0 2 0 C2 1.98 2 3.96 2 6 C2.66 6 3.32 6 4 6 C4 6.66 4 7.32 4 8 C3.01 8 2.02 8 1 8 C0.67 9.32 0.34 10.64 0 12 C-1.12 9.75 -1.13 8.49 -1.12 6 C-1.13 4.95 -1.13 4.95 -1.13 3.88 C-1 2 -1 2 0 0 Z " fill="#CDCC3F" transform="translate(321,271)"/>
<path d="M0 0 C0.66 0 1.32 0 2 0 C2 1.98 2 3.96 2 6 C2.66 6 3.32 6 4 6 C4 6.66 4 7.32 4 8 C3.01 8 2.02 8 1 8 C0.67 9.32 0.34 10.64 0 12 C-1.12 9.75 -1.13 8.49 -1.12 6 C-1.13 4.95 -1.13 4.95 -1.13 3.88 C-1 2 -1 2 0 0 Z " fill="#CDCC3F" transform="translate(1329,233)"/>
<path d="M0 0 C0.66 0 1.32 0 2 0 C2 1.98 2 3.96 2 6 C2.66 6 3.32 6 4 6 C4 6.66 4 7.32 4 8 C3.01 8 2.02 8 1 8 C0.67 9.32 0.34 10.64 0 12 C-1.12 9.75 -1.13 8.49 -1.12 6 C-1.13 4.95 -1.13 4.95 -1.13 3.88 C-1 2 -1 2 0 0 Z " fill="#CDCC3F" transform="translate(1041,195)"/>
<path d="M0 0 C0.66 0 1.32 0 2 0 C2 1.98 2 3.96 2 6 C2.66 6 3.32 6 4 6 C4 6.66 4 7.32 4 8 C3.01 8 2.02 8 1 8 C0.67 9.32 0.34 10.64 0 12 C-1.12 9.75 -1.13 8.49 -1.12 6 C-1.13 4.95 -1.13 4.95 -1.13 3.88 C-1 2 -1 2 0 0 Z " fill="#CDCC3F" transform="translate(1041,119)"/>
<path d="M0 0 C0.66 0 1.32 0 2 0 C2 1.98 2 3.96 2 6 C2.66 6 3.32 6 4 6 C4 6.66 4 7.32 4 8 C3.01 8 2.02 8 1 8 C0.67 9.32 0.34 10.64 0 12 C-1.12 9.75 -1.13 8.49 -1.12 6 C-1.13 4.95 -1.13 4.95 -1.13 3.88 C-1 2 -1 2 0 0 Z " fill="#CDCC3F" transform="translate(1041,81)"/>
<path d="M0 0 C0.66 0 1.32 0 2 0 C2 1.98 2 3.96 2 6 C2.66 6 3.32 6 4 6 C4 6.66 4 7.32 4 8 C3.01 8 2.02 8 1 8 C0.67 9.32 0.34 10.64 0 12 C-1.12 9.75 -1.13 8.49 -1.12 6 C-1.13 4.95 -1.13 4.95 -1.13 3.88 C-1 2 -1 2 0 0 Z " fill="#4AA895" transform="translate(609,5)"/>
<path d="M0 0 C0.66 0 1.32 0 2 0 C2 1.98 2 3.96 2 6 C2.66 6 3.32 6 4 6 C4 6.66 4 7.32 4 8 C3.01 8 2.02 8 1 8 C0.67 9.32 0.34 10.64 0 12 C-1.12 9.75 -1.13 8.49 -1.12 6 C-1.13 4.95 -1.13 4.95 -1.13 3.88 C-1 2 -1 2 0 0 Z " fill="#4AA895" transform="translate(321,5)"/>
<path d="M0 0 C0.66 0 1.32 0 2 0 C2 1.98 2 3.96 2 6 C2.66 6 3.32 6 4 6 C4 6.66 4 7.32 4 8 C3.01 8 2.02 8 1 8 C1 8.66 1 9.32 1 10 C0.34 10 -0.32 10 -1 10 C-1.12 2.25 -1.12 2.25 0 0 Z " fill="#CDCB3F" transform="translate(321,385)"/>
<path d="M0 0 C0.66 0 1.32 0 2 0 C2 1.98 2 3.96 2 6 C2.66 6 3.32 6 4 6 C4 6.66 4 7.32 4 8 C3.01 8 2.02 8 1 8 C1 8.66 1 9.32 1 10 C0.34 10 -0.32 10 -1 10 C-1.12 2.25 -1.12 2.25 0 0 Z " fill="#4AA894" transform="translate(1617,5)"/>
<path d="M0 0 C0.66 0 1.32 0 2 0 C2 1.98 2 3.96 2 6 C2.66 6 3.32 6 4 6 C4 6.66 4 7.32 4 8 C3.01 8 2.02 8 1 8 C1 8.66 1 9.32 1 10 C0.34 10 -0.32 10 -1 10 C-1.12 2.25 -1.12 2.25 0 0 Z " fill="#4AA894" transform="translate(1329,5)"/>
<path d="M0 0 C0.66 0 1.32 0 2 0 C2 1.98 2 3.96 2 6 C2.66 6 3.32 6 4 6 C4 6.66 4 7.32 4 8 C3.01 8 2.02 8 1 8 C1 8.66 1 9.32 1 10 C0.34 10 -0.32 10 -1 10 C-1.12 2.25 -1.12 2.25 0 0 Z " fill="#4AA894" transform="translate(1041,5)"/>
<path d="M0 0 C1.98 0 3.96 0 6 0 C5.67 1.65 5.34 3.3 5 5 C3.35 5 1.7 5 0 5 C0 3.35 0 1.7 0 0 Z " fill="#070702" transform="translate(1737,464)"/>
<path d="M0 0 C1.98 0 3.96 0 6 0 C5.67 1.65 5.34 3.3 5 5 C3.35 5 1.7 5 0 5 C0 3.35 0 1.7 0 0 Z " fill="#070702" transform="translate(1737,236)"/>
<path d="M0 0 C1.98 0 3.96 0 6 0 C5.67 1.65 5.34 3.3 5 5 C3.35 5 1.7 5 0 5 C0 3.35 0 1.7 0 0 Z " fill="#070702" transform="translate(1737,198)"/>
<path d="M0 0 C1.98 0 3.96 0 6 0 C5.67 1.65 5.34 3.3 5 5 C3.35 5 1.7 5 0 5 C0 3.35 0 1.7 0 0 Z " fill="#070702" transform="translate(1737,160)"/>
<path d="M0 0 C1.98 0 3.96 0 6 0 C5.67 1.65 5.34 3.3 5 5 C3.35 5 1.7 5 0 5 C0 3.35 0 1.7 0 0 Z " fill="#070702" transform="translate(1737,122)"/>
<path d="M0 0 C1.98 0 3.96 0 6 0 C5.67 1.65 5.34 3.3 5 5 C3.35 5 1.7 5 0 5 C0 3.35 0 1.7 0 0 Z " fill="#040101" transform="translate(9,122)"/>
<path d="M0 0 C1.98 0 3.96 0 6 0 C5.67 1.65 5.34 3.3 5 5 C3.35 5 1.7 5 0 5 C0 3.35 0 1.7 0 0 Z " fill="#070702" transform="translate(1737,84)"/>
<path d="M0 0 C1.98 0 3.96 0 6 0 C5.67 1.65 5.34 3.3 5 5 C3.35 5 1.7 5 0 5 C0 3.35 0 1.7 0 0 Z " fill="#040201" transform="translate(9,84)"/>
<path d="M0 0 C1.98 0 3.96 0 6 0 C5.67 1.65 5.34 3.3 5 5 C3.35 5 1.7 5 0 5 C0 3.35 0 1.7 0 0 Z " fill="#020605" transform="translate(1737,8)"/>
<path d="M0 0 C0.33 0.66 0.66 1.32 1 2 C1.99 2 2.98 2 4 2 C4 2.66 4 3.32 4 4 C3.01 4 2.02 4 1 4 C1 5.98 1 7.96 1 10 C0.34 10 -0.32 10 -1 10 C-1 7.69 -1 5.38 -1 3 C-1.66 2.67 -2.32 2.34 -3 2 C-2.01 2 -1.02 2 0 2 C0 1.34 0 0.68 0 0 Z " fill="#E0DE45" transform="translate(320,509)"/>
<path d="M0 0 C3.72 -0.2 4.77 -0.15 8 2 C7.67 2.99 7.34 3.98 7 5 C4.36 4.34 1.72 3.68 -1 3 C-0.67 2.01 -0.34 1.02 0 0 Z " fill="#C3C23C" transform="translate(1163,460)"/>
<path d="M0 0 C0.33 0.66 0.66 1.32 1 2 C1.99 2 2.98 2 4 2 C4 2.66 4 3.32 4 4 C3.01 4 2.02 4 1 4 C1 5.98 1 7.96 1 10 C0.34 10 -0.32 10 -1 10 C-1 7.69 -1 5.38 -1 3 C-1.66 2.67 -2.32 2.34 -3 2 C-2.01 2 -1.02 2 0 2 C0 1.34 0 0.68 0 0 Z " fill="#E0DE45" transform="translate(1040,433)"/>
<path d="M0 0 C0.33 0.66 0.66 1.32 1 2 C1.99 2 2.98 2 4 2 C4 2.66 4 3.32 4 4 C3.01 4 2.02 4 1 4 C1 5.98 1 7.96 1 10 C0.34 10 -0.32 10 -1 10 C-1 7.69 -1 5.38 -1 3 C-1.66 2.67 -2.32 2.34 -3 2 C-2.01 2 -1.02 2 0 2 C0 1.34 0 0.68 0 0 Z " fill="#E0DE45" transform="translate(1040,395)"/>
<path d="M0 0 C0.66 0 1.32 0 2 0 C2 0.66 2 1.32 2 2 C2.66 2 3.32 2 4 2 C4 2.66 4 3.32 4 4 C3.01 4 2.02 4 1 4 C1 5.98 1 7.96 1 10 C0.34 10 -0.32 10 -1 10 C-1.12 2.25 -1.12 2.25 0 0 Z " fill="#DEDC45" transform="translate(320,395)"/>
<path d="M0 0 C0.33 0.66 0.66 1.32 1 2 C1.99 2 2.98 2 4 2 C4 2.66 4 3.32 4 4 C3.01 4 2.02 4 1 4 C1 5.98 1 7.96 1 10 C0.34 10 -0.32 10 -1 10 C-1 7.69 -1 5.38 -1 3 C-1.66 2.67 -2.32 2.34 -3 2 C-2.01 2 -1.02 2 0 2 C0 1.34 0 0.68 0 0 Z " fill="#C15A40" transform="translate(32,395)"/>
<path d="M0 0 C0.33 0.66 0.66 1.32 1 2 C1.99 2 2.98 2 4 2 C4 2.66 4 3.32 4 4 C3.01 4 2.02 4 1 4 C1 5.98 1 7.96 1 10 C0.34 10 -0.32 10 -1 10 C-1 7.69 -1 5.38 -1 3 C-1.66 2.67 -2.32 2.34 -3 2 C-2.01 2 -1.02 2 0 2 C0 1.34 0 0.68 0 0 Z " fill="#E0DE45" transform="translate(1328,357)"/>
<path d="M0 0 C0.33 0.66 0.66 1.32 1 2 C1.99 2 2.98 2 4 2 C4 2.66 4 3.32 4 4 C3.01 4 2.02 4 1 4 C1 5.98 1 7.96 1 10 C0.34 10 -0.32 10 -1 10 C-1 7.69 -1 5.38 -1 3 C-1.66 2.67 -2.32 2.34 -3 2 C-2.01 2 -1.02 2 0 2 C0 1.34 0 0.68 0 0 Z " fill="#E0DE45" transform="translate(320,357)"/>
<path d="M0 0 C0.33 0.66 0.66 1.32 1 2 C1.99 2 2.98 2 4 2 C4 2.66 4 3.32 4 4 C3.01 4 2.02 4 1 4 C1 5.98 1 7.96 1 10 C0.34 10 -0.32 10 -1 10 C-1 7.69 -1 5.38 -1 3 C-1.66 2.67 -2.32 2.34 -3 2 C-2.01 2 -1.02 2 0 2 C0 1.34 0 0.68 0 0 Z " fill="#C15A40" transform="translate(32,357)"/>
<path d="M0 0 C3.72 -0.2 4.77 -0.15 8 2 C7.67 2.99 7.34 3.98 7 5 C4.36 4.34 1.72 3.68 -1 3 C-0.67 2.01 -0.34 1.02 0 0 Z " fill="#C3C13C" transform="translate(1307,346)"/>
<path d="M0 0 C0.33 0.66 0.66 1.32 1 2 C1.99 2 2.98 2 4 2 C4 2.66 4 3.32 4 4 C3.01 4 2.02 4 1 4 C1 5.98 1 7.96 1 10 C0.34 10 -0.32 10 -1 10 C-1 7.69 -1 5.38 -1 3 C-1.66 2.67 -2.32 2.34 -3 2 C-2.01 2 -1.02 2 0 2 C0 1.34 0 0.68 0 0 Z " fill="#E0DE45" transform="translate(320,281)"/>
<path d="M0 0 C3.72 -0.2 4.77 -0.15 8 2 C7.67 2.99 7.34 3.98 7 5 C4.36 4.34 1.72 3.68 -1 3 C-0.67 2.01 -0.34 1.02 0 0 Z " fill="#C3C13C" transform="translate(1307,232)"/>
<path d="M0 0 C0.33 0.66 0.66 1.32 1 2 C1.99 2 2.98 2 4 2 C4 2.66 4 3.32 4 4 C3.01 4 2.02 4 1 4 C1 5.98 1 7.96 1 10 C0.34 10 -0.32 10 -1 10 C-1 7.69 -1 5.38 -1 3 C-1.66 2.67 -2.32 2.34 -3 2 C-2.01 2 -1.02 2 0 2 C0 1.34 0 0.68 0 0 Z " fill="#E0DE45" transform="translate(1040,205)"/>
<path d="M0 0 C0.33 0.66 0.66 1.32 1 2 C1.99 2 2.98 2 4 2 C4 2.66 4 3.32 4 4 C3.01 4 2.02 4 1 4 C1 5.98 1 7.96 1 10 C0.34 10 -0.32 10 -1 10 C-1 7.69 -1 5.38 -1 3 C-1.66 2.67 -2.32 2.34 -3 2 C-2.01 2 -1.02 2 0 2 C0 1.34 0 0.68 0 0 Z " fill="#C15A40" transform="translate(68,205)"/>
<path d="M0 0 C3.72 -0.2 4.77 -0.15 8 2 C7.67 2.99 7.34 3.98 7 5 C4.36 4.34 1.72 3.68 -1 3 C-0.67 2.01 -0.34 1.02 0 0 Z " fill="#C3C13C" transform="translate(1163,194)"/>
<path d="M0 0 C3.72 -0.2 4.77 -0.15 8 2 C7.67 2.99 7.34 3.98 7 5 C4.36 4.34 1.72 3.68 -1 3 C-0.67 2.01 -0.34 1.02 0 0 Z " fill="#C3C13C" transform="translate(1163,156)"/>
<path d="M0 0 C0.33 0.66 0.66 1.32 1 2 C1.99 2 2.98 2 4 2 C4 2.66 4 3.32 4 4 C3.01 4 2.02 4 1 4 C1 5.98 1 7.96 1 10 C0.34 10 -0.32 10 -1 10 C-1 7.69 -1 5.38 -1 3 C-1.66 2.67 -2.32 2.34 -3 2 C-2.01 2 -1.02 2 0 2 C0 1.34 0 0.68 0 0 Z " fill="#E0DE45" transform="translate(1040,129)"/>
<path d="M0 0 C0.33 0.66 0.66 1.32 1 2 C1.99 2 2.98 2 4 2 C4 2.66 4 3.32 4 4 C3.01 4 2.02 4 1 4 C1 5.98 1 7.96 1 10 C0.34 10 -0.32 10 -1 10 C-1 7.69 -1 5.38 -1 3 C-1.66 2.67 -2.32 2.34 -3 2 C-2.01 2 -1.02 2 0 2 C0 1.34 0 0.68 0 0 Z " fill="#E0DE45" transform="translate(1040,91)"/>
<path d="M0 0 C0.66 0 1.32 0 2 0 C2 0.66 2 1.32 2 2 C2.66 2 3.32 2 4 2 C4 2.66 4 3.32 4 4 C3.01 4 2.02 4 1 4 C1 5.98 1 7.96 1 10 C0.34 10 -0.32 10 -1 10 C-1.12 2.25 -1.12 2.25 0 0 Z " fill="#50B6A1" transform="translate(1616,15)"/>
<path d="M0 0 C0.66 0 1.32 0 2 0 C2 0.66 2 1.32 2 2 C2.66 2 3.32 2 4 2 C4 2.66 4 3.32 4 4 C3.01 4 2.02 4 1 4 C1 5.98 1 7.96 1 10 C0.34 10 -0.32 10 -1 10 C-1.12 2.25 -1.12 2.25 0 0 Z " fill="#50B6A1" transform="translate(1328,15)"/>
<path d="M0 0 C0.66 0 1.32 0 2 0 C2 0.66 2 1.32 2 2 C2.66 2 3.32 2 4 2 C4 2.66 4 3.32 4 4 C3.01 4 2.02 4 1 4 C1 5.98 1 7.96 1 10 C0.34 10 -0.32 10 -1 10 C-1.12 2.25 -1.12 2.25 0 0 Z " fill="#50B6A1" transform="translate(1040,15)"/>
<path d="M0 0 C0.33 0.66 0.66 1.32 1 2 C1.99 2 2.98 2 4 2 C4 2.66 4 3.32 4 4 C3.01 4 2.02 4 1 4 C1 5.98 1 7.96 1 10 C0.34 10 -0.32 10 -1 10 C-1.33 7.36 -1.66 4.72 -2 2 C-1.34 2 -0.68 2 0 2 C0 1.34 0 0.68 0 0 Z " fill="#E0DD45" transform="translate(320,319)"/>
<path d="M0 0 C0.33 0.66 0.66 1.32 1 2 C1.99 2 2.98 2 4 2 C4 2.66 4 3.32 4 4 C3.01 4 2.02 4 1 4 C1 5.98 1 7.96 1 10 C0.34 10 -0.32 10 -1 10 C-1.33 7.36 -1.66 4.72 -2 2 C-1.34 2 -0.68 2 0 2 C0 1.34 0 0.68 0 0 Z " fill="#E0DD45" transform="translate(1328,243)"/>
<path d="M0 0 C0.33 0.66 0.66 1.32 1 2 C1.99 2 2.98 2 4 2 C4 2.66 4 3.32 4 4 C3.01 4 2.02 4 1 4 C1 5.98 1 7.96 1 10 C0.34 10 -0.32 10 -1 10 C-1.12 2.25 -1.12 2.25 0 0 Z " fill="#51B7A1" transform="translate(608,15)"/>
<path d="M0 0 C0.33 0.66 0.66 1.32 1 2 C1.99 2 2.98 2 4 2 C4 2.66 4 3.32 4 4 C3.01 4 2.02 4 1 4 C1 5.98 1 7.96 1 10 C0.34 10 -0.32 10 -1 10 C-1.12 2.25 -1.12 2.25 0 0 Z " fill="#51B7A1" transform="translate(320,15)"/>
<path d="M0 0 C1.32 0 2.64 0 4 0 C4.33 1.32 4.66 2.64 5 4 C3.68 4 2.36 4 1 4 C1 4.66 1 5.32 1 6 C0.34 6 -0.32 6 -1 6 C-0.67 4.02 -0.34 2.04 0 0 Z " fill="#4FB49F" transform="translate(1594,5)"/>
<path d="M0 0 C0.66 0 1.32 0 2 0 C2.33 2.64 2.66 5.28 3 8 C1.68 8 0.36 8 -1 8 C-0.67 5.36 -0.34 2.72 0 0 Z " fill="#25110C" transform="translate(11,503)"/>
<path d="M0 0 C0.66 0 1.32 0 2 0 C2.33 2.64 2.66 5.28 3 8 C1.68 8 0.36 8 -1 8 C-0.67 5.36 -0.34 2.72 0 0 Z " fill="#25110C" transform="translate(11,313)"/>
<path d="M0 0 C0.66 0 1.32 0 2 0 C2.33 2.64 2.66 5.28 3 8 C1.68 8 0.36 8 -1 8 C-0.67 5.36 -0.34 2.72 0 0 Z " fill="#25110C" transform="translate(11,275)"/>
<path d="M0 0 C0.66 0 1.32 0 2 0 C2.33 2.64 2.66 5.28 3 8 C1.68 8 0.36 8 -1 8 C-0.67 5.36 -0.34 2.72 0 0 Z " fill="#25110C" transform="translate(65,123)"/>
<path d="M0 0 C1.32 0 2.64 0 4 0 C4.33 1.32 4.66 2.64 5 4 C3.02 4.33 1.04 4.66 -1 5 C-0.67 3.35 -0.34 1.7 0 0 Z " fill="#DAD843" transform="translate(1450,499)"/>
<path d="M0 0 C1.32 0 2.64 0 4 0 C4.33 1.32 4.66 2.64 5 4 C3.02 4.33 1.04 4.66 -1 5 C-0.67 3.35 -0.34 1.7 0 0 Z " fill="#DAD843" transform="translate(1450,423)"/>
<path d="M0 0 C1.32 0 2.64 0 4 0 C4.33 1.32 4.66 2.64 5 4 C3.02 4.33 1.04 4.66 -1 5 C-0.67 3.35 -0.34 1.7 0 0 Z " fill="#DAD843" transform="translate(1450,385)"/>
<path d="M0 0 C1.32 0 2.64 0 4 0 C4.33 1.32 4.66 2.64 5 4 C3.02 4.33 1.04 4.66 -1 5 C-0.67 3.35 -0.34 1.7 0 0 Z " fill="#DAD843" transform="translate(1450,309)"/>
<path d="M0 0 C1.32 0 2.64 0 4 0 C4.33 1.32 4.66 2.64 5 4 C3.02 4.33 1.04 4.66 -1 5 C-0.67 3.35 -0.34 1.7 0 0 Z " fill="#DAD843" transform="translate(1450,271)"/>
<path d="M0 0 C0.66 0 1.32 0 2 0 C2.33 2.31 2.66 4.62 3 7 C1.68 7 0.36 7 -1 7 C-0.67 4.69 -0.34 2.38 0 0 Z " fill="#23230B" transform="translate(1451,503)"/>
<path d="M0 0 C0.66 0 1.32 0 2 0 C2.33 2.31 2.66 4.62 3 7 C1.68 7 0.36 7 -1 7 C-0.67 4.69 -0.34 2.38 0 0 Z " fill="#23230B" transform="translate(1451,427)"/>
<path d="M0 0 C0.66 0 1.32 0 2 0 C2.33 2.31 2.66 4.62 3 7 C1.68 7 0.36 7 -1 7 C-0.67 4.69 -0.34 2.38 0 0 Z " fill="#23230B" transform="translate(1451,389)"/>
<path d="M0 0 C0.66 0 1.32 0 2 0 C2.33 2.31 2.66 4.62 3 7 C1.68 7 0.36 7 -1 7 C-0.67 4.69 -0.34 2.38 0 0 Z " fill="#23230B" transform="translate(1451,313)"/>
<path d="M0 0 C0.66 0 1.32 0 2 0 C2.33 2.31 2.66 4.62 3 7 C1.68 7 0.36 7 -1 7 C-0.67 4.69 -0.34 2.38 0 0 Z " fill="#23230B" transform="translate(1451,275)"/>
<path d="M0 0 C0.66 0 1.32 0 2 0 C2.33 2.31 2.66 4.62 3 7 C1.68 7 0.36 7 -1 7 C-0.67 4.69 -0.34 2.38 0 0 Z " fill="#23230B" transform="translate(1451,123)"/>
<path d="M0 0 C0.66 0 1.32 0 2 0 C2.33 2.31 2.66 4.62 3 7 C1.68 7 0.36 7 -1 7 C-0.67 4.69 -0.34 2.38 0 0 Z " fill="#0C1D19" transform="translate(1595,9)"/>
<path d="M0 0 C0.93 3.01 1.04 3.87 0 7 C-0.99 7 -1.98 7 -3 7 C-2.62 4.06 -2.62 4.06 -2 1 C-1.34 0.67 -0.68 0.34 0 0 Z " fill="#AD513A" transform="translate(27,213)"/>
<path d="M0 0 C0.93 3.01 1.04 3.87 0 7 C-0.99 7 -1.98 7 -3 7 C-2.62 4.06 -2.62 4.06 -2 1 C-1.34 0.67 -0.68 0.34 0 0 Z " fill="#AD513A" transform="translate(45,137)"/>
<path d="M0 0 C1.32 0 2.64 0 4 0 C4.33 1.32 4.66 2.64 5 4 C3.02 4 1.04 4 -1 4 C-0.67 2.68 -0.34 1.36 0 0 Z " fill="#4EB19D" transform="translate(1450,5)"/>
</svg>
